G04 Layer: TopSilkLayer*
G04 EasyEDA v6.1.49, Sat, 25 May 2019 11:17:53 GMT*
G04 fc3d14014b1447b58ced6bada5ffd274,46bf6a40d4384fdb86bc8fc37bf60e4c,10*
G04 Gerber Generator version 0.2*
G04 Scale: 100 percent, Rotated: No, Reflected: No *
G04 Dimensions in millimeters *
G04 leading zeros omitted , absolute positions ,3 integer and 3 decimal *
%FSLAX33Y33*%
%MOMM*%
G90*
G71D02*

%ADD10C,0.254000*%
%ADD27C,0.200000*%
%ADD28C,0.162000*%
%ADD29C,0.199898*%
%ADD30C,0.249936*%
%ADD31C,0.152400*%

%LPD*%
G54D10*
G01X11643Y39444D02*
G01X11643Y44945D01*
G01X11653Y44955D02*
G01X11265Y45375D01*
G01X11559Y45375D01*
G01X11864Y45045D01*
G01X19492Y45045D01*
G01X19847Y45426D01*
G01X20011Y45426D01*
G01X20011Y45375D01*
G01X19653Y44955D01*
G01X19643Y39454D02*
G01X19643Y44955D01*
G01X11643Y39444D02*
G01X19643Y39444D01*
G54D27*
G01X16316Y10544D02*
G01X16316Y9444D01*
G01X14715Y9444D01*
G01X14715Y10544D01*
G01X16316Y11344D02*
G01X16316Y12444D01*
G01X15316Y12444D01*
G01X14715Y12444D01*
G01X14715Y11344D01*
G01X22793Y10544D02*
G01X22793Y9444D01*
G01X21192Y9444D01*
G01X21192Y10544D01*
G01X22793Y11344D02*
G01X22793Y12444D01*
G01X21793Y12444D01*
G01X21192Y12444D01*
G01X21192Y11344D01*
G01X9839Y10671D02*
G01X9839Y9571D01*
G01X8238Y9571D01*
G01X8238Y10671D01*
G01X9839Y11471D02*
G01X9839Y12571D01*
G01X8839Y12571D01*
G01X8238Y12571D01*
G01X8238Y11471D01*
G54D10*
G01X26441Y43381D02*
G01X27340Y43381D01*
G01X27340Y40780D01*
G01X22741Y40780D02*
G01X22741Y43381D01*
G01X23640Y43381D01*
G54D28*
G01X23483Y36757D02*
G01X23232Y36756D01*
G01X23483Y37957D02*
G01X23232Y37956D01*
G01X26725Y37962D02*
G01X26976Y37963D01*
G01X26725Y36762D02*
G01X26976Y36763D01*
G54D10*
G01X35839Y28903D02*
G01X36738Y28903D01*
G01X36738Y26302D01*
G01X32139Y26302D02*
G01X32139Y28903D01*
G01X33038Y28903D01*
G54D28*
G01X31231Y26404D02*
G01X31232Y26153D01*
G01X30031Y26404D02*
G01X30032Y26153D01*
G01X38978Y26404D02*
G01X38979Y26153D01*
G01X37778Y26404D02*
G01X37779Y26153D01*
G54D29*
G01X34464Y18973D02*
G01X34464Y16582D01*
G54D27*
G01X10143Y10670D02*
G01X10143Y9570D01*
G01X11143Y9570D01*
G01X11744Y9570D01*
G01X11744Y10670D01*
G01X10156Y11464D02*
G01X10156Y12582D01*
G01X10436Y12861D01*
G01X11452Y12861D01*
G01X11731Y12582D01*
G01X11731Y11464D01*
G01X16747Y10543D02*
G01X16747Y9443D01*
G01X17747Y9443D01*
G01X18348Y9443D01*
G01X18348Y10543D01*
G01X16760Y11337D02*
G01X16760Y12455D01*
G01X17040Y12734D01*
G01X18056Y12734D01*
G01X18335Y12455D01*
G01X18335Y11337D01*
G01X23351Y10543D02*
G01X23351Y9443D01*
G01X24351Y9443D01*
G01X24952Y9443D01*
G01X24952Y10543D01*
G01X23364Y11337D02*
G01X23364Y12455D01*
G01X23644Y12734D01*
G01X24660Y12734D01*
G01X24939Y12455D01*
G01X24939Y11337D01*
G54D10*
G01X288Y15160D02*
G01X288Y33143D01*
G01X25790Y33143D01*
G01X25790Y15160D01*
G01X288Y15160D01*
G01X7172Y16532D02*
G01X7172Y31772D01*
G01X37867Y45234D02*
G01X34819Y45234D01*
G01X34819Y39900D01*
G01X36343Y39900D01*
G01X36343Y44218D01*
G01X37867Y45234D02*
G01X40915Y45234D01*
G01X40915Y39900D01*
G01X39391Y39900D01*
G01X39391Y44218D01*
G01X38629Y44218D01*
G01X38629Y39900D01*
G01X37232Y39900D01*
G01X37232Y44218D01*
G01X35327Y45361D02*
G01X35327Y49933D01*
G01X34819Y49933D01*
G01X34819Y53362D01*
G01X35327Y53362D01*
G01X35327Y53870D01*
G01X40407Y53870D01*
G01X40407Y53362D01*
G01X40915Y53362D01*
G01X40915Y49933D01*
G01X40407Y49933D01*
G01X40407Y45234D01*
G01X40407Y49933D02*
G01X35327Y49933D01*
G01X35327Y53362D02*
G01X40534Y53362D01*
G54D31*
G01X14083Y42814D02*
G01X14083Y42035D01*
G01X14134Y41880D01*
G01X14238Y41776D01*
G01X14396Y41725D01*
G01X14500Y41725D01*
G01X14655Y41776D01*
G01X14759Y41880D01*
G01X14810Y42035D01*
G01X14810Y42814D01*
G01X15882Y42659D02*
G01X15777Y42764D01*
G01X15620Y42814D01*
G01X15414Y42814D01*
G01X15257Y42764D01*
G01X15153Y42659D01*
G01X15153Y42555D01*
G01X15206Y42451D01*
G01X15257Y42400D01*
G01X15361Y42347D01*
G01X15673Y42243D01*
G01X15777Y42192D01*
G01X15828Y42139D01*
G01X15882Y42035D01*
G01X15882Y41880D01*
G01X15777Y41776D01*
G01X15620Y41725D01*
G01X15414Y41725D01*
G01X15257Y41776D01*
G01X15153Y41880D01*
G01X16224Y42814D02*
G01X16224Y41725D01*
G01X16224Y42814D02*
G01X16692Y42814D01*
G01X16847Y42764D01*
G01X16900Y42710D01*
G01X16951Y42606D01*
G01X16951Y42502D01*
G01X16900Y42400D01*
G01X16847Y42347D01*
G01X16692Y42296D01*
G01X16224Y42296D02*
G01X16692Y42296D01*
G01X16847Y42243D01*
G01X16900Y42192D01*
G01X16951Y42088D01*
G01X16951Y41931D01*
G01X16900Y41829D01*
G01X16847Y41776D01*
G01X16692Y41725D01*
G01X16224Y41725D01*
G01X17294Y42606D02*
G01X17398Y42659D01*
G01X17553Y42814D01*
G01X17553Y41725D01*
G01X32289Y38130D02*
G01X32289Y37041D01*
G01X32289Y38130D02*
G01X32964Y38130D01*
G01X32289Y37612D02*
G01X32705Y37612D01*
G01X32289Y37041D02*
G01X32964Y37041D01*
G01X33619Y38130D02*
G01X33462Y38080D01*
G01X33358Y37925D01*
G01X33307Y37663D01*
G01X33307Y37508D01*
G01X33358Y37249D01*
G01X33462Y37092D01*
G01X33619Y37041D01*
G01X33724Y37041D01*
G01X33879Y37092D01*
G01X33983Y37249D01*
G01X34033Y37508D01*
G01X34033Y37663D01*
G01X33983Y37925D01*
G01X33879Y38080D01*
G01X33724Y38130D01*
G01X33619Y38130D01*
G01X34376Y37925D02*
G01X34481Y37975D01*
G01X34638Y38130D01*
G01X34638Y37041D01*
G01X34981Y37508D02*
G01X35916Y37508D01*
G01X36259Y38130D02*
G01X36259Y37041D01*
G01X36259Y38130D02*
G01X36673Y37041D01*
G01X37089Y38130D02*
G01X36673Y37041D01*
G01X37089Y38130D02*
G01X37089Y37041D01*
G01X37432Y38130D02*
G01X37432Y37041D01*
G01X37432Y37041D02*
G01X38054Y37041D01*
G01X38710Y38130D02*
G01X38555Y38080D01*
G01X38451Y37925D01*
G01X38397Y37663D01*
G01X38397Y37508D01*
G01X38451Y37249D01*
G01X38555Y37092D01*
G01X38710Y37041D01*
G01X38814Y37041D01*
G01X38969Y37092D01*
G01X39073Y37249D01*
G01X39126Y37508D01*
G01X39126Y37663D01*
G01X39073Y37925D01*
G01X38969Y38080D01*
G01X38814Y38130D01*
G01X38710Y38130D01*
G01X39469Y37925D02*
G01X39573Y37975D01*
G01X39728Y38130D01*
G01X39728Y37041D01*
G01X40071Y38130D02*
G01X40071Y37041D01*
G01X40071Y38130D02*
G01X40434Y38130D01*
G01X40592Y38080D01*
G01X40696Y37975D01*
G01X40747Y37871D01*
G01X40798Y37716D01*
G01X40798Y37457D01*
G01X40747Y37300D01*
G01X40696Y37196D01*
G01X40592Y37092D01*
G01X40434Y37041D01*
G01X40071Y37041D01*
G01X41140Y38130D02*
G01X41140Y37041D01*
G01X41140Y38130D02*
G01X41610Y38130D01*
G01X41765Y38080D01*
G01X41816Y38029D01*
G01X41869Y37925D01*
G01X41869Y37767D01*
G01X41816Y37663D01*
G01X41765Y37612D01*
G01X41610Y37559D01*
G01X41140Y37559D01*
G01X42835Y38130D02*
G01X42316Y38130D01*
G01X42263Y37663D01*
G01X42316Y37716D01*
G01X42471Y37767D01*
G01X42626Y37767D01*
G01X42784Y37716D01*
G01X42888Y37612D01*
G01X42939Y37457D01*
G01X42939Y37353D01*
G01X42888Y37196D01*
G01X42784Y37092D01*
G01X42626Y37041D01*
G01X42471Y37041D01*
G01X42316Y37092D01*
G01X42263Y37145D01*
G01X42212Y37249D01*
G54D30*
G75*
G01X38452Y16049D02*
G03X38422Y15968I-125J0D01*
G01*
M00*
M02*
