G04 Layer: TopLayer*
G04 EasyEDA v6.1.49, Sat, 25 May 2019 11:17:53 GMT*
G04 fc3d14014b1447b58ced6bada5ffd274,46bf6a40d4384fdb86bc8fc37bf60e4c,10*
G04 Gerber Generator version 0.2*
G04 Scale: 100 percent, Rotated: No, Reflected: No *
G04 Dimensions in millimeters *
G04 leading zeros omitted , absolute positions ,3 integer and 3 decimal *
%FSLAX33Y33*%
%MOMM*%
G90*
G71D02*

%ADD11C,0.250012*%
%ADD12C,1.999996*%
%ADD13C,0.699999*%
%ADD14C,0.620014*%
%ADD20R,0.999998X1.099998*%
%ADD23C,2.299995*%

%LPD*%
G54D11*
G01X9051Y14906D02*
G01X9051Y15909D01*
G01X9801Y16659D01*
G01X19580Y16659D01*
G01X20723Y17802D01*
G01X20723Y21866D01*
G01X22501Y23644D01*
G01X22501Y24152D01*
G01X19211Y33397D02*
G01X19211Y31886D01*
G01X20088Y31010D01*
G01X39757Y31010D01*
G01X40916Y29872D01*
G01X40916Y16659D01*
G01X40154Y15897D01*
G01X37487Y15897D01*
G01X36598Y15008D01*
G01X36598Y14246D01*
G01X25041Y42780D02*
G01X25081Y42821D01*
G01X34439Y42821D01*
G01X45615Y31645D01*
G01X45615Y29232D01*
G01X26311Y35963D02*
G01X36471Y35963D01*
G01X37233Y35201D01*
G01X37233Y34185D01*
G01X16671Y33397D02*
G01X16671Y32394D01*
G01X24279Y24787D01*
G01X24279Y17802D01*
G01X25422Y16659D01*
G01X28597Y16659D01*
G01X28724Y16532D01*
G01X28724Y9420D01*
G01X29359Y8785D01*
G01X41297Y8785D01*
G01X41678Y9166D01*
G01X41678Y11706D01*
G01X27550Y37362D02*
G01X30250Y37362D01*
G01X30558Y37670D01*
G01X30558Y40916D01*
G01X16943Y39635D02*
G01X16913Y39602D01*
G01X16913Y36471D01*
G01X17421Y35963D01*
G01X26311Y35963D01*
G01X17941Y33397D02*
G01X17941Y32140D01*
G01X24787Y25295D01*
G01X24787Y17929D01*
G01X25549Y17167D01*
G01X28851Y17167D01*
G01X29232Y16786D01*
G01X29232Y10055D01*
G01X29994Y9293D01*
G01X38757Y9293D01*
G01X39138Y9674D01*
G01X39138Y11706D01*
G01X34439Y28302D02*
G01X34439Y28343D01*
G01X30883Y28343D01*
G01X30631Y28091D01*
G01X30631Y26979D01*
G01X20481Y33397D02*
G01X20481Y31886D01*
G01X20850Y31518D01*
G01X40027Y31518D01*
G01X41551Y29994D01*
G01X41551Y16151D01*
G01X21751Y33397D02*
G01X21751Y32521D01*
G01X22247Y32026D01*
G01X40154Y32026D01*
G01X42186Y29994D01*
G01X42186Y14246D01*
G01X41678Y14246D01*
G01X9051Y33397D02*
G01X9051Y29092D01*
G01X9547Y28597D01*
G01X19707Y28597D01*
G01X23644Y24660D01*
G01X23644Y17675D01*
G01X25803Y15516D01*
G01X12861Y33397D02*
G01X12861Y30895D01*
G01X12849Y30883D01*
G01X24291Y14906D02*
G01X24291Y16011D01*
G01X21485Y18817D01*
G01X21485Y20342D01*
G01X45615Y29232D02*
G01X45615Y23771D01*
G01X7781Y14906D02*
G01X7781Y16290D01*
G01X8912Y17421D01*
G01X11325Y17421D01*
G01X11960Y31264D02*
G01X11960Y33029D01*
G01X11591Y33397D01*
G01X23539Y40281D02*
G01X22755Y39496D01*
G01X22755Y38757D01*
G01X22755Y38757D02*
G01X22755Y37453D01*
G01X22658Y37356D01*
G01X24058Y37356D02*
G01X25041Y38339D01*
G01X25041Y38757D01*
G01X25041Y38757D02*
G01X25041Y40380D01*
G01X43583Y17548D02*
G01X43583Y29232D01*
G01X40027Y32788D01*
G01X39417Y33397D01*
G01X24291Y33397D01*
G01X14342Y39634D02*
G01X14342Y37106D01*
G01X11142Y42705D02*
G01X20143Y42705D01*
G01X34439Y23136D02*
G01X34439Y25902D01*
G01X5102Y39392D02*
G01X6245Y40535D01*
G01X9801Y40535D01*
G01X25041Y42780D02*
G01X25041Y40380D01*
G01X38379Y26979D02*
G01X37266Y26979D01*
G01X37233Y26946D01*
G01X30632Y25578D02*
G01X31615Y25578D01*
G01X31645Y25549D01*
G01X31645Y25549D02*
G01X32683Y25549D01*
G01X32937Y25803D01*
G01X38379Y25578D02*
G01X38379Y24155D01*
G01X38376Y24152D01*
G01X35940Y25803D02*
G01X37083Y26946D01*
G01X37233Y26946D01*
G01X26541Y35963D02*
G01X26542Y35963D01*
G01X26542Y40281D01*
G01X34058Y14246D02*
G01X34439Y14627D01*
G01X34439Y25902D01*
G01X37461Y17802D02*
G01X37460Y17801D01*
G01X34439Y17801D01*
G01X31416Y17802D02*
G01X31416Y20824D01*
G01X31391Y20850D01*
G01X22374Y16659D02*
G01X23021Y16011D01*
G01X23021Y14906D01*
G01X21993Y10244D02*
G01X24151Y10244D01*
G01X24152Y10243D01*
G01X15516Y10244D02*
G01X17547Y10244D01*
G01X17548Y10243D01*
G01X9039Y10371D02*
G01X10943Y10371D01*
G01X10944Y10370D01*
G01X17548Y11644D02*
G01X19010Y11644D01*
G01X19072Y11706D01*
G01X24152Y11644D02*
G01X25483Y11644D01*
G01X25549Y11579D01*
G01X10944Y11771D02*
G01X12275Y11771D01*
G01X12341Y11706D01*
G01X21751Y14906D02*
G01X21993Y14665D01*
G01X21993Y11643D01*
G01X15516Y11643D02*
G01X15516Y12214D01*
G01X16405Y13103D01*
G01X19072Y13103D01*
G01X19211Y13242D01*
G01X19211Y14906D01*
G01X9039Y11770D02*
G01X9039Y12341D01*
G01X9674Y12976D01*
G01X15643Y12976D01*
G01X16405Y13738D01*
G01X16671Y14004D01*
G01X16671Y14906D01*
G01X8101Y36392D02*
G01X8101Y38454D01*
G01X8658Y39011D01*
G01X9801Y39011D01*
G54D12*
G01X25041Y42030D02*
G01X25041Y43530D01*
G54D13*
G01X25041Y39680D02*
G01X25041Y41080D01*
G01X26542Y39681D02*
G01X26542Y40881D01*
G01X23539Y39681D02*
G01X23539Y40881D01*
G54D12*
G01X34439Y27552D02*
G01X34439Y29052D01*
G54D13*
G01X34439Y25202D02*
G01X34439Y26602D01*
G01X35940Y25203D02*
G01X35940Y26403D01*
G01X32937Y25203D02*
G01X32937Y26403D01*
G36*
G01X10301Y41035D02*
G01X10301Y40035D01*
G01X9301Y40035D01*
G01X9301Y41035D01*
G01X10301Y41035D01*
G37*
G36*
G01X10352Y39510D02*
G01X10352Y38511D01*
G01X9249Y38511D01*
G01X9249Y39510D01*
G01X10352Y39510D01*
G37*
G36*
G01X14116Y38635D02*
G01X14116Y40634D01*
G01X14568Y40634D01*
G01X14568Y38635D01*
G01X14116Y38635D01*
G37*
G36*
G01X14767Y39134D02*
G01X14767Y40134D01*
G01X15217Y40134D01*
G01X15217Y39134D01*
G01X14767Y39134D01*
G37*
G36*
G01X15418Y39134D02*
G01X15418Y40134D01*
G01X15868Y40134D01*
G01X15868Y39134D01*
G01X15418Y39134D01*
G37*
G36*
G01X16068Y39134D02*
G01X16068Y40134D01*
G01X16518Y40134D01*
G01X16518Y39134D01*
G01X16068Y39134D01*
G37*
G36*
G01X16717Y38635D02*
G01X16717Y40634D01*
G01X17169Y40634D01*
G01X17169Y38635D01*
G01X16717Y38635D01*
G37*
G36*
G01X12092Y43755D02*
G01X12092Y41655D01*
G01X10192Y41655D01*
G01X10192Y43755D01*
G01X12092Y43755D01*
G37*
G36*
G01X21093Y43755D02*
G01X21093Y41655D01*
G01X19193Y41655D01*
G01X19193Y43755D01*
G01X21093Y43755D01*
G37*
G36*
G01X16067Y12142D02*
G01X16067Y11144D01*
G01X14964Y11144D01*
G01X14964Y12142D01*
G01X16067Y12142D01*
G37*
G36*
G01X16067Y10743D02*
G01X16067Y9745D01*
G01X14964Y9745D01*
G01X14964Y10743D01*
G01X16067Y10743D01*
G37*
G36*
G01X22544Y12142D02*
G01X22544Y11144D01*
G01X21441Y11144D01*
G01X21441Y12142D01*
G01X22544Y12142D01*
G37*
G36*
G01X22544Y10743D02*
G01X22544Y9745D01*
G01X21441Y9745D01*
G01X21441Y10743D01*
G01X22544Y10743D01*
G37*
G36*
G01X9590Y12269D02*
G01X9590Y11271D01*
G01X8487Y11271D01*
G01X8487Y12269D01*
G01X9590Y12269D01*
G37*
G36*
G01X9590Y10870D02*
G01X9590Y9872D01*
G01X8487Y9872D01*
G01X8487Y10870D01*
G01X9590Y10870D01*
G37*
G54D20*
G01X22657Y37356D03*
G01X24058Y37356D03*
G36*
G01X28051Y36813D02*
G01X27051Y36813D01*
G01X27051Y37913D01*
G01X28051Y37913D01*
G01X28051Y36813D01*
G37*
G36*
G01X26651Y36813D02*
G01X25651Y36813D01*
G01X25651Y37913D01*
G01X26651Y37913D01*
G01X26651Y36813D01*
G37*
G36*
G01X30082Y25078D02*
G01X30082Y26078D01*
G01X31182Y26078D01*
G01X31182Y25078D01*
G01X30082Y25078D01*
G37*
G36*
G01X30082Y26478D02*
G01X30082Y27478D01*
G01X31182Y27478D01*
G01X31182Y26478D01*
G01X30082Y26478D01*
G37*
G36*
G01X37829Y25078D02*
G01X37829Y26078D01*
G01X38929Y26078D01*
G01X38929Y25078D01*
G01X37829Y25078D01*
G37*
G36*
G01X37829Y26478D02*
G01X37829Y27478D01*
G01X38929Y27478D01*
G01X38929Y26478D01*
G01X37829Y26478D01*
G37*
G36*
G01X32629Y16552D02*
G01X30203Y16552D01*
G01X30203Y19051D01*
G01X32629Y19051D01*
G01X32629Y16552D01*
G37*
G36*
G01X38674Y16552D02*
G01X36248Y16552D01*
G01X36248Y19051D01*
G01X38674Y19051D01*
G01X38674Y16552D01*
G37*
G36*
G01X10394Y9870D02*
G01X10394Y10870D01*
G01X11494Y10870D01*
G01X11494Y9870D01*
G01X10394Y9870D01*
G37*
G36*
G01X10394Y11270D02*
G01X10394Y12270D01*
G01X11494Y12270D01*
G01X11494Y11270D01*
G01X10394Y11270D01*
G37*
G36*
G01X16998Y9743D02*
G01X16998Y10743D01*
G01X18098Y10743D01*
G01X18098Y9743D01*
G01X16998Y9743D01*
G37*
G36*
G01X16998Y11143D02*
G01X16998Y12143D01*
G01X18098Y12143D01*
G01X18098Y11143D01*
G01X16998Y11143D01*
G37*
G36*
G01X23602Y9743D02*
G01X23602Y10743D01*
G01X24702Y10743D01*
G01X24702Y9743D01*
G01X23602Y9743D01*
G37*
G36*
G01X23602Y11143D02*
G01X23602Y12143D01*
G01X24702Y12143D01*
G01X24702Y11143D01*
G01X23602Y11143D01*
G37*
G36*
G01X11091Y14155D02*
G01X11091Y15656D01*
G01X12092Y15656D01*
G01X12092Y14155D01*
G01X11091Y14155D01*
G37*
G36*
G01X12361Y14155D02*
G01X12361Y15656D01*
G01X13362Y15656D01*
G01X13362Y14155D01*
G01X12361Y14155D01*
G37*
G36*
G01X13631Y14155D02*
G01X13631Y15656D01*
G01X14632Y15656D01*
G01X14632Y14155D01*
G01X13631Y14155D01*
G37*
G36*
G01X14901Y14155D02*
G01X14901Y15656D01*
G01X15902Y15656D01*
G01X15902Y14155D01*
G01X14901Y14155D01*
G37*
G36*
G01X16171Y14155D02*
G01X16171Y15656D01*
G01X17172Y15656D01*
G01X17172Y14155D01*
G01X16171Y14155D01*
G37*
G36*
G01X17441Y14155D02*
G01X17441Y15656D01*
G01X18442Y15656D01*
G01X18442Y14155D01*
G01X17441Y14155D01*
G37*
G36*
G01X18711Y14155D02*
G01X18711Y15656D01*
G01X19712Y15656D01*
G01X19712Y14155D01*
G01X18711Y14155D01*
G37*
G36*
G01X19981Y14155D02*
G01X19981Y15656D01*
G01X20982Y15656D01*
G01X20982Y14155D01*
G01X19981Y14155D01*
G37*
G36*
G01X23791Y32647D02*
G01X23791Y34148D01*
G01X24792Y34148D01*
G01X24792Y32647D01*
G01X23791Y32647D01*
G37*
G36*
G01X22521Y32647D02*
G01X22521Y34148D01*
G01X23522Y34148D01*
G01X23522Y32647D01*
G01X22521Y32647D01*
G37*
G36*
G01X21251Y32647D02*
G01X21251Y34148D01*
G01X22252Y34148D01*
G01X22252Y32647D01*
G01X21251Y32647D01*
G37*
G36*
G01X19981Y32647D02*
G01X19981Y34148D01*
G01X20982Y34148D01*
G01X20982Y32647D01*
G01X19981Y32647D01*
G37*
G36*
G01X18711Y32647D02*
G01X18711Y34148D01*
G01X19712Y34148D01*
G01X19712Y32647D01*
G01X18711Y32647D01*
G37*
G36*
G01X17441Y32647D02*
G01X17441Y34148D01*
G01X18442Y34148D01*
G01X18442Y32647D01*
G01X17441Y32647D01*
G37*
G36*
G01X16171Y32647D02*
G01X16171Y34148D01*
G01X17172Y34148D01*
G01X17172Y32647D01*
G01X16171Y32647D01*
G37*
G36*
G01X21251Y14155D02*
G01X21251Y15656D01*
G01X22252Y15656D01*
G01X22252Y14155D01*
G01X21251Y14155D01*
G37*
G36*
G01X22521Y14155D02*
G01X22521Y15656D01*
G01X23522Y15656D01*
G01X23522Y14155D01*
G01X22521Y14155D01*
G37*
G36*
G01X23791Y14155D02*
G01X23791Y15656D01*
G01X24792Y15656D01*
G01X24792Y14155D01*
G01X23791Y14155D01*
G37*
G36*
G01X9821Y14155D02*
G01X9821Y15656D01*
G01X10822Y15656D01*
G01X10822Y14155D01*
G01X9821Y14155D01*
G37*
G36*
G01X8551Y14155D02*
G01X8551Y15656D01*
G01X9552Y15656D01*
G01X9552Y14155D01*
G01X8551Y14155D01*
G37*
G36*
G01X7281Y14155D02*
G01X7281Y15656D01*
G01X8282Y15656D01*
G01X8282Y14155D01*
G01X7281Y14155D01*
G37*
G36*
G01X14901Y32647D02*
G01X14901Y34148D01*
G01X15902Y34148D01*
G01X15902Y32647D01*
G01X14901Y32647D01*
G37*
G36*
G01X13631Y32647D02*
G01X13631Y34148D01*
G01X14632Y34148D01*
G01X14632Y32647D01*
G01X13631Y32647D01*
G37*
G36*
G01X12361Y32647D02*
G01X12361Y34148D01*
G01X13362Y34148D01*
G01X13362Y32647D01*
G01X12361Y32647D01*
G37*
G36*
G01X11091Y32647D02*
G01X11091Y34148D01*
G01X12092Y34148D01*
G01X12092Y32647D01*
G01X11091Y32647D01*
G37*
G36*
G01X9821Y32647D02*
G01X9821Y34148D01*
G01X10822Y34148D01*
G01X10822Y32647D01*
G01X9821Y32647D01*
G37*
G36*
G01X8551Y32647D02*
G01X8551Y34148D01*
G01X9552Y34148D01*
G01X9552Y32647D01*
G01X8551Y32647D01*
G37*
G36*
G01X7281Y32647D02*
G01X7281Y34148D01*
G01X8282Y34148D01*
G01X8282Y32647D01*
G01X7281Y32647D01*
G37*

%LPD*%
G36*
G01X6297Y40410D02*
G01X6120Y40587D01*
G01X5030Y40539D01*
G01X6249Y39320D01*
G01X6297Y40410D01*
G37*

%LPD*%
G36*
G01X8226Y37957D02*
G01X7976Y37957D01*
G01X7239Y37152D01*
G01X8964Y37152D01*
G01X8226Y37957D01*
G37*

%LPD*%
G36*
G01X34564Y15516D02*
G01X34314Y15589D01*
G01X33523Y15090D01*
G01X34963Y14671D01*
G01X34564Y15516D01*
G37*

%LPD*%
G36*
G01X37227Y15460D02*
G01X36974Y15561D01*
G01X36145Y15137D01*
G01X37539Y14583D01*
G01X37227Y15460D01*
G37*

%LPD*%
G36*
G01X39888Y11044D02*
G01X38388Y11044D01*
G01X39013Y10344D01*
G01X39263Y10344D01*
G01X39888Y11044D01*
G37*

%LPD*%
G36*
G01X42428Y11044D02*
G01X40928Y11044D01*
G01X41553Y10344D01*
G01X41803Y10344D01*
G01X42428Y11044D01*
G37*

%LPD*%
G36*
G01X42311Y15458D02*
G01X42061Y15559D01*
G01X41228Y15139D01*
G01X42620Y14579D01*
G01X42311Y15458D01*
G37*

%LPD*%
G36*
G01X31308Y40254D02*
G01X29808Y40254D01*
G01X30433Y39554D01*
G01X30683Y39554D01*
G01X31308Y40254D01*
G37*

%LPD*%
G36*
G01X25822Y15825D02*
G01X25592Y15902D01*
G01X25416Y15726D01*
G01X25493Y15496D01*
G01X25822Y15825D01*
G37*

%LPD*%
G36*
G01X12986Y31301D02*
G01X12736Y31308D01*
G01X12622Y31094D01*
G01X13087Y31081D01*
G01X12986Y31301D01*
G37*

%LPD*%
G36*
G01X41676Y16573D02*
G01X41426Y16573D01*
G01X41318Y16356D01*
G01X41783Y16356D01*
G01X41676Y16573D01*
G37*

%LPD*%
G36*
G01X43708Y17970D02*
G01X43458Y17970D01*
G01X43350Y17753D01*
G01X43815Y17753D01*
G01X43708Y17970D01*
G37*

%LPD*%
G36*
G01X11119Y17188D02*
G01X11119Y17653D01*
G01X10902Y17546D01*
G01X10902Y17296D01*
G01X11119Y17188D01*
G37*

%LPD*%
G36*
G01X12085Y31686D02*
G01X11835Y31686D01*
G01X11727Y31469D01*
G01X12192Y31469D01*
G01X12085Y31686D01*
G37*

%LPD*%
G36*
G01X22760Y16448D02*
G01X22683Y16678D01*
G01X22354Y16349D01*
G01X22584Y16272D01*
G01X22760Y16448D01*
G37*

%LPD*%
G36*
G01X22880Y39179D02*
G01X22630Y39179D01*
G01X22522Y38962D01*
G01X22987Y38962D01*
G01X22880Y39179D01*
G37*

%LPD*%
G36*
G01X22987Y38551D02*
G01X22522Y38551D01*
G01X22630Y38334D01*
G01X22880Y38334D01*
G01X22987Y38551D01*
G37*

%LPD*%
G36*
G01X45740Y24193D02*
G01X45490Y24193D01*
G01X45382Y23976D01*
G01X45847Y23976D01*
G01X45740Y24193D01*
G37*

%LPD*%
G36*
G01X31541Y20436D02*
G01X31635Y20659D01*
G01X31171Y20631D01*
G01X31291Y20421D01*
G01X31541Y20436D01*
G37*

%LPD*%
G36*
G01X14467Y37528D02*
G01X14217Y37528D01*
G01X14110Y37311D01*
G01X14575Y37311D01*
G01X14467Y37528D01*
G37*

%LPD*%
G36*
G01X38504Y24573D02*
G01X38254Y24574D01*
G01X38145Y24358D01*
G01X38610Y24355D01*
G01X38504Y24573D01*
G37*

%LPD*%
G36*
G01X31423Y25331D02*
G01X31456Y25795D01*
G01X31232Y25703D01*
G01X31215Y25453D01*
G01X31423Y25331D01*
G37*

%LPD*%
G36*
G01X32067Y25674D02*
G01X31850Y25781D01*
G01X31850Y25316D01*
G01X32067Y25424D01*
G01X32067Y25674D01*
G37*

%LPD*%
G36*
G01X37643Y27104D02*
G01X37419Y27193D01*
G01X37455Y26730D01*
G01X37663Y26854D01*
G01X37643Y27104D01*
G37*

%LPD*%
G36*
G01X37174Y26641D02*
G01X36938Y27042D01*
G01X36803Y26843D01*
G01X36934Y26620D01*
G01X37174Y26641D01*
G37*

%LPD*%
G36*
G01X22733Y23946D02*
G01X22268Y23946D01*
G01X22376Y23729D01*
G01X22626Y23729D01*
G01X22733Y23946D01*
G37*

%LPD*%
G36*
G01X25273Y38551D02*
G01X24808Y38551D01*
G01X24916Y38339D01*
G01X25166Y38339D01*
G01X25273Y38551D01*
G37*

%LPD*%
G36*
G01X25166Y39179D02*
G01X24916Y39179D01*
G01X24808Y38962D01*
G01X25273Y38962D01*
G01X25166Y39179D01*
G37*

%LPD*%
G36*
G01X37358Y34607D02*
G01X37108Y34607D01*
G01X37000Y34390D01*
G01X37465Y34390D01*
G01X37358Y34607D01*
G37*

%LPD*%
G36*
G01X34564Y23558D02*
G01X34314Y23558D01*
G01X34206Y23341D01*
G01X34671Y23341D01*
G01X34564Y23558D01*
G37*

%LPD*%
G36*
G01X34564Y23558D02*
G01X34314Y23558D01*
G01X34206Y23341D01*
G01X34671Y23341D01*
G01X34564Y23558D01*
G37*

%LPD*%
G36*
G01X34671Y22930D02*
G01X34206Y22930D01*
G01X34314Y22713D01*
G01X34564Y22713D01*
G01X34671Y22930D01*
G37*

%LPD*%
G36*
G01X21717Y20136D02*
G01X21252Y20136D01*
G01X21360Y19919D01*
G01X21610Y19919D01*
G01X21717Y20136D01*
G37*

%LPD*%
G36*
G01X18903Y11445D02*
G01X18835Y11905D01*
G01X18635Y11769D01*
G01X18673Y11519D01*
G01X18903Y11445D01*
G37*

%LPD*%
G36*
G01X25310Y11380D02*
G01X25382Y11840D01*
G01X25151Y11769D01*
G01X25112Y11519D01*
G01X25310Y11380D01*
G37*

%LPD*%
G36*
G01X12102Y11507D02*
G01X12174Y11967D01*
G01X11943Y11896D01*
G01X11904Y11646D01*
G01X12102Y11507D01*
G37*

%LPD*%
G36*
G01X9301Y40222D02*
G01X9301Y40847D01*
G01X8926Y40660D01*
G01X8926Y40410D01*
G01X9301Y40222D01*
G37*

%LPD*%
G36*
G01X9249Y38698D02*
G01X9249Y39323D01*
G01X8874Y39136D01*
G01X8874Y38886D01*
G01X9249Y38698D01*
G37*

%LPD*%
G36*
G01X14568Y38635D02*
G01X14116Y38635D01*
G01X14217Y38260D01*
G01X14467Y38260D01*
G01X14568Y38635D01*
G37*

%LPD*%
G36*
G01X17169Y38635D02*
G01X16717Y38635D01*
G01X16788Y38260D01*
G01X17038Y38260D01*
G01X17169Y38635D01*
G37*

%LPD*%
G36*
G01X12467Y42830D02*
G01X12092Y43017D01*
G01X12092Y42392D01*
G01X12467Y42580D01*
G01X12467Y42830D01*
G37*

%LPD*%
G36*
G01X19193Y42392D02*
G01X19193Y43017D01*
G01X18818Y42830D01*
G01X18818Y42580D01*
G01X19193Y42392D01*
G37*

%LPD*%
G36*
G01X15641Y12214D02*
G01X15391Y12214D01*
G01X15203Y12142D01*
G01X15828Y12142D01*
G01X15641Y12214D01*
G37*

%LPD*%
G36*
G01X16442Y10369D02*
G01X16067Y10556D01*
G01X16067Y9931D01*
G01X16442Y10119D01*
G01X16442Y10369D01*
G37*

%LPD*%
G36*
G01X22118Y12517D02*
G01X21868Y12517D01*
G01X21680Y12142D01*
G01X22305Y12142D01*
G01X22118Y12517D01*
G37*

%LPD*%
G36*
G01X22919Y10369D02*
G01X22544Y10556D01*
G01X22544Y9931D01*
G01X22919Y10119D01*
G01X22919Y10369D01*
G37*

%LPD*%
G36*
G01X9164Y12341D02*
G01X8914Y12341D01*
G01X8726Y12269D01*
G01X9351Y12269D01*
G01X9164Y12341D01*
G37*

%LPD*%
G36*
G01X9965Y10496D02*
G01X9590Y10683D01*
G01X9590Y10058D01*
G01X9965Y10246D01*
G01X9965Y10496D01*
G37*

%LPD*%
G36*
G01X22880Y38282D02*
G01X22630Y38282D01*
G01X22442Y37907D01*
G01X23067Y37907D01*
G01X22880Y38282D01*
G37*

%LPD*%
G36*
G01X24719Y37841D02*
G01X24592Y38068D01*
G01X24253Y37907D01*
G01X24557Y37361D01*
G01X24719Y37841D01*
G37*

%LPD*%
G36*
G01X28426Y37487D02*
G01X28051Y37675D01*
G01X28051Y37050D01*
G01X28426Y37237D01*
G01X28426Y37487D01*
G37*

%LPD*%
G36*
G01X31557Y25703D02*
G01X31182Y25891D01*
G01X31182Y25266D01*
G01X31557Y25453D01*
G01X31557Y25703D01*
G37*

%LPD*%
G36*
G01X30756Y27853D02*
G01X30506Y27853D01*
G01X30318Y27478D01*
G01X30944Y27478D01*
G01X30756Y27853D01*
G37*

%LPD*%
G36*
G01X38691Y25078D02*
G01X38066Y25078D01*
G01X38254Y24703D01*
G01X38504Y24703D01*
G01X38691Y25078D01*
G37*

%LPD*%
G36*
G01X37829Y26666D02*
G01X37829Y27291D01*
G01X37454Y27104D01*
G01X37454Y26854D01*
G01X37829Y26666D01*
G37*

%LPD*%
G36*
G01X31541Y19426D02*
G01X31291Y19426D01*
G01X31103Y19051D01*
G01X31728Y19051D01*
G01X31541Y19426D01*
G37*

%LPD*%
G36*
G01X36248Y17488D02*
G01X36248Y18113D01*
G01X35873Y17926D01*
G01X35873Y17676D01*
G01X36248Y17488D01*
G37*

%LPD*%
G36*
G01X10393Y10058D02*
G01X10393Y10683D01*
G01X10018Y10496D01*
G01X10018Y10246D01*
G01X10393Y10058D01*
G37*

%LPD*%
G36*
G01X11869Y11896D02*
G01X11494Y12083D01*
G01X11494Y11458D01*
G01X11869Y11646D01*
G01X11869Y11896D01*
G37*

%LPD*%
G36*
G01X16997Y9931D02*
G01X16997Y10556D01*
G01X16622Y10369D01*
G01X16622Y10119D01*
G01X16997Y9931D01*
G37*

%LPD*%
G36*
G01X18473Y11769D02*
G01X18098Y11956D01*
G01X18098Y11331D01*
G01X18473Y11519D01*
G01X18473Y11769D01*
G37*

%LPD*%
G36*
G01X23601Y9931D02*
G01X23601Y10556D01*
G01X23226Y10369D01*
G01X23226Y10119D01*
G01X23601Y9931D01*
G37*

%LPD*%
G36*
G01X25077Y11769D02*
G01X24702Y11956D01*
G01X24702Y11331D01*
G01X25077Y11519D01*
G01X25077Y11769D01*
G37*

%LPD*%
G36*
G01X16984Y14155D02*
G01X16359Y14155D01*
G01X16546Y14004D01*
G01X16796Y14004D01*
G01X16984Y14155D01*
G37*

%LPD*%
G36*
G01X19524Y14155D02*
G01X18899Y14155D01*
G01X19086Y13780D01*
G01X19336Y13780D01*
G01X19524Y14155D01*
G37*

%LPD*%
G36*
G01X25167Y33522D02*
G01X24792Y33710D01*
G01X24792Y33085D01*
G01X25167Y33272D01*
G01X25167Y33522D01*
G37*

%LPD*%
G36*
G01X22064Y32647D02*
G01X21439Y32647D01*
G01X21626Y32521D01*
G01X21876Y32521D01*
G01X22064Y32647D01*
G37*

%LPD*%
G36*
G01X20794Y32647D02*
G01X20169Y32647D01*
G01X20356Y32272D01*
G01X20606Y32272D01*
G01X20794Y32647D01*
G37*

%LPD*%
G36*
G01X19524Y32647D02*
G01X18899Y32647D01*
G01X19086Y32272D01*
G01X19336Y32272D01*
G01X19524Y32647D01*
G37*

%LPD*%
G36*
G01X18254Y32647D02*
G01X17629Y32647D01*
G01X17816Y32272D01*
G01X18066Y32272D01*
G01X18254Y32647D01*
G37*

%LPD*%
G36*
G01X16984Y32647D02*
G01X16359Y32647D01*
G01X16546Y32394D01*
G01X16796Y32394D01*
G01X16984Y32647D01*
G37*

%LPD*%
G36*
G01X22252Y14155D02*
G01X21680Y14155D01*
G01X21868Y13780D01*
G01X22118Y13780D01*
G01X22252Y14155D01*
G37*

%LPD*%
G36*
G01X23146Y16011D02*
G01X22896Y16011D01*
G01X22709Y15656D01*
G01X23334Y15656D01*
G01X23146Y16011D01*
G37*

%LPD*%
G36*
G01X24416Y16011D02*
G01X24166Y16011D01*
G01X23979Y15656D01*
G01X24604Y15656D01*
G01X24416Y16011D01*
G37*

%LPD*%
G36*
G01X9176Y15909D02*
G01X8926Y15909D01*
G01X8739Y15656D01*
G01X9364Y15656D01*
G01X9176Y15909D01*
G37*

%LPD*%
G36*
G01X7906Y16031D02*
G01X7656Y16031D01*
G01X7469Y15656D01*
G01X8094Y15656D01*
G01X7906Y16031D01*
G37*

%LPD*%
G36*
G01X13174Y32647D02*
G01X12549Y32647D01*
G01X12736Y32272D01*
G01X12986Y32272D01*
G01X13174Y32647D01*
G37*

%LPD*%
G36*
G01X12092Y32647D02*
G01X11647Y32647D01*
G01X11835Y32272D01*
G01X12085Y32272D01*
G01X12092Y32647D01*
G37*

%LPD*%
G36*
G01X9364Y32647D02*
G01X8739Y32647D01*
G01X8926Y32272D01*
G01X9176Y32272D01*
G01X9364Y32647D01*
G37*

%LPD*%
G36*
G01X26416Y42946D02*
G01X26041Y43133D01*
G01X26041Y42508D01*
G01X26416Y42696D01*
G01X26416Y42946D01*
G37*

%LPD*%
G36*
G01X25353Y41080D02*
G01X24728Y41080D01*
G01X24916Y40705D01*
G01X25166Y40705D01*
G01X25353Y41080D01*
G37*

%LPD*%
G36*
G01X25353Y39522D02*
G01X24728Y39522D01*
G01X24916Y39147D01*
G01X25166Y39147D01*
G01X25353Y39522D01*
G37*

%LPD*%
G36*
G01X25166Y41612D02*
G01X24916Y41612D01*
G01X24728Y41237D01*
G01X25353Y41237D01*
G01X25166Y41612D01*
G37*

%LPD*%
G36*
G01X26854Y39523D02*
G01X26229Y39523D01*
G01X26417Y39148D01*
G01X26667Y39148D01*
G01X26854Y39523D01*
G37*

%LPD*%
G36*
G01X23195Y39618D02*
G01X23189Y40243D01*
G01X22814Y39732D01*
G01X22814Y39379D01*
G01X23195Y39618D01*
G37*

%LPD*%
G36*
G01X33439Y28030D02*
G01X33439Y28655D01*
G01X33064Y28468D01*
G01X33064Y28218D01*
G01X33439Y28030D01*
G37*

%LPD*%
G36*
G01X34751Y25044D02*
G01X34126Y25044D01*
G01X34314Y24669D01*
G01X34564Y24669D01*
G01X34751Y25044D01*
G37*

%LPD*%
G36*
G01X34751Y25044D02*
G01X34126Y25044D01*
G01X34314Y24669D01*
G01X34564Y24669D01*
G01X34751Y25044D01*
G37*

%LPD*%
G36*
G01X36665Y26351D02*
G01X36665Y26704D01*
G01X36284Y26465D01*
G01X36290Y25840D01*
G01X36665Y26351D01*
G37*

%LPD*%
G36*
G01X32587Y25236D02*
G01X32587Y25861D01*
G01X32212Y25674D01*
G01X32212Y25424D01*
G01X32587Y25236D01*
G37*
G54D23*
G01X5102Y39392D03*
G01X8101Y36392D03*
G01X2102Y36392D03*
G01X2102Y42391D03*
G01X8101Y42391D03*
G36*
G01X33057Y10706D02*
G01X33057Y12706D01*
G01X35057Y12706D01*
G01X35057Y10706D01*
G01X33057Y10706D01*
G37*
G54D12*
G01X34058Y14246D03*
G01X36598Y11706D03*
G01X36598Y14246D03*
G01X39138Y11706D03*
G01X39138Y14246D03*
G01X41678Y11706D03*
G01X41678Y14246D03*
G01X30558Y40916D03*
G01X33098Y40916D03*
G01X42638Y40916D03*
G01X45178Y40916D03*
G54D14*
G01X25803Y15516D03*
G01X12849Y30883D03*
G01X41551Y16151D03*
G01X43583Y17548D03*
G01X11325Y17421D03*
G01X11960Y31264D03*
G01X22374Y16659D03*
G01X22755Y38757D03*
G01X45615Y23771D03*
G01X31391Y20850D03*
G01X14342Y37106D03*
G01X38376Y24152D03*
G01X31645Y25549D03*
G01X37233Y26946D03*
G01X22501Y24152D03*
G01X25041Y38757D03*
G01X37233Y34185D03*
G01X34439Y23136D03*
G01X21485Y20342D03*
G01X19072Y11706D03*
G01X25549Y11579D03*
G01X12341Y11706D03*
M00*
M02*
