G04 Layer: TopSolderMaskLayer*
G04 EasyEDA v6.1.49, Sat, 25 May 2019 11:17:53 GMT*
G04 fc3d14014b1447b58ced6bada5ffd274,46bf6a40d4384fdb86bc8fc37bf60e4c,10*
G04 Gerber Generator version 0.2*
G04 Scale: 100 percent, Rotated: No, Reflected: No *
G04 Dimensions in millimeters *
G04 leading zeros omitted , absolute positions ,3 integer and 3 decimal *
%FSLAX33Y33*%
%MOMM*%
G90*
G71D02*

%ADD33C,2.203196*%
%ADD34C,0.903199*%
%ADD37C,2.503195*%
%ADD41R,1.203198X1.303198*%

%LPD*%
G54D33*
G01X25041Y42030D02*
G01X25041Y43530D01*
G54D34*
G01X25041Y39680D02*
G01X25041Y41080D01*
G01X26542Y39681D02*
G01X26542Y40881D01*
G01X23539Y39681D02*
G01X23539Y40881D01*
G54D33*
G01X34439Y27552D02*
G01X34439Y29052D01*
G54D34*
G01X34439Y25202D02*
G01X34439Y26602D01*
G01X35940Y25203D02*
G01X35940Y26403D01*
G01X32937Y25203D02*
G01X32937Y26403D01*
G36*
G01X9199Y39933D02*
G01X9199Y41137D01*
G01X10403Y41137D01*
G01X10403Y39933D01*
G01X9199Y39933D01*
G37*
G36*
G01X9148Y38409D02*
G01X9148Y39610D01*
G01X10453Y39610D01*
G01X10453Y38409D01*
G01X9148Y38409D01*
G37*
G54D37*
G01X5102Y39392D03*
G01X8101Y36392D03*
G01X2102Y36392D03*
G01X2102Y42391D03*
G01X8101Y42391D03*
G36*
G01X14014Y38533D02*
G01X14014Y40735D01*
G01X14670Y40735D01*
G01X14670Y38533D01*
G01X14014Y38533D01*
G37*
G36*
G01X14665Y39033D02*
G01X14665Y40235D01*
G01X15320Y40235D01*
G01X15320Y39033D01*
G01X14665Y39033D01*
G37*
G36*
G01X15315Y39033D02*
G01X15315Y40235D01*
G01X15970Y40235D01*
G01X15970Y39033D01*
G01X15315Y39033D01*
G37*
G36*
G01X15965Y39033D02*
G01X15965Y40235D01*
G01X16620Y40235D01*
G01X16620Y39033D01*
G01X15965Y39033D01*
G37*
G36*
G01X16615Y38533D02*
G01X16615Y40735D01*
G01X17271Y40735D01*
G01X17271Y38533D01*
G01X16615Y38533D01*
G37*
G36*
G01X10090Y41553D02*
G01X10090Y43857D01*
G01X12193Y43857D01*
G01X12193Y41553D01*
G01X10090Y41553D01*
G37*
G36*
G01X19092Y41553D02*
G01X19092Y43857D01*
G01X21195Y43857D01*
G01X21195Y41553D01*
G01X19092Y41553D01*
G37*
G36*
G01X14863Y11043D02*
G01X14863Y12244D01*
G01X16168Y12244D01*
G01X16168Y11043D01*
G01X14863Y11043D01*
G37*
G36*
G01X14863Y9643D02*
G01X14863Y10844D01*
G01X16168Y10844D01*
G01X16168Y9643D01*
G01X14863Y9643D01*
G37*
G36*
G01X21340Y11043D02*
G01X21340Y12244D01*
G01X22645Y12244D01*
G01X22645Y11043D01*
G01X21340Y11043D01*
G37*
G36*
G01X21340Y9643D02*
G01X21340Y10844D01*
G01X22645Y10844D01*
G01X22645Y9643D01*
G01X21340Y9643D01*
G37*
G36*
G01X8386Y11170D02*
G01X8386Y12371D01*
G01X9691Y12371D01*
G01X9691Y11170D01*
G01X8386Y11170D01*
G37*
G36*
G01X8386Y9770D02*
G01X8386Y10971D01*
G01X9691Y10971D01*
G01X9691Y9770D01*
G01X8386Y9770D01*
G37*
G54D41*
G01X22657Y37356D03*
G01X24058Y37356D03*
G36*
G01X26948Y36712D02*
G01X26948Y38015D01*
G01X28152Y38015D01*
G01X28152Y36712D01*
G01X26948Y36712D01*
G37*
G36*
G01X25549Y36712D02*
G01X25549Y38015D01*
G01X26752Y38015D01*
G01X26752Y36712D01*
G01X25549Y36712D01*
G37*
G36*
G01X29981Y24977D02*
G01X29981Y26181D01*
G01X31284Y26181D01*
G01X31284Y24977D01*
G01X29981Y24977D01*
G37*
G36*
G01X29981Y26377D02*
G01X29981Y27581D01*
G01X31284Y27581D01*
G01X31284Y26377D01*
G01X29981Y26377D01*
G37*
G36*
G01X37728Y24977D02*
G01X37728Y26181D01*
G01X39031Y26181D01*
G01X39031Y24977D01*
G01X37728Y24977D01*
G37*
G36*
G01X37728Y26377D02*
G01X37728Y27581D01*
G01X39031Y27581D01*
G01X39031Y26377D01*
G01X37728Y26377D01*
G37*
G36*
G01X30103Y16450D02*
G01X30103Y19153D01*
G01X32732Y19153D01*
G01X32732Y16450D01*
G01X30103Y16450D01*
G37*
G36*
G01X36148Y16450D02*
G01X36148Y19153D01*
G01X38777Y19153D01*
G01X38777Y16450D01*
G01X36148Y16450D01*
G37*
G36*
G01X10291Y9770D02*
G01X10291Y10971D01*
G01X11596Y10971D01*
G01X11596Y9770D01*
G01X10291Y9770D01*
G37*
G36*
G01X10291Y11170D02*
G01X10291Y12371D01*
G01X11596Y12371D01*
G01X11596Y11170D01*
G01X10291Y11170D01*
G37*
G36*
G01X16895Y9643D02*
G01X16895Y10844D01*
G01X18200Y10844D01*
G01X18200Y9643D01*
G01X16895Y9643D01*
G37*
G36*
G01X16895Y11043D02*
G01X16895Y12244D01*
G01X18200Y12244D01*
G01X18200Y11043D01*
G01X16895Y11043D01*
G37*
G36*
G01X23499Y9643D02*
G01X23499Y10844D01*
G01X24804Y10844D01*
G01X24804Y9643D01*
G01X23499Y9643D01*
G37*
G36*
G01X23499Y11043D02*
G01X23499Y12244D01*
G01X24804Y12244D01*
G01X24804Y11043D01*
G01X23499Y11043D01*
G37*
G36*
G01X10989Y14052D02*
G01X10989Y15757D01*
G01X12193Y15757D01*
G01X12193Y14052D01*
G01X10989Y14052D01*
G37*
G36*
G01X12259Y14052D02*
G01X12259Y15757D01*
G01X13463Y15757D01*
G01X13463Y14052D01*
G01X12259Y14052D01*
G37*
G36*
G01X13529Y14052D02*
G01X13529Y15757D01*
G01X14733Y15757D01*
G01X14733Y14052D01*
G01X13529Y14052D01*
G37*
G36*
G01X14799Y14052D02*
G01X14799Y15757D01*
G01X16003Y15757D01*
G01X16003Y14052D01*
G01X14799Y14052D01*
G37*
G36*
G01X16069Y14052D02*
G01X16069Y15757D01*
G01X17273Y15757D01*
G01X17273Y14052D01*
G01X16069Y14052D01*
G37*
G36*
G01X17339Y14052D02*
G01X17339Y15757D01*
G01X18543Y15757D01*
G01X18543Y14052D01*
G01X17339Y14052D01*
G37*
G36*
G01X18609Y14052D02*
G01X18609Y15757D01*
G01X19813Y15757D01*
G01X19813Y14052D01*
G01X18609Y14052D01*
G37*
G36*
G01X19879Y14052D02*
G01X19879Y15757D01*
G01X21083Y15757D01*
G01X21083Y14052D01*
G01X19879Y14052D01*
G37*
G36*
G01X23689Y32544D02*
G01X23689Y34248D01*
G01X24893Y34248D01*
G01X24893Y32544D01*
G01X23689Y32544D01*
G37*
G36*
G01X22419Y32544D02*
G01X22419Y34248D01*
G01X23623Y34248D01*
G01X23623Y32544D01*
G01X22419Y32544D01*
G37*
G36*
G01X21149Y32544D02*
G01X21149Y34248D01*
G01X22353Y34248D01*
G01X22353Y32544D01*
G01X21149Y32544D01*
G37*
G36*
G01X19879Y32544D02*
G01X19879Y34248D01*
G01X21083Y34248D01*
G01X21083Y32544D01*
G01X19879Y32544D01*
G37*
G36*
G01X18609Y32544D02*
G01X18609Y34248D01*
G01X19813Y34248D01*
G01X19813Y32544D01*
G01X18609Y32544D01*
G37*
G36*
G01X17339Y32544D02*
G01X17339Y34248D01*
G01X18543Y34248D01*
G01X18543Y32544D01*
G01X17339Y32544D01*
G37*
G36*
G01X16069Y32544D02*
G01X16069Y34248D01*
G01X17273Y34248D01*
G01X17273Y32544D01*
G01X16069Y32544D01*
G37*
G36*
G01X21149Y14052D02*
G01X21149Y15757D01*
G01X22353Y15757D01*
G01X22353Y14052D01*
G01X21149Y14052D01*
G37*
G36*
G01X22419Y14052D02*
G01X22419Y15757D01*
G01X23623Y15757D01*
G01X23623Y14052D01*
G01X22419Y14052D01*
G37*
G36*
G01X23689Y14052D02*
G01X23689Y15757D01*
G01X24893Y15757D01*
G01X24893Y14052D01*
G01X23689Y14052D01*
G37*
G36*
G01X9719Y14052D02*
G01X9719Y15757D01*
G01X10923Y15757D01*
G01X10923Y14052D01*
G01X9719Y14052D01*
G37*
G36*
G01X8449Y14052D02*
G01X8449Y15757D01*
G01X9653Y15757D01*
G01X9653Y14052D01*
G01X8449Y14052D01*
G37*
G36*
G01X7179Y14052D02*
G01X7179Y15757D01*
G01X8383Y15757D01*
G01X8383Y14052D01*
G01X7179Y14052D01*
G37*
G36*
G01X14799Y32544D02*
G01X14799Y34248D01*
G01X16003Y34248D01*
G01X16003Y32544D01*
G01X14799Y32544D01*
G37*
G36*
G01X13529Y32544D02*
G01X13529Y34248D01*
G01X14733Y34248D01*
G01X14733Y32544D01*
G01X13529Y32544D01*
G37*
G36*
G01X12259Y32544D02*
G01X12259Y34248D01*
G01X13463Y34248D01*
G01X13463Y32544D01*
G01X12259Y32544D01*
G37*
G36*
G01X10989Y32544D02*
G01X10989Y34248D01*
G01X12193Y34248D01*
G01X12193Y32544D01*
G01X10989Y32544D01*
G37*
G36*
G01X9719Y32544D02*
G01X9719Y34248D01*
G01X10923Y34248D01*
G01X10923Y32544D01*
G01X9719Y32544D01*
G37*
G36*
G01X8449Y32544D02*
G01X8449Y34248D01*
G01X9653Y34248D01*
G01X9653Y32544D01*
G01X8449Y32544D01*
G37*
G36*
G01X7179Y32544D02*
G01X7179Y34248D01*
G01X8383Y34248D01*
G01X8383Y32544D01*
G01X7179Y32544D01*
G37*
G36*
G01X32955Y10603D02*
G01X32955Y12808D01*
G01X35160Y12808D01*
G01X35160Y10603D01*
G01X32955Y10603D01*
G37*
G54D33*
G01X34058Y14246D03*
G01X36598Y11706D03*
G01X36598Y14246D03*
G01X39138Y11706D03*
G01X39138Y14246D03*
G01X41678Y11706D03*
G01X41678Y14246D03*
G01X30558Y40916D03*
G01X33098Y40916D03*
G01X42638Y40916D03*
G01X45178Y40916D03*
M00*
M02*
