;Layer: Drill PTH
;EasyEDA v6.1.49, Sat, 25 May 2019 11:17:53 GMT
;fc3d14014b1447b58ced6bada5ffd274,46bf6a40d4384fdb86bc8fc37bf60e4c,10
;Gerber Generator version 0.2
M48
METRIC,LZ,000.000
;Holesize 1 = 0.305 METRIC
T01C0.305
;Holesize 2 = 1.200 METRIC
T02C1.200
;Holesize 3 = 1.501 METRIC
T03C1.501
;Holesize 4 = 1.520 METRIC
T04C1.520
%
G05
G90
T01
X+025803Y+015516
X+012849Y+030883
X+041551Y+016151
X+043583Y+017548
X+011325Y+017421
X+011960Y+031264
X+022374Y+016659
X+022755Y+038757
X+045615Y+023771
X+031391Y+020850
X+014342Y+037106
X+038376Y+024152
X+031645Y+025549
X+037233Y+026946
X+022501Y+024152
X+025041Y+038757
X+037233Y+034185
X+034439Y+023136
X+021485Y+020342
X+019072Y+011706
X+025549Y+011579
X+012341Y+011706
T02
X+034058Y+011706
X+034058Y+014246
X+036598Y+011706
X+036598Y+014246
X+039138Y+011706
X+039138Y+014246
X+041678Y+011706
X+041678Y+014246
X+030558Y+040916
X+033098Y+040916
X+042638Y+040916
X+045178Y+040916
T03
X+005102Y+039392
X+002102Y+036392
X+002102Y+042391
X+008101Y+042391
T04
X+008101Y+036392
M30
