G04 Layer: BottomLayer*
G04 EasyEDA v6.1.49, Sat, 25 May 2019 11:17:53 GMT*
G04 fc3d14014b1447b58ced6bada5ffd274,46bf6a40d4384fdb86bc8fc37bf60e4c,10*
G04 Gerber Generator version 0.2*
G04 Scale: 100 percent, Rotated: No, Reflected: No *
G04 Dimensions in millimeters *
G04 leading zeros omitted , absolute positions ,3 integer and 3 decimal *
%FSLAX33Y33*%
%MOMM*%
G90*
G71D02*

%ADD11C,0.250012*%
%ADD12C,1.999996*%
%ADD13C,0.699999*%
%ADD14C,0.620014*%
%ADD23C,2.299995*%
%ADD25C,0.499999*%
%ADD26C,0.799998*%

%LPD*%
G54D11*
G01X22374Y16659D02*
G01X21612Y17421D01*
G01X21612Y17548D01*
G01X22501Y24152D02*
G01X28343Y24152D01*
G01X22501Y24152D02*
G01X22501Y35799D01*
G01X25041Y38339D01*
G01X25041Y38757D01*
G01X25803Y15516D02*
G01X25803Y15770D01*
G01X38249Y15770D01*
G01X39138Y14881D01*
G01X39138Y14246D01*
G01X36598Y11706D02*
G01X36598Y10055D01*
G01X37233Y9420D01*
G01X42567Y9420D01*
G01X43329Y10182D01*
G01X43329Y15008D01*
G01X42186Y16151D01*
G01X41551Y16151D01*
G01X12849Y30883D02*
G01X12849Y20342D01*
G01X13484Y19707D01*
G01X45488Y19707D01*
G01X45488Y19834D01*
G01X43583Y17548D02*
G01X43837Y17294D01*
G01X45488Y17294D01*
G01X11960Y31264D02*
G01X11960Y20088D01*
G01X13484Y18564D01*
G01X45488Y18564D01*
G01X45488Y22374D02*
G01X45615Y22501D01*
G01X45615Y23771D01*
G01X21485Y20342D02*
G01X21866Y20723D01*
G01X22628Y20723D01*
G01X28343Y23136D02*
G01X34439Y23136D01*
G01X37233Y29613D02*
G01X37233Y26946D01*
G01X37233Y30629D02*
G01X37233Y34185D01*
G01X45488Y17294D02*
G01X45488Y15135D01*
G54D25*
G01X44577Y8894D02*
G01X43284Y8894D01*
G01X43284Y8894D02*
G01X43950Y9560D01*
G01X44207Y13298D02*
G01X44207Y15008D01*
G01X43950Y15629D02*
G01X42807Y16772D01*
G01X42186Y17029D02*
G01X42150Y17029D01*
G01X39818Y15862D02*
G01X39094Y16167D01*
G01X39094Y16167D02*
G01X38870Y16391D01*
G01X38249Y16648D02*
G01X26045Y16648D01*
G01X26045Y16648D02*
G01X25803Y16648D01*
G01X26664Y14891D02*
G01X32427Y14891D01*
G01X35295Y10531D02*
G01X35719Y10057D01*
G01X35719Y10057D02*
G01X35719Y10055D01*
G01X35976Y9433D02*
G01X36515Y8894D01*
G01X36515Y8894D02*
G01X10570Y8894D01*
G01X10570Y8894D02*
G01X10650Y35469D01*
G01X10660Y38746D02*
G01X10678Y44616D01*
G01X10678Y44616D02*
G01X44570Y44616D01*
G01X46902Y42280D02*
G01X46902Y23484D01*
G01X44579Y23527D02*
G01X44388Y23527D01*
G01X44388Y21220D02*
G01X46588Y21220D01*
G01X46902Y21263D02*
G01X46902Y20944D01*
G01X46588Y20987D02*
G01X44388Y20987D01*
G01X43568Y20646D02*
G01X43491Y20585D01*
G01X43491Y20585D02*
G01X23873Y20585D01*
G01X22778Y21826D02*
G01X22478Y21826D01*
G01X21978Y21707D02*
G01X21752Y21594D01*
G01X21291Y21388D02*
G01X21290Y21387D01*
G01X20449Y20585D02*
G01X13848Y20585D01*
G01X13848Y20585D02*
G01X13727Y20706D01*
G01X13727Y20706D02*
G01X13727Y30283D01*
G01X11081Y30664D02*
G01X11081Y20088D01*
G01X11338Y19466D02*
G01X12862Y17942D01*
G01X13484Y17685D02*
G01X20366Y17685D01*
G01X21246Y16465D02*
G01X21343Y16394D01*
G01X22857Y17685D02*
G01X42528Y17685D01*
G01X43460Y16491D02*
G01X43492Y16485D01*
G01X43536Y16468D02*
G01X43712Y16358D01*
G01X44388Y16140D02*
G01X44609Y16140D01*
G01X44609Y16140D02*
G01X44609Y15963D01*
G01X45338Y14031D02*
G01X45638Y14031D01*
G01X46366Y15964D02*
G01X46366Y16140D01*
G01X46366Y16140D02*
G01X46588Y16140D01*
G01X46902Y16183D02*
G01X46902Y11219D01*
G01X28193Y22032D02*
G01X28493Y22032D01*
G01X28987Y22149D02*
G01X29203Y22257D01*
G01X29203Y22257D02*
G01X33839Y22257D01*
G01X33839Y24014D02*
G01X29588Y24014D01*
G01X28493Y25255D02*
G01X28193Y25255D01*
G01X27693Y25136D02*
G01X27482Y25030D01*
G01X27482Y25030D02*
G01X23379Y25030D01*
G01X23379Y25030D02*
G01X23379Y35435D01*
G01X23379Y35435D02*
G01X25662Y37718D01*
G01X25882Y38085D02*
G01X25915Y38151D01*
G01X23999Y38541D02*
G01X21879Y36421D01*
G01X21622Y35799D02*
G01X21622Y24751D01*
G01X23100Y23273D02*
G01X27097Y23273D01*
G01X38111Y27545D02*
G01X38111Y28784D01*
G01X38111Y31458D02*
G01X38111Y33585D01*
G01X36354Y33585D02*
G01X36354Y31457D01*
G01X36354Y28784D02*
G01X36354Y27545D01*
G01X10570Y9122D02*
G01X36287Y9122D01*
G01X43512Y9122D02*
G01X45580Y9122D01*
G01X10573Y10127D02*
G01X35656Y10127D01*
G01X45780Y10127D02*
G01X46629Y10127D01*
G01X10576Y11132D02*
G01X34940Y11132D01*
G01X46654Y11132D02*
G01X46900Y11132D01*
G01X10580Y12137D02*
G01X34898Y12137D01*
G01X46696Y12137D02*
G01X46902Y12137D01*
G01X10583Y13142D02*
G01X32694Y13142D01*
G01X46013Y13142D02*
G01X46902Y13142D01*
G01X10586Y14147D02*
G01X32306Y14147D01*
G01X44207Y14147D02*
G01X44844Y14147D01*
G01X46131Y14147D02*
G01X46902Y14147D01*
G01X10589Y15152D02*
G01X24803Y15152D01*
G01X44195Y15152D02*
G01X44234Y15152D01*
G01X46741Y15152D02*
G01X46902Y15152D01*
G01X10592Y16157D02*
G01X21435Y16157D01*
G01X23312Y16157D02*
G01X24954Y16157D01*
G01X39116Y16157D02*
G01X40487Y16157D01*
G01X43421Y16157D02*
G01X44186Y16157D01*
G01X46789Y16157D02*
G01X46902Y16157D01*
G01X10595Y17162D02*
G01X20427Y17162D01*
G01X23310Y17162D02*
G01X41222Y17162D01*
G01X41879Y17162D02*
G01X42591Y17162D01*
G01X10598Y18168D02*
G01X12637Y18168D01*
G01X10601Y19173D02*
G01X11632Y19173D01*
G01X10604Y20178D02*
G01X11081Y20178D01*
G01X10607Y21183D02*
G01X11081Y21183D01*
G01X13727Y21183D02*
G01X20833Y21183D01*
G01X23781Y21183D02*
G01X46902Y21183D01*
G01X10610Y22188D02*
G01X11081Y22188D01*
G01X13727Y22188D02*
G01X27627Y22188D01*
G01X29065Y22188D02*
G01X33955Y22188D01*
G01X34922Y22188D02*
G01X43249Y22188D01*
G01X10613Y23193D02*
G01X11081Y23193D01*
G01X13727Y23193D02*
G01X22039Y23193D01*
G01X22962Y23193D02*
G01X27090Y23193D01*
G01X35501Y23193D02*
G01X43575Y23193D01*
G01X10616Y24198D02*
G01X11081Y24198D01*
G01X13727Y24198D02*
G01X21438Y24198D01*
G01X29595Y24198D02*
G01X34385Y24198D01*
G01X34492Y24198D02*
G01X44640Y24198D01*
G01X46589Y24198D02*
G01X46902Y24198D01*
G01X10619Y25203D02*
G01X11081Y25203D01*
G01X13727Y25203D02*
G01X21622Y25203D01*
G01X23379Y25203D02*
G01X27857Y25203D01*
G01X28828Y25203D02*
G01X46902Y25203D01*
G01X10622Y26208D02*
G01X11081Y26208D01*
G01X13727Y26208D02*
G01X21622Y26208D01*
G01X23379Y26208D02*
G01X36466Y26208D01*
G01X37999Y26208D02*
G01X46902Y26208D01*
G01X10625Y27213D02*
G01X11081Y27213D01*
G01X13727Y27213D02*
G01X21622Y27213D01*
G01X23379Y27213D02*
G01X36203Y27213D01*
G01X38262Y27213D02*
G01X46902Y27213D01*
G01X10628Y28218D02*
G01X11081Y28218D01*
G01X13727Y28218D02*
G01X21622Y28218D01*
G01X23379Y28218D02*
G01X36354Y28218D01*
G01X38111Y28218D02*
G01X46902Y28218D01*
G01X10631Y29223D02*
G01X11081Y29223D01*
G01X13727Y29223D02*
G01X21622Y29223D01*
G01X23379Y29223D02*
G01X36050Y29223D01*
G01X38415Y29223D02*
G01X46902Y29223D01*
G01X10634Y30228D02*
G01X11081Y30228D01*
G01X13727Y30228D02*
G01X21622Y30228D01*
G01X23379Y30228D02*
G01X36054Y30228D01*
G01X38411Y30228D02*
G01X46902Y30228D01*
G01X10637Y31234D02*
G01X10896Y31234D01*
G01X13853Y31234D02*
G01X21622Y31234D01*
G01X23379Y31234D02*
G01X36159Y31234D01*
G01X38306Y31234D02*
G01X46902Y31234D01*
G01X10640Y32239D02*
G01X11534Y32239D01*
G01X12385Y32239D02*
G01X21622Y32239D01*
G01X23379Y32239D02*
G01X36354Y32239D01*
G01X38111Y32239D02*
G01X46902Y32239D01*
G01X10643Y33244D02*
G01X21622Y33244D01*
G01X23379Y33244D02*
G01X36354Y33244D01*
G01X38111Y33244D02*
G01X46902Y33244D01*
G01X10646Y34249D02*
G01X21622Y34249D01*
G01X23379Y34249D02*
G01X36171Y34249D01*
G01X38294Y34249D02*
G01X46902Y34249D01*
G01X10649Y35254D02*
G01X21622Y35254D01*
G01X23379Y35254D02*
G01X46902Y35254D01*
G01X12879Y36259D02*
G01X21751Y36259D01*
G01X24203Y36259D02*
G01X43425Y36259D01*
G01X46534Y36259D02*
G01X46902Y36259D01*
G01X13087Y37264D02*
G01X22722Y37264D01*
G01X25208Y37264D02*
G01X43217Y37264D01*
G01X46742Y37264D02*
G01X46902Y37264D01*
G01X12658Y38269D02*
G01X23727Y38269D01*
G01X25986Y38269D02*
G01X43646Y38269D01*
G01X46313Y38269D02*
G01X46902Y38269D01*
G01X10661Y39274D02*
G01X13325Y39274D01*
G01X13962Y39274D02*
G01X17323Y39274D01*
G01X17960Y39274D02*
G01X24111Y39274D01*
G01X25970Y39274D02*
G01X46902Y39274D01*
G01X10665Y40279D02*
G01X12565Y40279D01*
G01X14722Y40279D02*
G01X16563Y40279D01*
G01X18720Y40279D02*
G01X46902Y40279D01*
G01X10668Y41284D02*
G01X13192Y41284D01*
G01X14096Y41284D02*
G01X17189Y41284D01*
G01X18094Y41284D02*
G01X46902Y41284D01*
G01X10671Y42289D02*
G01X46902Y42289D01*
G01X10674Y43294D02*
G01X46674Y43294D01*
G01X10677Y44300D02*
G01X45748Y44300D01*
G01X46812Y10579D02*
G01X46812Y16162D01*
G01X46812Y20965D02*
G01X46812Y21242D01*
G01X46812Y23505D02*
G01X46812Y42931D01*
G01X45807Y9246D02*
G01X45807Y10141D01*
G01X45807Y13270D02*
G01X45807Y14044D01*
G01X45807Y20987D02*
G01X45807Y21220D01*
G01X45807Y24817D02*
G01X45807Y35541D01*
G01X45807Y38670D02*
G01X45807Y44264D01*
G01X44802Y8905D02*
G01X44802Y9945D01*
G01X44802Y13466D02*
G01X44802Y14169D01*
G01X44802Y20987D02*
G01X44802Y21220D01*
G01X44802Y24457D02*
G01X44802Y35345D01*
G01X44802Y38866D02*
G01X44802Y44605D01*
G01X43797Y8894D02*
G01X43797Y9407D01*
G01X43797Y15782D02*
G01X43797Y16302D01*
G01X43797Y20825D02*
G01X43797Y21382D01*
G01X43797Y23365D02*
G01X43797Y35789D01*
G01X43797Y38422D02*
G01X43797Y44616D01*
G01X42792Y16787D02*
G01X42792Y16836D01*
G01X42792Y20585D02*
G01X42792Y44616D01*
G01X41787Y17188D02*
G01X41787Y17685D01*
G01X41787Y20585D02*
G01X41787Y44616D01*
G01X40782Y16886D02*
G01X40782Y17685D01*
G01X40782Y20585D02*
G01X40782Y44616D01*
G01X39777Y15879D02*
G01X39777Y17685D01*
G01X39777Y20585D02*
G01X39777Y44616D01*
G01X38772Y16476D02*
G01X38772Y17685D01*
G01X38772Y20585D02*
G01X38772Y44616D01*
G01X37766Y16648D02*
G01X37766Y17685D01*
G01X37766Y20585D02*
G01X37766Y26025D01*
G01X37766Y35105D02*
G01X37766Y44616D01*
G01X36761Y16648D02*
G01X36761Y17685D01*
G01X36761Y20585D02*
G01X36761Y25992D01*
G01X36761Y35138D02*
G01X36761Y44616D01*
G01X35756Y8894D02*
G01X35756Y9800D01*
G01X35756Y16648D02*
G01X35756Y17685D01*
G01X35756Y20585D02*
G01X35756Y44616D01*
G01X34751Y8894D02*
G01X34751Y12635D01*
G01X34751Y16648D02*
G01X34751Y17685D01*
G01X34751Y20585D02*
G01X34751Y22119D01*
G01X34751Y24152D02*
G01X34751Y44616D01*
G01X33746Y8894D02*
G01X33746Y12520D01*
G01X33746Y16648D02*
G01X33746Y17685D01*
G01X33746Y20585D02*
G01X33746Y22257D01*
G01X33746Y24014D02*
G01X33746Y44616D01*
G01X32741Y8894D02*
G01X32741Y13087D01*
G01X32741Y16648D02*
G01X32741Y17685D01*
G01X32741Y20585D02*
G01X32741Y22257D01*
G01X32741Y24014D02*
G01X32741Y44616D01*
G01X31736Y8894D02*
G01X31736Y14891D01*
G01X31736Y16648D02*
G01X31736Y17685D01*
G01X31736Y20585D02*
G01X31736Y22257D01*
G01X31736Y24014D02*
G01X31736Y44616D01*
G01X30731Y8894D02*
G01X30731Y14891D01*
G01X30731Y16648D02*
G01X30731Y17685D01*
G01X30731Y20585D02*
G01X30731Y22257D01*
G01X30731Y24014D02*
G01X30731Y44616D01*
G01X29726Y8894D02*
G01X29726Y14891D01*
G01X29726Y16648D02*
G01X29726Y17685D01*
G01X29726Y20585D02*
G01X29726Y22257D01*
G01X29726Y24014D02*
G01X29726Y44616D01*
G01X28721Y8894D02*
G01X28721Y14891D01*
G01X28721Y16648D02*
G01X28721Y17685D01*
G01X28721Y20585D02*
G01X28721Y22056D01*
G01X28721Y25231D02*
G01X28721Y44616D01*
G01X27716Y8894D02*
G01X27716Y14891D01*
G01X27716Y16648D02*
G01X27716Y17685D01*
G01X27716Y20585D02*
G01X27716Y22140D01*
G01X27716Y25147D02*
G01X27716Y44616D01*
G01X26711Y8894D02*
G01X26711Y14891D01*
G01X26711Y16648D02*
G01X26711Y17685D01*
G01X26711Y20585D02*
G01X26711Y23273D01*
G01X26711Y25030D02*
G01X26711Y44616D01*
G01X25705Y8894D02*
G01X25705Y14456D01*
G01X25705Y16643D02*
G01X25705Y17685D01*
G01X25705Y20585D02*
G01X25705Y23273D01*
G01X25705Y25030D02*
G01X25705Y37765D01*
G01X25705Y39587D02*
G01X25705Y44616D01*
G01X24700Y8894D02*
G01X24700Y17685D01*
G01X24700Y20585D02*
G01X24700Y23273D01*
G01X24700Y25030D02*
G01X24700Y36756D01*
G01X24700Y39765D02*
G01X24700Y44616D01*
G01X23695Y8894D02*
G01X23695Y17685D01*
G01X23695Y21336D02*
G01X23695Y23273D01*
G01X23695Y25030D02*
G01X23695Y35751D01*
G01X23695Y38237D02*
G01X23695Y44616D01*
G01X22690Y8894D02*
G01X22690Y15643D01*
G01X22690Y21826D02*
G01X22690Y23105D01*
G01X22690Y37232D02*
G01X22690Y44616D01*
G01X21685Y8894D02*
G01X21685Y15847D01*
G01X21685Y21583D02*
G01X21685Y23468D01*
G01X21685Y36127D02*
G01X21685Y44616D01*
G01X20680Y8894D02*
G01X20680Y16768D01*
G01X20680Y21038D02*
G01X20680Y44616D01*
G01X19675Y8894D02*
G01X19675Y17685D01*
G01X19675Y20585D02*
G01X19675Y44616D01*
G01X18670Y8894D02*
G01X18670Y17685D01*
G01X18670Y20585D02*
G01X18670Y39978D01*
G01X18670Y40631D02*
G01X18670Y44616D01*
G01X17665Y8894D02*
G01X17665Y17685D01*
G01X17665Y20585D02*
G01X17665Y39226D01*
G01X17665Y41383D02*
G01X17665Y44616D01*
G01X16660Y8894D02*
G01X16660Y17685D01*
G01X16660Y20585D02*
G01X16660Y39858D01*
G01X16660Y40752D02*
G01X16660Y44616D01*
G01X15655Y8894D02*
G01X15655Y17685D01*
G01X15655Y20585D02*
G01X15655Y44616D01*
G01X14650Y8894D02*
G01X14650Y17685D01*
G01X14650Y20585D02*
G01X14650Y39915D01*
G01X14650Y40695D02*
G01X14650Y44616D01*
G01X13645Y8894D02*
G01X13645Y17685D01*
G01X13645Y31588D02*
G01X13645Y39226D01*
G01X13645Y41384D02*
G01X13645Y44616D01*
G01X12639Y8894D02*
G01X12639Y18165D01*
G01X12639Y32082D02*
G01X12639Y35921D01*
G01X12639Y38290D02*
G01X12639Y39911D01*
G01X12639Y40699D02*
G01X12639Y44616D01*
G01X11634Y8894D02*
G01X11634Y19170D01*
G01X11634Y32276D02*
G01X11634Y35363D01*
G01X11634Y38848D02*
G01X11634Y44616D01*
G01X10629Y8894D02*
G01X10629Y28624D01*
G54D13*
G01X21762Y18564D02*
G01X21462Y18564D01*
G01X22778Y19707D02*
G01X22478Y19707D01*
G01X22778Y20723D02*
G01X22478Y20723D01*
G01X21762Y17548D02*
G01X21462Y17548D01*
G01X28493Y24152D02*
G01X28193Y24152D01*
G01X28493Y23136D02*
G01X28193Y23136D01*
G01X37083Y30629D02*
G01X37383Y30629D01*
G01X37083Y29613D02*
G01X37383Y29613D01*
G01X45638Y14119D02*
G01X45338Y14119D01*
G01X45638Y15135D02*
G01X45338Y15135D01*
G54D26*
G01X44388Y22374D02*
G01X46588Y22374D01*
G01X44388Y21104D02*
G01X46588Y21104D01*
G01X44388Y19834D02*
G01X46588Y19834D01*
G01X44388Y18564D02*
G01X46588Y18564D01*
G01X44388Y17294D02*
G01X46588Y17294D01*
G54D25*
G75*
G01X46903Y11220D02*
G02X44582Y8895I-2326J0D01*
G01*
G75*
G01X44582Y8895D02*
G03X44577Y8895I-5J-767D01*
G01*
G75*
G01X43950Y9561D02*
G03X44205Y10115I-621J621D01*
G01*
G75*
G01X44205Y10115D02*
G03X44980Y9936I775J1591D01*
G01*
G75*
G01X44980Y9936D02*
G03X46750Y11706I0J1770D01*
G01*
G75*
G01X46750Y11706D02*
G03X44980Y13476I-1770J0D01*
G01*
G75*
G01X44980Y13476D02*
G03X44208Y13298I0J-1770D01*
G01*
G75*
G01X44208Y15008D02*
G03X43950Y15629I-879J0D01*
G01*
G75*
G01X42807Y16772D02*
G03X42186Y17030I-621J-621D01*
G01*
G75*
G01X42151Y17030D02*
G03X41551Y17215I-600J-879D01*
G01*
G75*
G01X41551Y17215D02*
G03X40487Y16151I0J-1064D01*
G01*
G75*
G01X40487Y16151D02*
G03X40617Y15642I1064J0D01*
G01*
G75*
G01X40617Y15642D02*
G03X40408Y15456I1061J-1396D01*
G01*
G75*
G01X40408Y15456D02*
G03X39820Y15862I-1270J-1210D01*
G01*
G75*
G01X39820Y15862D02*
G03X39821Y15862I294J694D01*
G01*
G75*
G01X38870Y16391D02*
G03X38249Y16649I-621J-621D01*
G01*
G75*
G01X25803Y16649D02*
G03X25143Y16350I0J-879D01*
G01*
G75*
G01X25143Y16350D02*
G03X24739Y15516I660J-834D01*
G01*
G75*
G01X24739Y15516D02*
G03X25803Y14452I1064J0D01*
G01*
G75*
G01X25803Y14452D02*
G03X26664Y14891I0J1064D01*
G01*
G75*
G01X32427Y14891D02*
G03X32304Y14246I1631J-645D01*
G01*
G75*
G01X32304Y14246D02*
G03X34058Y12492I1754J0D01*
G01*
G75*
G01X34058Y12492D02*
G03X35328Y13037I0J1754D01*
G01*
G75*
G01X35328Y13037D02*
G03X35389Y12976I1270J1209D01*
G01*
G75*
G01X35389Y12976D02*
G03X34844Y11706I1209J-1270D01*
G01*
G75*
G01X34844Y11706D02*
G03X35295Y10532I1754J0D01*
G01*
G75*
G01X35719Y10055D02*
G03X35977Y9434I879J0D01*
G01*
G75*
G01X10651Y35470D02*
G03X11325Y35336I674J1636D01*
G01*
G75*
G01X11325Y35336D02*
G03X13095Y37106I0J1770D01*
G01*
G75*
G01X13095Y37106D02*
G03X11325Y38876I-1770J0D01*
G01*
G75*
G01X11325Y38876D02*
G03X10660Y38746I0J-1770D01*
G01*
G75*
G01X44571Y44617D02*
G03X44577Y44616I6J766D01*
G01*
G75*
G01X44577Y44616D02*
G02X46902Y42291I0J-2325D01*
G01*
G75*
G01X46902Y42291D02*
G03X46903Y42280I767J0D01*
G01*
G75*
G01X46903Y23484D02*
G03X46650Y23526I-315J-1110D01*
G01*
G75*
G01X46650Y23526D02*
G03X46679Y23771I-1035J245D01*
G01*
G75*
G01X46679Y23771D02*
G03X45615Y24835I-1064J0D01*
G01*
G75*
G01X45615Y24835D02*
G03X44551Y23771I0J-1064D01*
G01*
G75*
G01X44551Y23771D02*
G03X44579Y23528I1064J0D01*
G01*
G75*
G01X44388Y23528D02*
G03X43234Y22374I0J-1154D01*
G01*
G75*
G01X43234Y22374D02*
G03X44388Y21220I1154J0D01*
G01*
G75*
G01X46588Y21220D02*
G03X46903Y21264I0J1154D01*
G01*
G75*
G01X46903Y20944D02*
G03X46588Y20988I-315J-1110D01*
G01*
G75*
G01X44388Y20988D02*
G03X43568Y20646I0J-1154D01*
G01*
G75*
G01X23873Y20586D02*
G03X23882Y20723I-1095J137D01*
G01*
G75*
G01X23882Y20723D02*
G03X22778Y21827I-1104J0D01*
G01*
G75*
G01X22478Y21827D02*
G03X21978Y21707I0J-1104D01*
G01*
G75*
G01X21753Y21595D02*
G03X21292Y21388I113J-872D01*
G01*
G75*
G01X21291Y21388D02*
G03X20450Y20586I194J-1046D01*
G01*
G75*
G01X13728Y30284D02*
G03X13913Y30883I-879J599D01*
G01*
G75*
G01X13913Y30883D02*
G03X12849Y31947I-1064J0D01*
G01*
G75*
G01X12849Y31947D02*
G03X12778Y31944I0J-1064D01*
G01*
G75*
G01X12778Y31944D02*
G03X11960Y32328I-818J-680D01*
G01*
G75*
G01X11960Y32328D02*
G03X10896Y31264I0J-1064D01*
G01*
G75*
G01X10896Y31264D02*
G03X11081Y30665I1064J0D01*
G01*
G75*
G01X11081Y20088D02*
G03X11339Y19467I879J0D01*
G01*
G75*
G01X12863Y17943D02*
G03X13484Y17685I621J621D01*
G01*
G75*
G01X20367Y17685D02*
G03X20358Y17548I1095J-137D01*
G01*
G75*
G01X20358Y17548D02*
G03X21247Y16465I1104J0D01*
G01*
G75*
G01X21344Y16394D02*
G03X22374Y15595I1030J265D01*
G01*
G75*
G01X22374Y15595D02*
G03X23438Y16659I0J1064D01*
G01*
G75*
G01X23438Y16659D02*
G03X22864Y17603I-1064J0D01*
G01*
G75*
G01X22864Y17603D02*
G03X22857Y17685I-1102J-55D01*
G01*
G75*
G01X42528Y17685D02*
G03X42519Y17548I1055J-137D01*
G01*
G75*
G01X42519Y17548D02*
G03X43461Y16491I1064J0D01*
G01*
G75*
G01X43492Y16486D02*
G03X43537Y16468I345J808D01*
G01*
G75*
G01X43712Y16359D02*
G03X44388Y16140I676J935D01*
G01*
G75*
G01X44609Y15964D02*
G03X44234Y15135I729J-829D01*
G01*
G75*
G01X44234Y15135D02*
G03X45338Y14031I1104J0D01*
G01*
G75*
G01X45638Y14031D02*
G03X46742Y15135I0J1104D01*
G01*
G75*
G01X46742Y15135D02*
G03X46367Y15964I-1104J0D01*
G01*
G75*
G01X46588Y16140D02*
G03X46903Y16184I0J1154D01*
G01*
G75*
G01X27089Y23136D02*
G03X28193Y22032I1104J0D01*
G01*
G75*
G01X28493Y22032D02*
G03X28980Y22146I0J1104D01*
G01*
G75*
G01X28980Y22146D02*
G03X28988Y22149I-329J678D01*
G01*
G75*
G01X33840Y22257D02*
G03X34439Y22072I599J879D01*
G01*
G75*
G01X34439Y22072D02*
G03X35503Y23136I0J1064D01*
G01*
G75*
G01X35503Y23136D02*
G03X34439Y24200I-1064J0D01*
G01*
G75*
G01X34439Y24200D02*
G03X33840Y24015I0J-1064D01*
G01*
G75*
G01X29588Y24015D02*
G03X29597Y24152I-1095J137D01*
G01*
G75*
G01X29597Y24152D02*
G03X28493Y25256I-1104J0D01*
G01*
G75*
G01X28193Y25256D02*
G03X27693Y25136I0J-1104D01*
G01*
G75*
G01X25662Y37719D02*
G03X25882Y38086I-621J621D01*
G01*
G75*
G01X25916Y38151D02*
G03X26105Y38757I-875J606D01*
G01*
G75*
G01X26105Y38757D02*
G03X25041Y39821I-1064J0D01*
G01*
G75*
G01X25041Y39821D02*
G03X23977Y38757I0J-1064D01*
G01*
G75*
G01X23977Y38757D02*
G03X23999Y38541I1064J0D01*
G01*
G75*
G01X21880Y36421D02*
G03X21622Y35800I621J-621D01*
G01*
G75*
G01X21622Y24752D02*
G03X21437Y24152I879J-600D01*
G01*
G75*
G01X21437Y24152D02*
G03X22501Y23088I1064J0D01*
G01*
G75*
G01X22501Y23088D02*
G03X23101Y23273I0J1064D01*
G01*
G75*
G01X27098Y23273D02*
G03X27089Y23136I1095J-137D01*
G01*
G75*
G01X36169Y26946D02*
G03X37233Y25882I1064J0D01*
G01*
G75*
G01X37233Y25882D02*
G03X38297Y26946I0J1064D01*
G01*
G75*
G01X38297Y26946D02*
G03X38112Y27546I-1064J0D01*
G01*
G75*
G01X38112Y28784D02*
G03X38487Y29613I-729J829D01*
G01*
G75*
G01X38487Y29613D02*
G03X38363Y30121I-1104J0D01*
G01*
G75*
G01X38363Y30121D02*
G03X38487Y30629I-980J508D01*
G01*
G75*
G01X38487Y30629D02*
G03X38112Y31458I-1104J0D01*
G01*
G75*
G01X38112Y33586D02*
G03X38297Y34185I-879J599D01*
G01*
G75*
G01X38297Y34185D02*
G03X37233Y35249I-1064J0D01*
G01*
G75*
G01X37233Y35249D02*
G03X36169Y34185I0J-1064D01*
G01*
G75*
G01X36169Y34185D02*
G03X36354Y33586I1064J0D01*
G01*
G75*
G01X36354Y31458D02*
G03X35979Y30629I729J-829D01*
G01*
G75*
G01X35979Y30629D02*
G03X36103Y30121I1104J0D01*
G01*
G75*
G01X36103Y30121D02*
G03X35979Y29613I980J-508D01*
G01*
G75*
G01X35979Y29613D02*
G03X36354Y28784I1104J0D01*
G01*
G75*
G01X36354Y27546D02*
G03X36169Y26946I879J-600D01*
G01*
G75*
G01X44980Y35336D02*
G03X46750Y37106I0J1770D01*
G01*
G75*
G01X46750Y37106D02*
G03X44980Y38876I-1770J0D01*
G01*
G75*
G01X44980Y38876D02*
G03X43210Y37106I0J-1770D01*
G01*
G75*
G01X43210Y37106D02*
G03X44980Y35336I1770J0D01*
G01*
G75*
G01X12565Y40305D02*
G03X13644Y39227I1079J0D01*
G01*
G75*
G01X13644Y39227D02*
G03X14723Y40305I0J1078D01*
G01*
G75*
G01X14723Y40305D02*
G03X13644Y41384I-1079J0D01*
G01*
G75*
G01X13644Y41384D02*
G03X12565Y40305I0J-1079D01*
G01*
G75*
G01X17642Y39227D02*
G03X18721Y40305I0J1078D01*
G01*
G75*
G01X18721Y40305D02*
G03X17642Y41384I-1079J0D01*
G01*
G75*
G01X17642Y41384D02*
G03X16563Y40305I0J-1079D01*
G01*
G75*
G01X16563Y40305D02*
G03X17642Y39227I1079J0D01*
G01*

%LPD*%
G36*
G01X37348Y11044D02*
G01X35848Y11044D01*
G01X36473Y10344D01*
G01X36723Y10344D01*
G01X37348Y11044D01*
G37*

%LPD*%
G36*
G01X39526Y15167D02*
G01X38665Y15529D01*
G01X38427Y15414D01*
G01X38175Y14516D01*
G01X39526Y15167D01*
G37*

%LPD*%
G36*
G01X26234Y15645D02*
G01X26045Y15895D01*
G01X25826Y15825D01*
G01X26106Y15453D01*
G01X26234Y15645D01*
G37*

%LPD*%
G36*
G01X13081Y30677D02*
G01X12616Y30677D01*
G01X12724Y30460D01*
G01X12974Y30460D01*
G01X13081Y30677D01*
G37*

%LPD*%
G36*
G01X41973Y16276D02*
G01X41756Y16383D01*
G01X41756Y15918D01*
G01X41973Y16026D01*
G01X41973Y16276D01*
G37*

%LPD*%
G36*
G01X43925Y17382D02*
G01X43892Y17567D01*
G01X43563Y17238D01*
G01X43748Y17205D01*
G01X43925Y17382D01*
G37*

%LPD*%
G36*
G01X12192Y31058D02*
G01X11727Y31058D01*
G01X11835Y30841D01*
G01X12085Y30841D01*
G01X12192Y31058D01*
G37*

%LPD*%
G36*
G01X22393Y16968D02*
G01X22163Y17045D01*
G01X21987Y16869D01*
G01X22064Y16639D01*
G01X22393Y16968D01*
G37*

%LPD*%
G36*
G01X45847Y23565D02*
G01X45382Y23565D01*
G01X45490Y23348D01*
G01X45740Y23348D01*
G01X45847Y23565D01*
G37*

%LPD*%
G36*
G01X37358Y27368D02*
G01X37108Y27368D01*
G01X37000Y27151D01*
G01X37465Y27151D01*
G01X37358Y27368D01*
G37*

%LPD*%
G36*
G01X22923Y24277D02*
G01X22706Y24384D01*
G01X22706Y23919D01*
G01X22923Y24027D01*
G01X22923Y24277D01*
G37*

%LPD*%
G36*
G01X22626Y24574D02*
G01X22376Y24574D01*
G01X22268Y24357D01*
G01X22733Y24357D01*
G01X22626Y24574D01*
G37*

%LPD*%
G36*
G01X25273Y38551D02*
G01X24808Y38551D01*
G01X24916Y38339D01*
G01X25166Y38339D01*
G01X25273Y38551D01*
G37*

%LPD*%
G36*
G01X37465Y33979D02*
G01X37000Y33979D01*
G01X37108Y33762D01*
G01X37358Y33762D01*
G01X37465Y33979D01*
G37*

%LPD*%
G36*
G01X34233Y22903D02*
G01X34233Y23368D01*
G01X34016Y23261D01*
G01X34016Y23011D01*
G01X34233Y22903D01*
G37*

%LPD*%
G36*
G01X21871Y20552D02*
G01X21695Y20728D01*
G01X21465Y20651D01*
G01X21794Y20322D01*
G01X21871Y20552D01*
G37*

%LPD*%
G36*
G01X21304Y18251D02*
G01X21304Y18876D01*
G01X20929Y18689D01*
G01X20929Y18439D01*
G01X21304Y18251D01*
G37*

%LPD*%
G36*
G01X22294Y18689D02*
G01X21919Y18876D01*
G01X21919Y18251D01*
G01X22294Y18439D01*
G01X22294Y18689D01*
G37*

%LPD*%
G36*
G01X22320Y19394D02*
G01X22320Y20019D01*
G01X21945Y19832D01*
G01X21945Y19582D01*
G01X22320Y19394D01*
G37*

%LPD*%
G36*
G01X23310Y19832D02*
G01X22935Y20019D01*
G01X22935Y19394D01*
G01X23310Y19582D01*
G01X23310Y19832D01*
G37*

%LPD*%
G36*
G01X22320Y20410D02*
G01X22320Y21035D01*
G01X21945Y20848D01*
G01X21945Y20598D01*
G01X22320Y20410D01*
G37*

%LPD*%
G36*
G01X22386Y16823D02*
G01X22096Y17445D01*
G01X21522Y17198D01*
G01X22033Y16823D01*
G01X22386Y16823D01*
G37*

%LPD*%
G36*
G01X28035Y23839D02*
G01X28035Y24464D01*
G01X27660Y24277D01*
G01X27660Y24027D01*
G01X28035Y23839D01*
G37*

%LPD*%
G36*
G01X29025Y23261D02*
G01X28650Y23448D01*
G01X28650Y22823D01*
G01X29025Y23011D01*
G01X29025Y23261D01*
G37*

%LPD*%
G36*
G01X37358Y31354D02*
G01X37108Y31354D01*
G01X37083Y30979D01*
G01X37383Y30979D01*
G01X37358Y31354D01*
G37*

%LPD*%
G36*
G01X37383Y29263D02*
G01X37083Y29263D01*
G01X37108Y28888D01*
G01X37358Y28888D01*
G01X37383Y29263D01*
G37*

%LPD*%
G36*
G01X45613Y15860D02*
G01X45363Y15860D01*
G01X45338Y15485D01*
G01X45638Y15485D01*
G01X45613Y15860D01*
G37*

%LPD*%
G36*
G01X45740Y23149D02*
G01X45490Y23149D01*
G01X45302Y22774D01*
G01X45927Y22774D01*
G01X45740Y23149D01*
G37*

%LPD*%
G36*
G01X44207Y19477D02*
G01X44080Y20089D01*
G01X43750Y19832D01*
G01X43802Y19582D01*
G01X44207Y19477D01*
G37*

%LPD*%
G36*
G01X44138Y18251D02*
G01X44138Y18876D01*
G01X43763Y18689D01*
G01X43763Y18439D01*
G01X44138Y18251D01*
G37*

%LPD*%
G36*
G01X44138Y16981D02*
G01X44138Y17606D01*
G01X43837Y17419D01*
G01X43837Y17169D01*
G01X44138Y16981D01*
G37*

%LPD*%
G36*
G01X45800Y16894D02*
G01X45175Y16894D01*
G01X45363Y16519D01*
G01X45613Y16519D01*
G01X45800Y16894D01*
G37*
G54D23*
G01X5102Y39392D03*
G01X8101Y36392D03*
G01X2102Y36392D03*
G01X2102Y42391D03*
G01X8101Y42391D03*
G36*
G01X33057Y10706D02*
G01X33057Y12706D01*
G01X35057Y12706D01*
G01X35057Y10706D01*
G01X33057Y10706D01*
G37*
G54D12*
G01X34058Y14246D03*
G01X36598Y11706D03*
G01X36598Y14246D03*
G01X39138Y11706D03*
G01X39138Y14246D03*
G01X41678Y11706D03*
G01X41678Y14246D03*
G01X30558Y40916D03*
G01X33098Y40916D03*
G01X42638Y40916D03*
G01X45178Y40916D03*
G54D14*
G01X25803Y15516D03*
G01X12849Y30883D03*
G01X41551Y16151D03*
G01X43583Y17548D03*
G01X11325Y17421D03*
G01X11960Y31264D03*
G01X22374Y16659D03*
G01X22755Y38757D03*
G01X45615Y23771D03*
G01X31391Y20850D03*
G01X14342Y37106D03*
G01X38376Y24152D03*
G01X31645Y25549D03*
G01X37233Y26946D03*
G01X22501Y24152D03*
G01X25041Y38757D03*
G01X37233Y34185D03*
G01X34439Y23136D03*
G01X21485Y20342D03*
G01X19072Y11706D03*
G01X25549Y11579D03*
G01X12341Y11706D03*
M00*
M02*
