G04 Layer: TopPasteMaskLayer*
G04 EasyEDA v6.1.49, Sat, 25 May 2019 11:17:53 GMT*
G04 fc3d14014b1447b58ced6bada5ffd274,46bf6a40d4384fdb86bc8fc37bf60e4c,10*
G04 Gerber Generator version 0.2*
G04 Scale: 100 percent, Rotated: No, Reflected: No *
G04 Dimensions in millimeters *
G04 leading zeros omitted , absolute positions ,3 integer and 3 decimal *
%FSLAX33Y33*%
%MOMM*%
G90*
G71D02*

%ADD12C,1.999996*%
%ADD13C,0.699999*%
%ADD20R,0.999998X1.099998*%

%LPD*%
G54D12*
G01X25041Y42030D02*
G01X25041Y43530D01*
G54D13*
G01X25041Y39680D02*
G01X25041Y41080D01*
G01X26542Y39681D02*
G01X26542Y40881D01*
G01X23539Y39681D02*
G01X23539Y40881D01*
G54D12*
G01X34439Y27552D02*
G01X34439Y29052D01*
G54D13*
G01X34439Y25202D02*
G01X34439Y26602D01*
G01X35940Y25203D02*
G01X35940Y26403D01*
G01X32937Y25203D02*
G01X32937Y26403D01*
G36*
G01X10301Y41035D02*
G01X10301Y40035D01*
G01X9301Y40035D01*
G01X9301Y41035D01*
G01X10301Y41035D01*
G37*
G36*
G01X10352Y39510D02*
G01X10352Y38511D01*
G01X9249Y38511D01*
G01X9249Y39510D01*
G01X10352Y39510D01*
G37*
G36*
G01X14116Y38635D02*
G01X14116Y40634D01*
G01X14568Y40634D01*
G01X14568Y38635D01*
G01X14116Y38635D01*
G37*
G36*
G01X14767Y39134D02*
G01X14767Y40134D01*
G01X15217Y40134D01*
G01X15217Y39134D01*
G01X14767Y39134D01*
G37*
G36*
G01X15418Y39134D02*
G01X15418Y40134D01*
G01X15868Y40134D01*
G01X15868Y39134D01*
G01X15418Y39134D01*
G37*
G36*
G01X16068Y39134D02*
G01X16068Y40134D01*
G01X16518Y40134D01*
G01X16518Y39134D01*
G01X16068Y39134D01*
G37*
G36*
G01X16717Y38635D02*
G01X16717Y40634D01*
G01X17169Y40634D01*
G01X17169Y38635D01*
G01X16717Y38635D01*
G37*
G36*
G01X12092Y43755D02*
G01X12092Y41655D01*
G01X10192Y41655D01*
G01X10192Y43755D01*
G01X12092Y43755D01*
G37*
G36*
G01X21093Y43755D02*
G01X21093Y41655D01*
G01X19193Y41655D01*
G01X19193Y43755D01*
G01X21093Y43755D01*
G37*
G36*
G01X16067Y12142D02*
G01X16067Y11144D01*
G01X14964Y11144D01*
G01X14964Y12142D01*
G01X16067Y12142D01*
G37*
G36*
G01X16067Y10743D02*
G01X16067Y9745D01*
G01X14964Y9745D01*
G01X14964Y10743D01*
G01X16067Y10743D01*
G37*
G36*
G01X22544Y12142D02*
G01X22544Y11144D01*
G01X21441Y11144D01*
G01X21441Y12142D01*
G01X22544Y12142D01*
G37*
G36*
G01X22544Y10743D02*
G01X22544Y9745D01*
G01X21441Y9745D01*
G01X21441Y10743D01*
G01X22544Y10743D01*
G37*
G36*
G01X9590Y12269D02*
G01X9590Y11271D01*
G01X8487Y11271D01*
G01X8487Y12269D01*
G01X9590Y12269D01*
G37*
G36*
G01X9590Y10870D02*
G01X9590Y9872D01*
G01X8487Y9872D01*
G01X8487Y10870D01*
G01X9590Y10870D01*
G37*
G54D20*
G01X22657Y37356D03*
G01X24058Y37356D03*
G36*
G01X28051Y36813D02*
G01X27051Y36813D01*
G01X27051Y37913D01*
G01X28051Y37913D01*
G01X28051Y36813D01*
G37*
G36*
G01X26651Y36813D02*
G01X25651Y36813D01*
G01X25651Y37913D01*
G01X26651Y37913D01*
G01X26651Y36813D01*
G37*
G36*
G01X30082Y25078D02*
G01X30082Y26078D01*
G01X31182Y26078D01*
G01X31182Y25078D01*
G01X30082Y25078D01*
G37*
G36*
G01X30082Y26478D02*
G01X30082Y27478D01*
G01X31182Y27478D01*
G01X31182Y26478D01*
G01X30082Y26478D01*
G37*
G36*
G01X37829Y25078D02*
G01X37829Y26078D01*
G01X38929Y26078D01*
G01X38929Y25078D01*
G01X37829Y25078D01*
G37*
G36*
G01X37829Y26478D02*
G01X37829Y27478D01*
G01X38929Y27478D01*
G01X38929Y26478D01*
G01X37829Y26478D01*
G37*
G36*
G01X32629Y16552D02*
G01X30203Y16552D01*
G01X30203Y19051D01*
G01X32629Y19051D01*
G01X32629Y16552D01*
G37*
G36*
G01X38674Y16552D02*
G01X36248Y16552D01*
G01X36248Y19051D01*
G01X38674Y19051D01*
G01X38674Y16552D01*
G37*
G36*
G01X10394Y9870D02*
G01X10394Y10870D01*
G01X11494Y10870D01*
G01X11494Y9870D01*
G01X10394Y9870D01*
G37*
G36*
G01X10394Y11270D02*
G01X10394Y12270D01*
G01X11494Y12270D01*
G01X11494Y11270D01*
G01X10394Y11270D01*
G37*
G36*
G01X16998Y9743D02*
G01X16998Y10743D01*
G01X18098Y10743D01*
G01X18098Y9743D01*
G01X16998Y9743D01*
G37*
G36*
G01X16998Y11143D02*
G01X16998Y12143D01*
G01X18098Y12143D01*
G01X18098Y11143D01*
G01X16998Y11143D01*
G37*
G36*
G01X23602Y9743D02*
G01X23602Y10743D01*
G01X24702Y10743D01*
G01X24702Y9743D01*
G01X23602Y9743D01*
G37*
G36*
G01X23602Y11143D02*
G01X23602Y12143D01*
G01X24702Y12143D01*
G01X24702Y11143D01*
G01X23602Y11143D01*
G37*
G36*
G01X11091Y14155D02*
G01X11091Y15656D01*
G01X12092Y15656D01*
G01X12092Y14155D01*
G01X11091Y14155D01*
G37*
G36*
G01X12361Y14155D02*
G01X12361Y15656D01*
G01X13362Y15656D01*
G01X13362Y14155D01*
G01X12361Y14155D01*
G37*
G36*
G01X13631Y14155D02*
G01X13631Y15656D01*
G01X14632Y15656D01*
G01X14632Y14155D01*
G01X13631Y14155D01*
G37*
G36*
G01X14901Y14155D02*
G01X14901Y15656D01*
G01X15902Y15656D01*
G01X15902Y14155D01*
G01X14901Y14155D01*
G37*
G36*
G01X16171Y14155D02*
G01X16171Y15656D01*
G01X17172Y15656D01*
G01X17172Y14155D01*
G01X16171Y14155D01*
G37*
G36*
G01X17441Y14155D02*
G01X17441Y15656D01*
G01X18442Y15656D01*
G01X18442Y14155D01*
G01X17441Y14155D01*
G37*
G36*
G01X18711Y14155D02*
G01X18711Y15656D01*
G01X19712Y15656D01*
G01X19712Y14155D01*
G01X18711Y14155D01*
G37*
G36*
G01X19981Y14155D02*
G01X19981Y15656D01*
G01X20982Y15656D01*
G01X20982Y14155D01*
G01X19981Y14155D01*
G37*
G36*
G01X23791Y32647D02*
G01X23791Y34148D01*
G01X24792Y34148D01*
G01X24792Y32647D01*
G01X23791Y32647D01*
G37*
G36*
G01X22521Y32647D02*
G01X22521Y34148D01*
G01X23522Y34148D01*
G01X23522Y32647D01*
G01X22521Y32647D01*
G37*
G36*
G01X21251Y32647D02*
G01X21251Y34148D01*
G01X22252Y34148D01*
G01X22252Y32647D01*
G01X21251Y32647D01*
G37*
G36*
G01X19981Y32647D02*
G01X19981Y34148D01*
G01X20982Y34148D01*
G01X20982Y32647D01*
G01X19981Y32647D01*
G37*
G36*
G01X18711Y32647D02*
G01X18711Y34148D01*
G01X19712Y34148D01*
G01X19712Y32647D01*
G01X18711Y32647D01*
G37*
G36*
G01X17441Y32647D02*
G01X17441Y34148D01*
G01X18442Y34148D01*
G01X18442Y32647D01*
G01X17441Y32647D01*
G37*
G36*
G01X16171Y32647D02*
G01X16171Y34148D01*
G01X17172Y34148D01*
G01X17172Y32647D01*
G01X16171Y32647D01*
G37*
G36*
G01X21251Y14155D02*
G01X21251Y15656D01*
G01X22252Y15656D01*
G01X22252Y14155D01*
G01X21251Y14155D01*
G37*
G36*
G01X22521Y14155D02*
G01X22521Y15656D01*
G01X23522Y15656D01*
G01X23522Y14155D01*
G01X22521Y14155D01*
G37*
G36*
G01X23791Y14155D02*
G01X23791Y15656D01*
G01X24792Y15656D01*
G01X24792Y14155D01*
G01X23791Y14155D01*
G37*
G36*
G01X9821Y14155D02*
G01X9821Y15656D01*
G01X10822Y15656D01*
G01X10822Y14155D01*
G01X9821Y14155D01*
G37*
G36*
G01X8551Y14155D02*
G01X8551Y15656D01*
G01X9552Y15656D01*
G01X9552Y14155D01*
G01X8551Y14155D01*
G37*
G36*
G01X7281Y14155D02*
G01X7281Y15656D01*
G01X8282Y15656D01*
G01X8282Y14155D01*
G01X7281Y14155D01*
G37*
G36*
G01X14901Y32647D02*
G01X14901Y34148D01*
G01X15902Y34148D01*
G01X15902Y32647D01*
G01X14901Y32647D01*
G37*
G36*
G01X13631Y32647D02*
G01X13631Y34148D01*
G01X14632Y34148D01*
G01X14632Y32647D01*
G01X13631Y32647D01*
G37*
G36*
G01X12361Y32647D02*
G01X12361Y34148D01*
G01X13362Y34148D01*
G01X13362Y32647D01*
G01X12361Y32647D01*
G37*
G36*
G01X11091Y32647D02*
G01X11091Y34148D01*
G01X12092Y34148D01*
G01X12092Y32647D01*
G01X11091Y32647D01*
G37*
G36*
G01X9821Y32647D02*
G01X9821Y34148D01*
G01X10822Y34148D01*
G01X10822Y32647D01*
G01X9821Y32647D01*
G37*
G36*
G01X8551Y32647D02*
G01X8551Y34148D01*
G01X9552Y34148D01*
G01X9552Y32647D01*
G01X8551Y32647D01*
G37*
G36*
G01X7281Y32647D02*
G01X7281Y34148D01*
G01X8282Y34148D01*
G01X8282Y32647D01*
G01X7281Y32647D01*
G37*
M00*
M02*
