G04 Layer: BottomSilkLayer*
G04 EasyEDA v6.1.49, Sat, 25 May 2019 11:17:53 GMT*
G04 fc3d14014b1447b58ced6bada5ffd274,46bf6a40d4384fdb86bc8fc37bf60e4c,10*
G04 Gerber Generator version 0.2*
G04 Scale: 100 percent, Rotated: No, Reflected: No *
G04 Dimensions in millimeters *
G04 leading zeros omitted , absolute positions ,3 integer and 3 decimal *
%FSLAX33Y33*%
%MOMM*%
G90*
G71D02*

%ADD10C,0.254000*%
%ADD31C,0.152400*%
%ADD32C,0.203200*%

%LPD*%
G54D10*
G01X8601Y35892D02*
G01X8601Y42892D01*
G01X8601Y35892D02*
G01X1601Y35892D01*
G01X1601Y35892D02*
G01X1601Y42892D01*
G01X8601Y42892D02*
G01X1601Y42892D01*
G01X8601Y39392D02*
G01X8601Y51092D01*
G01X1601Y35892D02*
G01X1601Y51092D01*
G01X8601Y51092D02*
G01X1601Y51092D01*
G54D31*
G01X42451Y22882D02*
G01X43542Y22466D01*
G01X42451Y22050D02*
G01X43542Y22466D01*
G01X42711Y20705D02*
G01X42607Y20757D01*
G01X42503Y20861D01*
G01X42451Y20965D01*
G01X42451Y21173D01*
G01X42503Y21277D01*
G01X42607Y21381D01*
G01X42711Y21433D01*
G01X42867Y21485D01*
G01X43126Y21485D01*
G01X43282Y21433D01*
G01X43386Y21381D01*
G01X43490Y21277D01*
G01X43542Y21173D01*
G01X43542Y20965D01*
G01X43490Y20861D01*
G01X43386Y20757D01*
G01X43282Y20705D01*
G01X43126Y20705D01*
G01X43126Y20965D02*
G01X43126Y20705D01*
G01X42440Y20088D02*
G01X43531Y20088D01*
G01X42440Y20088D02*
G01X42440Y19620D01*
G01X42492Y19464D01*
G01X42543Y19412D01*
G01X42647Y19360D01*
G01X42751Y19360D01*
G01X42855Y19412D01*
G01X42907Y19464D01*
G01X42959Y19620D01*
G01X42959Y20088D01*
G01X42959Y19724D02*
G01X43531Y19360D01*
G01X42567Y18581D02*
G01X43658Y18581D01*
G01X42567Y18945D02*
G01X42567Y18217D01*
G01X42440Y17236D02*
G01X42492Y17392D01*
G01X42647Y17496D01*
G01X42907Y17548D01*
G01X43063Y17548D01*
G01X43323Y17496D01*
G01X43479Y17392D01*
G01X43531Y17236D01*
G01X43531Y17132D01*
G01X43479Y16976D01*
G01X43323Y16872D01*
G01X43063Y16820D01*
G01X42907Y16820D01*
G01X42647Y16872D01*
G01X42492Y16976D01*
G01X42440Y17132D01*
G01X42440Y17236D01*
G01X11198Y32280D02*
G01X12289Y32280D01*
G01X11198Y32280D02*
G01X11198Y31604D01*
G01X11717Y32280D02*
G01X11717Y31864D01*
G01X12289Y32280D02*
G01X12289Y31604D01*
G01X11353Y30534D02*
G01X11249Y30638D01*
G01X11198Y30794D01*
G01X11198Y31001D01*
G01X11249Y31157D01*
G01X11353Y31261D01*
G01X11457Y31261D01*
G01X11561Y31209D01*
G01X11613Y31157D01*
G01X11665Y31053D01*
G01X11769Y30742D01*
G01X11821Y30638D01*
G01X11873Y30586D01*
G01X11977Y30534D01*
G01X12133Y30534D01*
G01X12237Y30638D01*
G01X12289Y30794D01*
G01X12289Y31001D01*
G01X12237Y31157D01*
G01X12133Y31261D01*
G01X11198Y30191D02*
G01X12289Y30191D01*
G01X11198Y30191D02*
G01X11198Y29723D01*
G01X11249Y29567D01*
G01X11301Y29516D01*
G01X11405Y29464D01*
G01X11561Y29464D01*
G01X11665Y29516D01*
G01X11717Y29567D01*
G01X11769Y29723D01*
G01X11769Y30191D01*
G01X11198Y29017D02*
G01X11198Y28445D01*
G01X11613Y28757D01*
G01X11613Y28601D01*
G01X11665Y28497D01*
G01X11717Y28445D01*
G01X11873Y28393D01*
G01X11977Y28393D01*
G01X12133Y28445D01*
G01X12237Y28549D01*
G01X12289Y28705D01*
G01X12289Y28861D01*
G01X12237Y29017D01*
G01X12185Y29069D01*
G01X12081Y29121D01*
G01X11457Y27998D02*
G01X11405Y27998D01*
G01X11301Y27947D01*
G01X11249Y27895D01*
G01X11198Y27791D01*
G01X11198Y27583D01*
G01X11249Y27479D01*
G01X11301Y27427D01*
G01X11405Y27375D01*
G01X11509Y27375D01*
G01X11613Y27427D01*
G01X11769Y27531D01*
G01X12289Y28050D01*
G01X12289Y27323D01*
G01X11457Y26201D02*
G01X11353Y26253D01*
G01X11249Y26357D01*
G01X11198Y26461D01*
G01X11198Y26668D01*
G01X11249Y26772D01*
G01X11353Y26876D01*
G01X11457Y26928D01*
G01X11613Y26980D01*
G01X11873Y26980D01*
G01X12029Y26928D01*
G01X12133Y26876D01*
G01X12237Y26772D01*
G01X12289Y26668D01*
G01X12289Y26461D01*
G01X12237Y26357D01*
G01X12133Y26253D01*
G01X12029Y26201D01*
G01X11873Y26201D01*
G01X11873Y26461D02*
G01X11873Y26201D01*
G01X11198Y25858D02*
G01X12289Y25598D01*
G01X11198Y25338D02*
G01X12289Y25598D01*
G01X11198Y25338D02*
G01X12289Y25079D01*
G01X11198Y24819D02*
G01X12289Y25079D01*
G01X11821Y24476D02*
G01X11821Y23541D01*
G01X11198Y23198D02*
G01X12289Y22782D01*
G01X11198Y22367D02*
G01X12289Y22782D01*
G01X11457Y21972D02*
G01X11405Y21972D01*
G01X11301Y21920D01*
G01X11249Y21868D01*
G01X11198Y21764D01*
G01X11198Y21556D01*
G01X11249Y21452D01*
G01X11301Y21400D01*
G01X11405Y21348D01*
G01X11509Y21348D01*
G01X11613Y21400D01*
G01X11769Y21504D01*
G01X12289Y22024D01*
G01X12289Y21296D01*
G01X12029Y20901D02*
G01X12081Y20953D01*
G01X12133Y20901D01*
G01X12081Y20850D01*
G01X12029Y20901D01*
G01X11405Y20507D02*
G01X11353Y20403D01*
G01X11198Y20247D01*
G01X12289Y20247D01*
G54D32*
G01X13580Y33804D02*
G01X14534Y33804D01*
G01X13852Y33804D02*
G01X13648Y33599D01*
G01X13580Y33463D01*
G01X13580Y33258D01*
G01X13648Y33122D01*
G01X13852Y33054D01*
G01X14534Y33054D01*
G01X13852Y33054D02*
G01X13648Y32849D01*
G01X13580Y32713D01*
G01X13580Y32508D01*
G01X13648Y32372D01*
G01X13852Y32304D01*
G01X14534Y32304D01*
G01X13580Y31785D02*
G01X14534Y31376D01*
G01X13580Y30967D02*
G01X14534Y31376D01*
G01X14807Y31513D01*
G01X14943Y31649D01*
G01X15012Y31785D01*
G01X15012Y31854D01*
G01X13784Y29767D02*
G01X13648Y29835D01*
G01X13580Y30040D01*
G01X13580Y30244D01*
G01X13648Y30449D01*
G01X13784Y30517D01*
G01X13921Y30449D01*
G01X13989Y30313D01*
G01X14057Y29972D01*
G01X14125Y29835D01*
G01X14262Y29767D01*
G01X14330Y29767D01*
G01X14466Y29835D01*
G01X14534Y30040D01*
G01X14534Y30244D01*
G01X14466Y30449D01*
G01X14330Y30517D01*
G01X13989Y29317D02*
G01X13989Y28499D01*
G01X13852Y28499D01*
G01X13716Y28567D01*
G01X13648Y28635D01*
G01X13580Y28772D01*
G01X13580Y28976D01*
G01X13648Y29113D01*
G01X13784Y29249D01*
G01X13989Y29317D01*
G01X14125Y29317D01*
G01X14330Y29249D01*
G01X14466Y29113D01*
G01X14534Y28976D01*
G01X14534Y28772D01*
G01X14466Y28635D01*
G01X14330Y28499D01*
G01X13580Y28049D02*
G01X14534Y28049D01*
G01X13852Y28049D02*
G01X13648Y27844D01*
G01X13580Y27708D01*
G01X13580Y27504D01*
G01X13648Y27367D01*
G01X13852Y27299D01*
G01X14534Y27299D01*
G01X13784Y26099D02*
G01X13648Y26167D01*
G01X13580Y26372D01*
G01X13580Y26576D01*
G01X13648Y26781D01*
G01X13784Y26849D01*
G01X13921Y26781D01*
G01X13989Y26644D01*
G01X14057Y26304D01*
G01X14125Y26167D01*
G01X14262Y26099D01*
G01X14330Y26099D01*
G01X14466Y26167D01*
G01X14534Y26372D01*
G01X14534Y26576D01*
G01X14466Y26781D01*
G01X14330Y26849D01*
G01X13580Y25308D02*
G01X13648Y25444D01*
G01X13784Y25581D01*
G01X13989Y25649D01*
G01X14125Y25649D01*
G01X14330Y25581D01*
G01X14466Y25444D01*
G01X14534Y25308D01*
G01X14534Y25104D01*
G01X14466Y24967D01*
G01X14330Y24831D01*
G01X14125Y24763D01*
G01X13989Y24763D01*
G01X13784Y24831D01*
G01X13648Y24967D01*
G01X13580Y25104D01*
G01X13580Y25308D01*
G01X13580Y24313D02*
G01X14534Y24313D01*
G01X13989Y24313D02*
G01X13784Y24244D01*
G01X13648Y24108D01*
G01X13580Y23972D01*
G01X13580Y23767D01*
G01X14193Y23249D02*
G01X14262Y23317D01*
G01X14330Y23249D01*
G01X14262Y23181D01*
G01X14193Y23249D01*
G01X13580Y22731D02*
G01X15012Y22731D01*
G01X13784Y22731D02*
G01X13648Y22594D01*
G01X13580Y22458D01*
G01X13580Y22254D01*
G01X13648Y22117D01*
G01X13784Y21981D01*
G01X13989Y21913D01*
G01X14125Y21913D01*
G01X14330Y21981D01*
G01X14466Y22117D01*
G01X14534Y22254D01*
G01X14534Y22458D01*
G01X14466Y22594D01*
G01X14330Y22731D01*
G01X13580Y21463D02*
G01X14262Y21463D01*
G01X14466Y21394D01*
G01X14534Y21258D01*
G01X14534Y21054D01*
G01X14466Y20917D01*
G01X14262Y20713D01*
G01X13580Y20713D02*
G01X14534Y20713D01*
G01X13102Y20263D02*
G01X14534Y20263D01*
G01X13784Y20263D02*
G01X13648Y20126D01*
G01X13580Y19990D01*
G01X13580Y19785D01*
G01X13648Y19649D01*
G01X13784Y19513D01*
G01X13989Y19444D01*
G01X14125Y19444D01*
G01X14330Y19513D01*
G01X14466Y19649D01*
G01X14534Y19785D01*
G01X14534Y19990D01*
G01X14466Y20126D01*
G01X14330Y20263D01*
G54D31*
G01X38122Y30386D02*
G01X38122Y30906D01*
G01X38589Y30958D01*
G01X38537Y30906D01*
G01X38485Y30750D01*
G01X38485Y30594D01*
G01X38537Y30438D01*
G01X38641Y30334D01*
G01X38797Y30282D01*
G01X38901Y30282D01*
G01X39057Y30334D01*
G01X39161Y30438D01*
G01X39213Y30594D01*
G01X39213Y30750D01*
G01X39161Y30906D01*
G01X39109Y30958D01*
G01X39005Y31010D01*
G01X38122Y29939D02*
G01X39213Y29524D01*
G01X38122Y29108D02*
G01X39213Y29524D01*
G01X29624Y24429D02*
G01X29624Y23857D01*
G01X30040Y24169D01*
G01X30040Y24013D01*
G01X30092Y23909D01*
G01X30144Y23857D01*
G01X30299Y23805D01*
G01X30403Y23805D01*
G01X30559Y23857D01*
G01X30663Y23961D01*
G01X30715Y24117D01*
G01X30715Y24273D01*
G01X30663Y24429D01*
G01X30611Y24481D01*
G01X30507Y24533D01*
G01X29624Y23462D02*
G01X30715Y23047D01*
G01X29624Y22631D02*
G01X30715Y23047D01*
G01X23517Y21993D02*
G01X24296Y21993D01*
G01X24452Y21941D01*
G01X24556Y21837D01*
G01X24608Y21681D01*
G01X24608Y21577D01*
G01X24556Y21421D01*
G01X24452Y21317D01*
G01X24296Y21265D01*
G01X23517Y21265D01*
G01X23517Y20922D02*
G01X24608Y20922D01*
G01X23517Y20922D02*
G01X23517Y20455D01*
G01X23568Y20299D01*
G01X23620Y20247D01*
G01X23724Y20195D01*
G01X23828Y20195D01*
G01X23932Y20247D01*
G01X23984Y20299D01*
G01X24036Y20455D01*
G01X24036Y20922D01*
G01X24036Y20559D02*
G01X24608Y20195D01*
G01X23517Y19852D02*
G01X24608Y19125D01*
G01X23517Y19125D02*
G01X24608Y19852D01*
G01X19453Y19580D02*
G01X20232Y19580D01*
G01X20388Y19528D01*
G01X20492Y19424D01*
G01X20544Y19268D01*
G01X20544Y19164D01*
G01X20492Y19008D01*
G01X20388Y18904D01*
G01X20232Y18852D01*
G01X19453Y18852D01*
G01X19453Y18146D02*
G01X20544Y18146D01*
G01X19453Y18509D02*
G01X19453Y17782D01*
G01X19453Y17439D02*
G01X20544Y16712D01*
G01X19453Y16712D02*
G01X20544Y17439D01*
G01X43467Y14754D02*
G01X44558Y14754D01*
G01X43467Y14754D02*
G01X43467Y14078D01*
G01X43987Y14754D02*
G01X43987Y14338D01*
G01X44864Y25566D02*
G01X45956Y25566D01*
G01X44864Y25930D02*
G01X44864Y25203D01*
G01X44864Y24494D02*
G01X45956Y24494D01*
G01X44864Y24860D02*
G01X44864Y24131D01*
G01X44864Y23788D02*
G01X45956Y23788D01*
G01X45956Y23788D02*
G01X45956Y23166D01*
G54D10*
G75*
G01X7642Y39392D02*
G03X7642Y39392I-2540J0D01*
G01*
M00*
M02*
