G04 Layer: BottomSolderMaskLayer*
G04 EasyEDA v6.1.49, Sat, 25 May 2019 11:17:53 GMT*
G04 fc3d14014b1447b58ced6bada5ffd274,46bf6a40d4384fdb86bc8fc37bf60e4c,10*
G04 Gerber Generator version 0.2*
G04 Scale: 100 percent, Rotated: No, Reflected: No *
G04 Dimensions in millimeters *
G04 leading zeros omitted , absolute positions ,3 integer and 3 decimal *
%FSLAX33Y33*%
%MOMM*%
G90*
G71D02*

%ADD33C,2.203196*%
%ADD34C,0.903199*%
%ADD37C,2.503195*%
%ADD45C,1.003198*%

%LPD*%

%LPD*%
G36*
G01X2557Y16923D02*
G01X2529Y16927D01*
G01X2471Y16922D01*
G01X2427Y16909D01*
G01X2397Y16890D01*
G01X2379Y16864D01*
G01X2374Y16833D01*
G01X2381Y16799D01*
G01X2399Y16762D01*
G01X2429Y16724D01*
G01X2470Y16686D01*
G01X2521Y16649D01*
G01X2582Y16615D01*
G01X2653Y16584D01*
G01X2704Y16563D01*
G01X2753Y16538D01*
G01X2800Y16509D01*
G01X2844Y16477D01*
G01X2886Y16443D01*
G01X2926Y16405D01*
G01X2963Y16365D01*
G01X2997Y16323D01*
G01X3028Y16279D01*
G01X3056Y16232D01*
G01X3081Y16184D01*
G01X3103Y16134D01*
G01X3121Y16083D01*
G01X3136Y16031D01*
G01X3148Y15978D01*
G01X3155Y15924D01*
G01X3159Y15870D01*
G01X3159Y15816D01*
G01X3155Y15761D01*
G01X3147Y15707D01*
G01X3136Y15647D01*
G01X3130Y15596D01*
G01X3130Y15554D01*
G01X3139Y15520D01*
G01X3156Y15493D01*
G01X3183Y15472D01*
G01X3223Y15457D01*
G01X3276Y15445D01*
G01X3344Y15438D01*
G01X3429Y15434D01*
G01X3531Y15432D01*
G01X3653Y15432D01*
G01X3773Y15431D01*
G01X3875Y15429D01*
G01X3960Y15425D01*
G01X4029Y15417D01*
G01X4085Y15405D01*
G01X4128Y15389D01*
G01X4160Y15366D01*
G01X4183Y15338D01*
G01X4198Y15302D01*
G01X4207Y15258D01*
G01X4211Y15206D01*
G01X4212Y15144D01*
G01X4209Y15069D01*
G01X4199Y15007D01*
G01X4183Y14956D01*
G01X4157Y14917D01*
G01X4122Y14888D01*
G01X4077Y14867D01*
G01X4021Y14855D01*
G01X3953Y14850D01*
G01X3695Y14842D01*
G01X3953Y14738D01*
G01X3998Y14717D01*
G01X4038Y14691D01*
G01X4074Y14661D01*
G01X4105Y14627D01*
G01X4132Y14589D01*
G01X4155Y14550D01*
G01X4173Y14508D01*
G01X4188Y14463D01*
G01X4198Y14419D01*
G01X4204Y14373D01*
G01X4206Y14327D01*
G01X4204Y14281D01*
G01X4198Y14236D01*
G01X4188Y14193D01*
G01X4174Y14151D01*
G01X4157Y14111D01*
G01X4135Y14074D01*
G01X4110Y14041D01*
G01X4081Y14011D01*
G01X4049Y13986D01*
G01X4013Y13965D01*
G01X3973Y13950D01*
G01X3930Y13941D01*
G01X3884Y13937D01*
G01X3838Y13941D01*
G01X3787Y13950D01*
G01X3732Y13965D01*
G01X3675Y13984D01*
G01X3615Y14009D01*
G01X3553Y14037D01*
G01X3491Y14069D01*
G01X3428Y14103D01*
G01X3367Y14140D01*
G01X3306Y14179D01*
G01X3248Y14220D01*
G01X3193Y14262D01*
G01X3142Y14303D01*
G01X3094Y14346D01*
G01X3053Y14387D01*
G01X3017Y14427D01*
G01X2987Y14466D01*
G01X2965Y14503D01*
G01X2952Y14537D01*
G01X2947Y14568D01*
G01X2938Y14635D01*
G01X2914Y14691D01*
G01X2877Y14728D01*
G01X2833Y14742D01*
G01X2791Y14764D01*
G01X2760Y14824D01*
G01X2743Y14912D01*
G01X2743Y15020D01*
G01X2751Y15098D01*
G01X2763Y15158D01*
G01X2779Y15200D01*
G01X2801Y15226D01*
G01X2831Y15236D01*
G01X2869Y15232D01*
G01X2918Y15215D01*
G01X2979Y15185D01*
G01X3033Y15153D01*
G01X3075Y15123D01*
G01X3103Y15093D01*
G01X3119Y15062D01*
G01X3123Y15030D01*
G01X3115Y14996D01*
G01X3095Y14958D01*
G01X3064Y14917D01*
G01X3012Y14840D01*
G01X2996Y14777D01*
G01X3018Y14724D01*
G01X3079Y14674D01*
G01X3138Y14650D01*
G01X3193Y14651D01*
G01X3238Y14675D01*
G01X3266Y14722D01*
G01X3299Y14775D01*
G01X3355Y14820D01*
G01X3425Y14852D01*
G01X3503Y14866D01*
G01X3585Y14873D01*
G01X3617Y14887D01*
G01X3600Y14908D01*
G01X3535Y14938D01*
G01X3498Y14955D01*
G01X3456Y14977D01*
G01X3409Y15004D01*
G01X3360Y15036D01*
G01X3310Y15070D01*
G01X3260Y15107D01*
G01X3211Y15144D01*
G01X3166Y15181D01*
G01X3136Y15205D01*
G01X3099Y15229D01*
G01X3058Y15252D01*
G01X3011Y15277D01*
G01X2960Y15301D01*
G01X2905Y15326D01*
G01X2845Y15350D01*
G01X2784Y15374D01*
G01X2718Y15398D01*
G01X2651Y15422D01*
G01X2582Y15444D01*
G01X2512Y15466D01*
G01X2441Y15487D01*
G01X2369Y15507D01*
G01X2298Y15526D01*
G01X2227Y15543D01*
G01X2158Y15560D01*
G01X2090Y15574D01*
G01X2023Y15588D01*
G01X1960Y15599D01*
G01X1899Y15608D01*
G01X1841Y15615D01*
G01X1787Y15620D01*
G01X1739Y15623D01*
G01X1694Y15623D01*
G01X1655Y15621D01*
G01X1621Y15616D01*
G01X1594Y15608D01*
G01X1526Y15594D01*
G01X1490Y15615D01*
G01X1485Y15676D01*
G01X1510Y15778D01*
G01X1527Y15841D01*
G01X1534Y15892D01*
G01X1530Y15933D01*
G01X1513Y15963D01*
G01X1483Y15984D01*
G01X1437Y15998D01*
G01X1375Y16005D01*
G01X1297Y16007D01*
G01X1236Y16008D01*
G01X1173Y16012D01*
G01X1110Y16017D01*
G01X1048Y16025D01*
G01X989Y16034D01*
G01X935Y16045D01*
G01X888Y16057D01*
G01X850Y16069D01*
G01X810Y16077D01*
G01X771Y16071D01*
G01X734Y16050D01*
G01X698Y16015D01*
G01X663Y15965D01*
G01X629Y15899D01*
G01X596Y15819D01*
G01X564Y15724D01*
G01X534Y15620D01*
G01X512Y15534D01*
G01X500Y15464D01*
G01X496Y15408D01*
G01X501Y15367D01*
G01X515Y15338D01*
G01X537Y15322D01*
G01X569Y15317D01*
G01X589Y15312D01*
G01X599Y15297D01*
G01X597Y15273D01*
G01X585Y15242D01*
G01X563Y15204D01*
G01X532Y15160D01*
G01X491Y15113D01*
G01X443Y15061D01*
G01X385Y15002D01*
G01X335Y14947D01*
G01X294Y14895D01*
G01X260Y14846D01*
G01X233Y14800D01*
G01X215Y14758D01*
G01X204Y14717D01*
G01X202Y14678D01*
G01X207Y14641D01*
G01X220Y14605D01*
G01X241Y14571D01*
G01X270Y14537D01*
G01X307Y14503D01*
G01X352Y14470D01*
G01X405Y14436D01*
G01X466Y14402D01*
G01X527Y14365D01*
G01X580Y14327D01*
G01X622Y14287D01*
G01X654Y14246D01*
G01X675Y14204D01*
G01X686Y14161D01*
G01X686Y14119D01*
G01X676Y14076D01*
G01X655Y14005D01*
G01X660Y13965D01*
G01X689Y13957D01*
G01X743Y13982D01*
G01X798Y14004D01*
G01X840Y13993D01*
G01X867Y13953D01*
G01X877Y13886D01*
G01X885Y13814D01*
G01X907Y13761D01*
G01X939Y13726D01*
G01X979Y13712D01*
G01X1022Y13717D01*
G01X1065Y13742D01*
G01X1106Y13788D01*
G01X1140Y13855D01*
G01X1150Y13904D01*
G01X1150Y13958D01*
G01X1138Y14016D01*
G01X1117Y14076D01*
G01X1089Y14136D01*
G01X1053Y14194D01*
G01X1012Y14248D01*
G01X967Y14296D01*
G01X920Y14337D01*
G01X870Y14369D01*
G01X820Y14390D01*
G01X771Y14397D01*
G01X724Y14406D01*
G01X695Y14430D01*
G01X688Y14467D01*
G01X705Y14512D01*
G01X716Y14556D01*
G01X696Y14593D01*
G01X648Y14618D01*
G01X576Y14627D01*
G01X520Y14629D01*
G01X480Y14636D01*
G01X458Y14650D01*
G01X455Y14673D01*
G01X470Y14707D01*
G01X503Y14754D01*
G01X556Y14815D01*
G01X628Y14894D01*
G01X677Y14950D01*
G01X720Y15004D01*
G01X755Y15057D01*
G01X783Y15106D01*
G01X802Y15150D01*
G01X812Y15188D01*
G01X812Y15218D01*
G01X802Y15239D01*
G01X787Y15269D01*
G01X803Y15294D01*
G01X847Y15311D01*
G01X916Y15317D01*
G01X963Y15312D01*
G01X1004Y15297D01*
G01X1037Y15271D01*
G01X1063Y15234D01*
G01X1083Y15184D01*
G01X1097Y15121D01*
G01X1105Y15044D01*
G01X1107Y14953D01*
G01X1109Y14882D01*
G01X1114Y14818D01*
G01X1122Y14764D01*
G01X1133Y14721D01*
G01X1145Y14690D01*
G01X1160Y14670D01*
G01X1176Y14666D01*
G01X1193Y14675D01*
G01X1211Y14699D01*
G01X1227Y14733D01*
G01X1242Y14776D01*
G01X1254Y14827D01*
G01X1265Y14883D01*
G01X1273Y14942D01*
G01X1278Y15005D01*
G01X1280Y15068D01*
G01X1281Y15131D01*
G01X1285Y15186D01*
G01X1294Y15232D01*
G01X1307Y15271D01*
G01X1327Y15303D01*
G01X1353Y15330D01*
G01X1389Y15351D01*
G01X1433Y15368D01*
G01X1487Y15382D01*
G01X1553Y15393D01*
G01X1631Y15402D01*
G01X1722Y15411D01*
G01X1795Y15415D01*
G01X1865Y15416D01*
G01X1931Y15414D01*
G01X1994Y15409D01*
G01X2053Y15401D01*
G01X2109Y15389D01*
G01X2163Y15374D01*
G01X2213Y15356D01*
G01X2260Y15334D01*
G01X2304Y15309D01*
G01X2345Y15281D01*
G01X2384Y15249D01*
G01X2426Y15209D01*
G01X2463Y15168D01*
G01X2495Y15127D01*
G01X2523Y15086D01*
G01X2546Y15046D01*
G01X2564Y15005D01*
G01X2578Y14966D01*
G01X2587Y14927D01*
G01X2593Y14888D01*
G01X2593Y14850D01*
G01X2590Y14813D01*
G01X2582Y14777D01*
G01X2571Y14742D01*
G01X2555Y14708D01*
G01X2537Y14675D01*
G01X2514Y14644D01*
G01X2487Y14615D01*
G01X2457Y14587D01*
G01X2424Y14560D01*
G01X2387Y14536D01*
G01X2347Y14514D01*
G01X2303Y14493D01*
G01X2257Y14475D01*
G01X2208Y14459D01*
G01X2156Y14446D01*
G01X2101Y14435D01*
G01X2043Y14426D01*
G01X1982Y14421D01*
G01X1919Y14418D01*
G01X1854Y14418D01*
G01X1786Y14422D01*
G01X1716Y14428D01*
G01X1620Y14438D01*
G01X1537Y14446D01*
G01X1468Y14450D01*
G01X1412Y14451D01*
G01X1368Y14449D01*
G01X1336Y14444D01*
G01X1314Y14434D01*
G01X1303Y14421D01*
G01X1302Y14404D01*
G01X1309Y14382D01*
G01X1325Y14356D01*
G01X1349Y14326D01*
G01X1397Y14258D01*
G01X1415Y14208D01*
G01X1403Y14177D01*
G01X1362Y14167D01*
G01X1317Y14154D01*
G01X1285Y14117D01*
G01X1267Y14063D01*
G01X1268Y13998D01*
G01X1280Y13928D01*
G01X1295Y13871D01*
G01X1312Y13826D01*
G01X1330Y13794D01*
G01X1350Y13775D01*
G01X1371Y13767D01*
G01X1393Y13773D01*
G01X1415Y13791D01*
G01X1437Y13821D01*
G01X1458Y13865D01*
G01X1478Y13920D01*
G01X1498Y13989D01*
G01X1521Y14064D01*
G01X1548Y14127D01*
G01X1581Y14177D01*
G01X1620Y14217D01*
G01X1667Y14247D01*
G01X1723Y14267D01*
G01X1788Y14278D01*
G01X1865Y14282D01*
G01X1928Y14284D01*
G01X1996Y14291D01*
G01X2066Y14302D01*
G01X2136Y14317D01*
G01X2204Y14334D01*
G01X2269Y14354D01*
G01X2327Y14376D01*
G01X2377Y14399D01*
G01X2424Y14420D01*
G01X2476Y14433D01*
G01X2530Y14440D01*
G01X2586Y14440D01*
G01X2643Y14434D01*
G01X2700Y14423D01*
G01X2756Y14406D01*
G01X2810Y14385D01*
G01X2861Y14360D01*
G01X2909Y14330D01*
G01X2952Y14298D01*
G01X2989Y14262D01*
G01X3020Y14224D01*
G01X3043Y14183D01*
G01X3057Y14141D01*
G01X3062Y14097D01*
G01X3059Y14057D01*
G01X3049Y14013D01*
G01X3032Y13968D01*
G01X3010Y13921D01*
G01X2983Y13873D01*
G01X2951Y13824D01*
G01X2916Y13775D01*
G01X2876Y13726D01*
G01X2834Y13679D01*
G01X2789Y13632D01*
G01X2742Y13588D01*
G01X2694Y13546D01*
G01X2644Y13507D01*
G01X2595Y13472D01*
G01X2545Y13440D01*
G01X2496Y13413D01*
G01X2449Y13392D01*
G01X2403Y13375D01*
G01X2359Y13365D01*
G01X2319Y13362D01*
G01X2264Y13359D01*
G01X2210Y13350D01*
G01X2160Y13336D01*
G01X2113Y13317D01*
G01X2071Y13294D01*
G01X2037Y13268D01*
G01X2010Y13239D01*
G01X1993Y13209D01*
G01X1980Y13171D01*
G01X1974Y13139D01*
G01X1972Y13111D01*
G01X1976Y13089D01*
G01X1985Y13072D01*
G01X1999Y13059D01*
G01X2017Y13051D01*
G01X2040Y13048D01*
G01X2067Y13049D01*
G01X2097Y13054D01*
G01X2131Y13064D01*
G01X2168Y13078D01*
G01X2208Y13096D01*
G01X2252Y13118D01*
G01X2297Y13145D01*
G01X2345Y13174D01*
G01X2395Y13208D01*
G01X2447Y13245D01*
G01X2501Y13285D01*
G01X2555Y13330D01*
G01X2611Y13377D01*
G01X2668Y13427D01*
G01X2726Y13481D01*
G01X2784Y13537D01*
G01X2940Y13693D01*
G01X3007Y13755D01*
G01X3065Y13809D01*
G01X3117Y13852D01*
G01X3165Y13888D01*
G01X3209Y13915D01*
G01X3251Y13934D01*
G01X3292Y13946D01*
G01X3332Y13951D01*
G01X3373Y13950D01*
G01X3417Y13943D01*
G01X3464Y13930D01*
G01X3516Y13912D01*
G01X3573Y13890D01*
G01X3637Y13863D01*
G01X3716Y13832D01*
G01X3796Y13803D01*
G01X3877Y13778D01*
G01X3955Y13755D01*
G01X4028Y13738D01*
G01X4094Y13725D01*
G01X4151Y13717D01*
G01X4197Y13716D01*
G01X4265Y13724D01*
G01X4296Y13738D01*
G01X4289Y13758D01*
G01X4242Y13782D01*
G01X4207Y13802D01*
G01X4184Y13827D01*
G01X4171Y13860D01*
G01X4170Y13903D01*
G01X4180Y13955D01*
G01X4202Y14020D01*
G01X4236Y14098D01*
G01X4282Y14191D01*
G01X4307Y14243D01*
G01X4329Y14299D01*
G01X4350Y14359D01*
G01X4368Y14422D01*
G01X4384Y14487D01*
G01X4398Y14554D01*
G01X4409Y14621D01*
G01X4417Y14687D01*
G01X4422Y14753D01*
G01X4424Y14816D01*
G01X4423Y14876D01*
G01X4418Y14933D01*
G01X4409Y15031D01*
G01X4405Y15112D01*
G01X4408Y15176D01*
G01X4417Y15223D01*
G01X4432Y15255D01*
G01X4455Y15273D01*
G01X4485Y15276D01*
G01X4522Y15267D01*
G01X4580Y15252D01*
G01X4628Y15256D01*
G01X4661Y15277D01*
G01X4672Y15313D01*
G01X4667Y15340D01*
G01X4653Y15366D01*
G01X4629Y15391D01*
G01X4597Y15415D01*
G01X4557Y15438D01*
G01X4509Y15460D01*
G01X4454Y15481D01*
G01X4393Y15500D01*
G01X4326Y15517D01*
G01X4253Y15532D01*
G01X4175Y15546D01*
G01X4092Y15557D01*
G01X4006Y15566D01*
G01X3916Y15573D01*
G01X3823Y15577D01*
G01X3727Y15578D01*
G01X3643Y15579D01*
G01X3569Y15582D01*
G01X3506Y15588D01*
G01X3453Y15596D01*
G01X3409Y15607D01*
G01X3374Y15623D01*
G01X3346Y15642D01*
G01X3325Y15666D01*
G01X3309Y15695D01*
G01X3299Y15729D01*
G01X3294Y15769D01*
G01X3292Y15815D01*
G01X3289Y15855D01*
G01X3281Y15901D01*
G01X3268Y15949D01*
G01X3250Y16002D01*
G01X3228Y16058D01*
G01X3202Y16116D01*
G01X3173Y16176D01*
G01X3140Y16237D01*
G01X3106Y16299D01*
G01X3068Y16362D01*
G01X3029Y16423D01*
G01X2988Y16484D01*
G01X2947Y16543D01*
G01X2904Y16600D01*
G01X2862Y16654D01*
G01X2819Y16706D01*
G01X2777Y16753D01*
G01X2736Y16796D01*
G01X2696Y16833D01*
G01X2658Y16865D01*
G01X2621Y16892D01*
G01X2587Y16911D01*
G01X2557Y16923D01*
G37*

%LPC*%
G36*
G01X1197Y15766D02*
G01X1094Y15777D01*
G01X1040Y15772D01*
G01X994Y15759D01*
G01X958Y15739D01*
G01X932Y15713D01*
G01X915Y15682D01*
G01X907Y15649D01*
G01X910Y15614D01*
G01X922Y15579D01*
G01X944Y15544D01*
G01X977Y15513D01*
G01X1019Y15486D01*
G01X1072Y15463D01*
G01X1124Y15461D01*
G01X1178Y15486D01*
G01X1226Y15534D01*
G01X1262Y15599D01*
G01X1279Y15680D01*
G01X1258Y15735D01*
G01X1197Y15766D01*
G37*

%LPD*%
G36*
G01X6904Y14937D02*
G01X6861Y14950D01*
G01X6820Y14946D01*
G01X6778Y14927D01*
G01X6733Y14894D01*
G01X6681Y14845D01*
G01X6636Y14795D01*
G01X6602Y14746D01*
G01X6581Y14695D01*
G01X6572Y14639D01*
G01X6574Y14576D01*
G01X6588Y14503D01*
G01X6614Y14415D01*
G01X6651Y14312D01*
G01X6676Y14243D01*
G01X6695Y14179D01*
G01X6710Y14121D01*
G01X6720Y14067D01*
G01X6725Y14019D01*
G01X6727Y13977D01*
G01X6724Y13940D01*
G01X6717Y13909D01*
G01X6706Y13884D01*
G01X6692Y13866D01*
G01X6674Y13853D01*
G01X6653Y13847D01*
G01X6629Y13848D01*
G01X6602Y13856D01*
G01X6572Y13870D01*
G01X6539Y13892D01*
G01X6504Y13920D01*
G01X6466Y13956D01*
G01X6426Y14001D01*
G01X6384Y14052D01*
G01X6311Y14144D01*
G01X6243Y14229D01*
G01X6178Y14308D01*
G01X6117Y14380D01*
G01X6059Y14446D01*
G01X6003Y14507D01*
G01X5950Y14561D01*
G01X5899Y14610D01*
G01X5850Y14654D01*
G01X5803Y14693D01*
G01X5757Y14727D01*
G01X5713Y14757D01*
G01X5668Y14782D01*
G01X5625Y14803D01*
G01X5582Y14821D01*
G01X5538Y14834D01*
G01X5495Y14844D01*
G01X5450Y14852D01*
G01X5405Y14856D01*
G01X5359Y14857D01*
G01X5289Y14853D01*
G01X5218Y14842D01*
G01X5146Y14826D01*
G01X5076Y14804D01*
G01X5010Y14777D01*
G01X4949Y14746D01*
G01X4896Y14712D01*
G01X4853Y14676D01*
G01X4820Y14640D01*
G01X4791Y14599D01*
G01X4765Y14553D01*
G01X4742Y14505D01*
G01X4724Y14453D01*
G01X4708Y14397D01*
G01X4696Y14340D01*
G01X4687Y14279D01*
G01X4681Y14217D01*
G01X4679Y14152D01*
G01X4681Y14086D01*
G01X4685Y14018D01*
G01X4694Y13950D01*
G01X4706Y13881D01*
G01X4721Y13812D01*
G01X4739Y13743D01*
G01X4761Y13674D01*
G01X4787Y13605D01*
G01X4816Y13537D01*
G01X4848Y13471D01*
G01X4884Y13405D01*
G01X4921Y13345D01*
G01X4959Y13294D01*
G01X4997Y13250D01*
G01X5035Y13213D01*
G01X5075Y13184D01*
G01X5114Y13162D01*
G01X5153Y13148D01*
G01X5193Y13142D01*
G01X5234Y13143D01*
G01X5274Y13151D01*
G01X5315Y13168D01*
G01X5356Y13191D01*
G01X5397Y13222D01*
G01X5438Y13262D01*
G01X5480Y13308D01*
G01X5517Y13357D01*
G01X5543Y13406D01*
G01X5560Y13455D01*
G01X5567Y13507D01*
G01X5564Y13562D01*
G01X5552Y13623D01*
G01X5529Y13691D01*
G01X5497Y13768D01*
G01X5470Y13830D01*
G01X5449Y13884D01*
G01X5434Y13930D01*
G01X5425Y13968D01*
G01X5422Y13999D01*
G01X5424Y14021D01*
G01X5431Y14036D01*
G01X5442Y14044D01*
G01X5458Y14045D01*
G01X5478Y14038D01*
G01X5503Y14024D01*
G01X5531Y14003D01*
G01X5562Y13976D01*
G01X5597Y13942D01*
G01X5635Y13901D01*
G01X5676Y13853D01*
G01X5719Y13799D01*
G01X5764Y13740D01*
G01X5811Y13673D01*
G01X5860Y13601D01*
G01X5903Y13539D01*
G01X5947Y13479D01*
G01X5994Y13420D01*
G01X6042Y13364D01*
G01X6091Y13310D01*
G01X6139Y13261D01*
G01X6187Y13216D01*
G01X6233Y13175D01*
G01X6278Y13141D01*
G01X6319Y13112D01*
G01X6357Y13090D01*
G01X6391Y13076D01*
G01X6437Y13066D01*
G01X6486Y13061D01*
G01X6539Y13063D01*
G01X6595Y13070D01*
G01X6653Y13082D01*
G01X6714Y13098D01*
G01X6775Y13119D01*
G01X6837Y13144D01*
G01X6899Y13173D01*
G01X6960Y13205D01*
G01X7019Y13239D01*
G01X7077Y13277D01*
G01X7131Y13316D01*
G01X7183Y13358D01*
G01X7230Y13401D01*
G01X7273Y13445D01*
G01X7311Y13490D01*
G01X7342Y13536D01*
G01X7368Y13582D01*
G01X7386Y13627D01*
G01X7400Y13680D01*
G01X7410Y13735D01*
G01X7416Y13795D01*
G01X7420Y13857D01*
G01X7419Y13921D01*
G01X7415Y13987D01*
G01X7408Y14053D01*
G01X7398Y14121D01*
G01X7385Y14189D01*
G01X7369Y14256D01*
G01X7350Y14323D01*
G01X7329Y14388D01*
G01X7305Y14452D01*
G01X7279Y14513D01*
G01X7251Y14571D01*
G01X7221Y14627D01*
G01X7188Y14678D01*
G01X7154Y14725D01*
G01X7119Y14767D01*
G01X7081Y14805D01*
G01X7012Y14865D01*
G01X6954Y14909D01*
G01X6904Y14937D01*
G37*

%LPC*%
G36*
G01X6254Y13774D02*
G01X6205Y13776D01*
G01X6157Y13758D01*
G01X6121Y13724D01*
G01X6100Y13679D01*
G01X6098Y13630D01*
G01X6116Y13582D01*
G01X6151Y13545D01*
G01X6195Y13525D01*
G01X6245Y13523D01*
G01X6292Y13540D01*
G01X6329Y13575D01*
G01X6349Y13620D01*
G01X6351Y13669D01*
G01X6333Y13717D01*
G01X6299Y13754D01*
G01X6254Y13774D01*
G37*
G36*
G01X7136Y13747D02*
G01X7105Y13763D01*
G01X7068Y13753D01*
G01X7031Y13726D01*
G01X7000Y13698D01*
G01X6980Y13671D01*
G01X6972Y13649D01*
G01X6980Y13628D01*
G01X7000Y13601D01*
G01X7031Y13573D01*
G01X7068Y13546D01*
G01X7105Y13536D01*
G01X7136Y13552D01*
G01X7156Y13591D01*
G01X7164Y13649D01*
G01X7156Y13708D01*
G01X7136Y13747D01*
G37*
G36*
G01X5931Y14484D02*
G01X5930Y14499D01*
G01X5906Y14494D01*
G01X5861Y14473D01*
G01X5814Y14437D01*
G01X5780Y14391D01*
G01X5760Y14336D01*
G01X5753Y14274D01*
G01X5760Y14205D01*
G01X5781Y14129D01*
G01X5815Y14049D01*
G01X5862Y13964D01*
G01X5907Y13913D01*
G01X5960Y13882D01*
G01X6016Y13873D01*
G01X6068Y13889D01*
G01X6102Y13932D01*
G01X6102Y13995D01*
G01X6068Y14071D01*
G01X5939Y14243D01*
G01X5900Y14327D01*
G01X5889Y14400D01*
G01X5908Y14453D01*
G01X5931Y14484D01*
G37*
G36*
G01X6739Y13580D02*
G01X6742Y13592D01*
G01X6730Y13589D01*
G01X6702Y13571D01*
G01X6659Y13538D01*
G01X6599Y13492D01*
G01X6533Y13438D01*
G01X6480Y13390D01*
G01X6440Y13348D01*
G01X6412Y13313D01*
G01X6398Y13285D01*
G01X6398Y13264D01*
G01X6412Y13251D01*
G01X6441Y13247D01*
G01X6470Y13263D01*
G01X6518Y13306D01*
G01X6577Y13370D01*
G01X6642Y13448D01*
G01X6689Y13508D01*
G01X6721Y13552D01*
G01X6739Y13580D01*
G37*

%LPD*%
G36*
G01X2308Y15188D02*
G01X2264Y15202D01*
G01X2224Y15184D01*
G01X2193Y15137D01*
G01X2175Y15066D01*
G01X2173Y14980D01*
G01X2187Y14898D01*
G01X2212Y14839D01*
G01X2245Y14810D01*
G01X2281Y14814D01*
G01X2322Y14854D01*
G01X2351Y14908D01*
G01X2366Y14971D01*
G01X2369Y15037D01*
G01X2361Y15100D01*
G01X2340Y15152D01*
G01X2308Y15188D01*
G37*

%LPD*%
G36*
G01X5247Y17112D02*
G01X5125Y17112D01*
G01X5072Y17111D01*
G01X5026Y17110D01*
G01X4986Y17108D01*
G01X4952Y17106D01*
G01X4926Y17104D01*
G01X4907Y17100D01*
G01X4897Y17096D01*
G01X4886Y17085D01*
G01X4876Y17066D01*
G01X4867Y17040D01*
G01X4859Y17007D01*
G01X4851Y16967D01*
G01X4844Y16922D01*
G01X4838Y16871D01*
G01X4833Y16815D01*
G01X4828Y16755D01*
G01X4824Y16691D01*
G01X4821Y16624D01*
G01X4819Y16553D01*
G01X4818Y16481D01*
G01X4817Y16406D01*
G01X4817Y16252D01*
G01X4819Y16174D01*
G01X4820Y16097D01*
G01X4823Y16020D01*
G01X4827Y15944D01*
G01X4831Y15869D01*
G01X4835Y15796D01*
G01X4841Y15726D01*
G01X4847Y15659D01*
G01X4854Y15595D01*
G01X4861Y15536D01*
G01X4869Y15480D01*
G01X4878Y15430D01*
G01X4887Y15385D01*
G01X4897Y15346D01*
G01X4908Y15314D01*
G01X4919Y15288D01*
G01X4973Y15210D01*
G01X5042Y15146D01*
G01X5116Y15103D01*
G01X5187Y15087D01*
G01X5231Y15092D01*
G01X5276Y15106D01*
G01X5319Y15129D01*
G01X5363Y15159D01*
G01X5405Y15196D01*
G01X5445Y15239D01*
G01X5484Y15286D01*
G01X5518Y15338D01*
G01X5550Y15392D01*
G01X5577Y15449D01*
G01X5599Y15507D01*
G01X5617Y15565D01*
G01X5628Y15623D01*
G01X5634Y15680D01*
G01X5632Y15734D01*
G01X5623Y15785D01*
G01X5612Y15837D01*
G01X5604Y15887D01*
G01X5600Y15934D01*
G01X5601Y15978D01*
G01X5606Y16019D01*
G01X5616Y16058D01*
G01X5631Y16094D01*
G01X5650Y16127D01*
G01X5673Y16158D01*
G01X5701Y16187D01*
G01X5734Y16212D01*
G01X5772Y16235D01*
G01X5815Y16256D01*
G01X5862Y16275D01*
G01X5915Y16291D01*
G01X5972Y16304D01*
G01X6035Y16316D01*
G01X6103Y16325D01*
G01X6175Y16332D01*
G01X6254Y16336D01*
G01X6337Y16338D01*
G01X6426Y16338D01*
G01X6520Y16336D01*
G01X6620Y16332D01*
G01X7375Y16294D01*
G01X7444Y17007D01*
G01X6211Y17077D01*
G01X6110Y17082D01*
G01X6011Y17087D01*
G01X5913Y17092D01*
G01X5818Y17096D01*
G01X5726Y17099D01*
G01X5636Y17103D01*
G01X5551Y17106D01*
G01X5468Y17108D01*
G01X5390Y17110D01*
G01X5316Y17111D01*
G01X5247Y17112D01*
G37*

%LPC*%
G36*
G01X6366Y16902D02*
G01X6367Y16917D01*
G01X6355Y16909D01*
G01X6329Y16881D01*
G01X6288Y16831D01*
G01X6231Y16761D01*
G01X6168Y16681D01*
G01X6120Y16616D01*
G01X6086Y16565D01*
G01X6065Y16526D01*
G01X6057Y16498D01*
G01X6062Y16480D01*
G01X6078Y16470D01*
G01X6106Y16467D01*
G01X6136Y16487D01*
G01X6180Y16543D01*
G01X6232Y16625D01*
G01X6285Y16726D01*
G01X6324Y16807D01*
G01X6351Y16866D01*
G01X6366Y16902D01*
G37*
G36*
G01X6050Y16916D02*
G01X6052Y16927D01*
G01X6041Y16925D01*
G01X6017Y16909D01*
G01X5979Y16882D01*
G01X5927Y16841D01*
G01X5849Y16793D01*
G01X5774Y16764D01*
G01X5710Y16759D01*
G01X5664Y16778D01*
G01X5624Y16812D01*
G01X5580Y16840D01*
G01X5533Y16859D01*
G01X5485Y16871D01*
G01X5435Y16876D01*
G01X5384Y16874D01*
G01X5333Y16865D01*
G01X5284Y16849D01*
G01X5236Y16826D01*
G01X5190Y16795D01*
G01X5147Y16759D01*
G01X5109Y16715D01*
G01X5066Y16660D01*
G01X5036Y16619D01*
G01X5020Y16593D01*
G01X5017Y16582D01*
G01X5029Y16584D01*
G01X5055Y16601D01*
G01X5095Y16631D01*
G01X5151Y16674D01*
G01X5206Y16713D01*
G01X5254Y16742D01*
G01X5295Y16760D01*
G01X5330Y16767D01*
G01X5357Y16766D01*
G01X5378Y16755D01*
G01X5391Y16736D01*
G01X5398Y16709D01*
G01X5397Y16675D01*
G01X5389Y16635D01*
G01X5374Y16588D01*
G01X5351Y16537D01*
G01X5321Y16480D01*
G01X5284Y16419D01*
G01X5239Y16355D01*
G01X5187Y16288D01*
G01X5116Y16200D01*
G01X5057Y16127D01*
G01X5009Y16066D01*
G01X4971Y16016D01*
G01X4944Y15977D01*
G01X4926Y15948D01*
G01X4917Y15926D01*
G01X4917Y15912D01*
G01X4924Y15904D01*
G01X4939Y15901D01*
G01X4961Y15902D01*
G01X4988Y15906D01*
G01X5058Y15913D01*
G01X5114Y15913D01*
G01X5157Y15905D01*
G01X5187Y15889D01*
G01X5204Y15866D01*
G01X5206Y15834D01*
G01X5196Y15795D01*
G01X5171Y15748D01*
G01X5131Y15680D01*
G01X5101Y15616D01*
G01X5079Y15557D01*
G01X5064Y15504D01*
G01X5057Y15456D01*
G01X5057Y15415D01*
G01X5064Y15382D01*
G01X5077Y15356D01*
G01X5096Y15338D01*
G01X5121Y15329D01*
G01X5151Y15330D01*
G01X5185Y15340D01*
G01X5224Y15360D01*
G01X5267Y15392D01*
G01X5313Y15434D01*
G01X5362Y15490D01*
G01X5409Y15556D01*
G01X5431Y15611D01*
G01X5426Y15648D01*
G01X5394Y15662D01*
G01X5372Y15666D01*
G01X5354Y15680D01*
G01X5339Y15703D01*
G01X5327Y15735D01*
G01X5319Y15779D01*
G01X5314Y15832D01*
G01X5312Y15896D01*
G01X5313Y15971D01*
G01X5318Y16057D01*
G01X5326Y16155D01*
G01X5337Y16265D01*
G01X5351Y16387D01*
G01X5364Y16418D01*
G01X5390Y16433D01*
G01X5427Y16432D01*
G01X5469Y16414D01*
G01X5517Y16398D01*
G01X5566Y16402D01*
G01X5613Y16426D01*
G01X5650Y16467D01*
G01X5689Y16507D01*
G01X5742Y16528D01*
G01X5801Y16528D01*
G01X5859Y16508D01*
G01X5905Y16485D01*
G01X5930Y16481D01*
G01X5932Y16494D01*
G01X5909Y16524D01*
G01X5887Y16575D01*
G01X5891Y16644D01*
G01X5918Y16723D01*
G01X5967Y16801D01*
G01X6007Y16854D01*
G01X6035Y16892D01*
G01X6050Y16916D01*
G37*
G36*
G01X7266Y16873D02*
G01X7265Y16883D01*
G01X7252Y16880D01*
G01X7228Y16866D01*
G01X7191Y16840D01*
G01X7114Y16791D01*
G01X7039Y16764D01*
G01X6975Y16758D01*
G01X6929Y16778D01*
G01X6886Y16816D01*
G01X6842Y16844D01*
G01X6799Y16864D01*
G01X6756Y16874D01*
G01X6715Y16875D01*
G01X6677Y16868D01*
G01X6642Y16852D01*
G01X6611Y16828D01*
G01X6585Y16796D01*
G01X6565Y16756D01*
G01X6550Y16709D01*
G01X6542Y16654D01*
G01X6538Y16582D01*
G01X6536Y16529D01*
G01X6539Y16496D01*
G01X6546Y16482D01*
G01X6559Y16487D01*
G01X6579Y16511D01*
G01X6606Y16553D01*
G01X6641Y16613D01*
G01X6694Y16687D01*
G01X6755Y16737D01*
G01X6814Y16759D01*
G01X6866Y16749D01*
G01X6903Y16714D01*
G01X6924Y16670D01*
G01X6927Y16621D01*
G01X6910Y16574D01*
G01X6885Y16530D01*
G01X6870Y16498D01*
G01X6865Y16477D01*
G01X6870Y16467D01*
G01X6883Y16467D01*
G01X6904Y16477D01*
G01X6932Y16497D01*
G01X6966Y16526D01*
G01X7007Y16563D01*
G01X7052Y16609D01*
G01X7102Y16663D01*
G01X7156Y16724D01*
G01X7200Y16777D01*
G01X7234Y16820D01*
G01X7255Y16852D01*
G01X7266Y16873D01*
G37*

%LPD*%
G36*
G01X5613Y16741D02*
G01X5575Y16751D01*
G01X5544Y16735D01*
G01X5523Y16695D01*
G01X5516Y16634D01*
G01X5517Y16570D01*
G01X5523Y16522D01*
G01X5532Y16490D01*
G01X5546Y16475D01*
G01X5563Y16476D01*
G01X5585Y16492D01*
G01X5613Y16525D01*
G01X5645Y16574D01*
G01X5663Y16620D01*
G01X5663Y16667D01*
G01X5646Y16709D01*
G01X5613Y16741D01*
G37*

%LPD*%
G36*
G01X6009Y19882D02*
G01X5946Y19883D01*
G01X5884Y19881D01*
G01X5824Y19876D01*
G01X5766Y19867D01*
G01X5721Y19857D01*
G01X5674Y19843D01*
G01X5626Y19825D01*
G01X5577Y19804D01*
G01X5527Y19779D01*
G01X5476Y19752D01*
G01X5425Y19722D01*
G01X5374Y19689D01*
G01X5323Y19654D01*
G01X5273Y19617D01*
G01X5223Y19578D01*
G01X5174Y19537D01*
G01X5126Y19495D01*
G01X5080Y19452D01*
G01X5035Y19407D01*
G01X4993Y19362D01*
G01X4953Y19316D01*
G01X4915Y19270D01*
G01X4880Y19223D01*
G01X4848Y19177D01*
G01X4818Y19131D01*
G01X4793Y19086D01*
G01X4771Y19041D01*
G01X4753Y18997D01*
G01X4732Y18933D01*
G01X4714Y18868D01*
G01X4700Y18802D01*
G01X4689Y18736D01*
G01X4681Y18669D01*
G01X4677Y18603D01*
G01X4677Y18536D01*
G01X4680Y18469D01*
G01X4686Y18403D01*
G01X4696Y18337D01*
G01X4709Y18272D01*
G01X4725Y18208D01*
G01X4744Y18144D01*
G01X4767Y18082D01*
G01X4793Y18021D01*
G01X4822Y17962D01*
G01X4855Y17904D01*
G01X4890Y17847D01*
G01X4928Y17793D01*
G01X4970Y17741D01*
G01X5032Y17669D01*
G01X5089Y17605D01*
G01X5142Y17552D01*
G01X5191Y17506D01*
G01X5238Y17469D01*
G01X5282Y17440D01*
G01X5326Y17420D01*
G01X5368Y17407D01*
G01X5410Y17403D01*
G01X5453Y17407D01*
G01X5497Y17418D01*
G01X5542Y17438D01*
G01X5590Y17464D01*
G01X5642Y17498D01*
G01X5696Y17540D01*
G01X5756Y17588D01*
G01X5810Y17634D01*
G01X5855Y17671D01*
G01X5890Y17700D01*
G01X5916Y17720D01*
G01X5931Y17730D01*
G01X5937Y17732D01*
G01X5934Y17723D01*
G01X5921Y17705D01*
G01X5899Y17677D01*
G01X5867Y17638D01*
G01X5826Y17590D01*
G01X5776Y17531D01*
G01X5557Y17272D01*
G01X6040Y17272D01*
G01X6119Y17273D01*
G01X6195Y17277D01*
G01X6270Y17284D01*
G01X6343Y17293D01*
G01X6414Y17305D01*
G01X6483Y17318D01*
G01X6550Y17335D01*
G01X6615Y17354D01*
G01X6677Y17375D01*
G01X6737Y17399D01*
G01X6795Y17425D01*
G01X6851Y17453D01*
G01X6903Y17483D01*
G01X6954Y17516D01*
G01X7001Y17550D01*
G01X7046Y17587D01*
G01X7088Y17626D01*
G01X7127Y17666D01*
G01X7163Y17709D01*
G01X7196Y17754D01*
G01X7226Y17800D01*
G01X7252Y17848D01*
G01X7276Y17899D01*
G01X7296Y17950D01*
G01X7312Y18002D01*
G01X7327Y18056D01*
G01X7339Y18111D01*
G01X7349Y18168D01*
G01X7357Y18226D01*
G01X7363Y18285D01*
G01X7366Y18345D01*
G01X7368Y18405D01*
G01X7367Y18466D01*
G01X7365Y18527D01*
G01X7360Y18589D01*
G01X7353Y18650D01*
G01X7345Y18712D01*
G01X7335Y18773D01*
G01X7322Y18833D01*
G01X7308Y18893D01*
G01X7292Y18952D01*
G01X7273Y19010D01*
G01X7253Y19066D01*
G01X7232Y19121D01*
G01X7208Y19174D01*
G01X7183Y19226D01*
G01X7155Y19275D01*
G01X7127Y19322D01*
G01X7095Y19367D01*
G01X7060Y19411D01*
G01X7020Y19453D01*
G01X6977Y19494D01*
G01X6930Y19534D01*
G01X6881Y19572D01*
G01X6828Y19608D01*
G01X6772Y19643D01*
G01X6714Y19676D01*
G01X6655Y19707D01*
G01X6594Y19735D01*
G01X6531Y19762D01*
G01X6467Y19786D01*
G01X6401Y19808D01*
G01X6336Y19827D01*
G01X6270Y19844D01*
G01X6204Y19858D01*
G01X6138Y19869D01*
G01X6073Y19877D01*
G01X6009Y19882D01*
G37*

%LPC*%
G36*
G01X5285Y18141D02*
G01X5203Y18155D01*
G01X5137Y18137D01*
G01X5102Y18109D01*
G01X5076Y18076D01*
G01X5059Y18040D01*
G01X5050Y18001D01*
G01X5050Y17963D01*
G01X5057Y17925D01*
G01X5072Y17891D01*
G01X5092Y17861D01*
G01X5119Y17837D01*
G01X5152Y17821D01*
G01X5190Y17814D01*
G01X5233Y17818D01*
G01X5283Y17818D01*
G01X5324Y17798D01*
G01X5352Y17760D01*
G01X5362Y17709D01*
G01X5369Y17649D01*
G01X5391Y17629D01*
G01X5434Y17649D01*
G01X5501Y17710D01*
G01X5536Y17749D01*
G01X5560Y17786D01*
G01X5572Y17822D01*
G01X5573Y17858D01*
G01X5561Y17896D01*
G01X5538Y17937D01*
G01X5502Y17983D01*
G01X5455Y18034D01*
G01X5372Y18099D01*
G01X5285Y18141D01*
G37*
G36*
G01X5555Y19428D02*
G01X5548Y19428D01*
G01X5531Y19418D01*
G01X5504Y19398D01*
G01X5469Y19368D01*
G01X5407Y19318D01*
G01X5346Y19275D01*
G01X5287Y19239D01*
G01X5232Y19211D01*
G01X5181Y19192D01*
G01X5137Y19184D01*
G01X5102Y19185D01*
G01X5077Y19197D01*
G01X5045Y19221D01*
G01X5030Y19220D01*
G01X5033Y19198D01*
G01X5055Y19154D01*
G01X5071Y19092D01*
G01X5057Y19020D01*
G01X5019Y18947D01*
G01X4958Y18881D01*
G01X4892Y18816D01*
G01X4837Y18745D01*
G01X4801Y18676D01*
G01X4787Y18618D01*
G01X4790Y18576D01*
G01X4796Y18548D01*
G01X4805Y18539D01*
G01X4816Y18548D01*
G01X4824Y18559D01*
G01X4840Y18580D01*
G01X4863Y18608D01*
G01X4893Y18644D01*
G01X4930Y18686D01*
G01X4971Y18734D01*
G01X5018Y18788D01*
G01X5069Y18846D01*
G01X5124Y18908D01*
G01X5182Y18974D01*
G01X5242Y19042D01*
G01X5305Y19112D01*
G01X5364Y19179D01*
G01X5416Y19239D01*
G01X5460Y19291D01*
G01X5496Y19336D01*
G01X5524Y19372D01*
G01X5542Y19399D01*
G01X5553Y19418D01*
G01X5555Y19428D01*
G37*
G36*
G01X7202Y18110D02*
G01X7184Y18130D01*
G01X7136Y18106D01*
G01X7064Y18043D01*
G01X6888Y17849D01*
G01X6815Y17785D01*
G01X6765Y17759D01*
G01X6746Y17779D01*
G01X6727Y17803D01*
G01X6676Y17791D01*
G01X6602Y17747D01*
G01X6512Y17675D01*
G01X6450Y17616D01*
G01X6398Y17563D01*
G01X6355Y17516D01*
G01X6322Y17475D01*
G01X6299Y17442D01*
G01X6287Y17418D01*
G01X6286Y17403D01*
G01X6296Y17398D01*
G01X6318Y17405D01*
G01X6351Y17424D01*
G01X6397Y17456D01*
G01X6455Y17502D01*
G01X6522Y17550D01*
G01X6577Y17576D01*
G01X6614Y17577D01*
G01X6627Y17554D01*
G01X6633Y17540D01*
G01X6650Y17539D01*
G01X6676Y17549D01*
G01X6712Y17568D01*
G01X6754Y17597D01*
G01X6803Y17634D01*
G01X6857Y17680D01*
G01X6915Y17732D01*
G01X6972Y17788D01*
G01X7026Y17845D01*
G01X7075Y17901D01*
G01X7118Y17954D01*
G01X7153Y18003D01*
G01X7180Y18046D01*
G01X7197Y18082D01*
G01X7202Y18110D01*
G37*
G36*
G01X6467Y19509D02*
G01X6431Y19510D01*
G01X6397Y19500D01*
G01X6362Y19479D01*
G01X6326Y19448D01*
G01X6287Y19405D01*
G01X6250Y19358D01*
G01X6225Y19321D01*
G01X6215Y19295D01*
G01X6220Y19277D01*
G01X6239Y19268D01*
G01X6276Y19267D01*
G01X6328Y19272D01*
G01X6397Y19284D01*
G01X6510Y19298D01*
G01X6577Y19284D01*
G01X6601Y19241D01*
G01X6585Y19168D01*
G01X6577Y19131D01*
G01X6579Y19091D01*
G01X6590Y19048D01*
G01X6609Y19003D01*
G01X6636Y18959D01*
G01X6670Y18916D01*
G01X6710Y18876D01*
G01X6756Y18839D01*
G01X6847Y18765D01*
G01X6896Y18698D01*
G01X6902Y18642D01*
G01X6864Y18599D01*
G01X6820Y18560D01*
G01X6793Y18515D01*
G01X6786Y18466D01*
G01X6814Y18378D01*
G01X6808Y18331D01*
G01X6785Y18286D01*
G01X6744Y18251D01*
G01X6698Y18243D01*
G01X6661Y18281D01*
G01X6636Y18357D01*
G01X6627Y18466D01*
G01X6625Y18512D01*
G01X6616Y18558D01*
G01X6604Y18605D01*
G01X6586Y18651D01*
G01X6564Y18696D01*
G01X6538Y18741D01*
G01X6508Y18784D01*
G01X6475Y18826D01*
G01X6438Y18866D01*
G01X6399Y18904D01*
G01X6357Y18939D01*
G01X6313Y18973D01*
G01X6267Y19003D01*
G01X6220Y19030D01*
G01X6171Y19054D01*
G01X6121Y19074D01*
G01X6071Y19090D01*
G01X6020Y19102D01*
G01X5969Y19110D01*
G01X5918Y19112D01*
G01X5866Y19109D01*
G01X5817Y19100D01*
G01X5771Y19086D01*
G01X5727Y19067D01*
G01X5687Y19043D01*
G01X5650Y19015D01*
G01X5617Y18983D01*
G01X5586Y18947D01*
G01X5559Y18908D01*
G01X5535Y18866D01*
G01X5514Y18822D01*
G01X5497Y18775D01*
G01X5484Y18727D01*
G01X5474Y18677D01*
G01X5468Y18626D01*
G01X5465Y18574D01*
G01X5466Y18522D01*
G01X5471Y18470D01*
G01X5480Y18418D01*
G01X5493Y18367D01*
G01X5510Y18318D01*
G01X5531Y18269D01*
G01X5556Y18222D01*
G01X5585Y18177D01*
G01X5618Y18135D01*
G01X5656Y18096D01*
G01X5698Y18060D01*
G01X5744Y18027D01*
G01X5795Y18001D01*
G01X5850Y17982D01*
G01X5909Y17972D01*
G01X5974Y17970D01*
G01X6045Y17977D01*
G01X6122Y17992D01*
G01X6206Y18016D01*
G01X6298Y18047D01*
G01X6665Y18186D01*
G01X6330Y17815D01*
G01X6286Y17765D01*
G01X6248Y17722D01*
G01X6217Y17686D01*
G01X6193Y17658D01*
G01X6177Y17637D01*
G01X6169Y17623D01*
G01X6168Y17617D01*
G01X6174Y17619D01*
G01X6188Y17628D01*
G01X6210Y17644D01*
G01X6240Y17668D01*
G01X6278Y17700D01*
G01X6324Y17740D01*
G01X6378Y17787D01*
G01X6440Y17842D01*
G01X6510Y17904D01*
G01X6603Y17987D01*
G01X6686Y18063D01*
G01X6762Y18132D01*
G01X6829Y18194D01*
G01X6889Y18251D01*
G01X6941Y18302D01*
G01X6987Y18349D01*
G01X7026Y18391D01*
G01X7060Y18430D01*
G01X7087Y18466D01*
G01X7110Y18500D01*
G01X7127Y18532D01*
G01X7140Y18562D01*
G01X7149Y18592D01*
G01X7154Y18621D01*
G01X7157Y18651D01*
G01X7156Y18682D01*
G01X7153Y18714D01*
G01X7148Y18749D01*
G01X7141Y18786D01*
G01X7129Y18832D01*
G01X7111Y18885D01*
G01X7088Y18942D01*
G01X7060Y19002D01*
G01X7029Y19064D01*
G01X6995Y19126D01*
G01X6961Y19186D01*
G01X6925Y19244D01*
G01X6890Y19297D01*
G01X6857Y19343D01*
G01X6826Y19382D01*
G01X6798Y19412D01*
G01X6775Y19432D01*
G01X6758Y19439D01*
G01X6746Y19433D01*
G01X6742Y19411D01*
G01X6730Y19383D01*
G01X6696Y19380D01*
G01X6646Y19401D01*
G01X6585Y19444D01*
G01X6542Y19476D01*
G01X6503Y19498D01*
G01X6467Y19509D01*
G37*
G36*
G01X5129Y18525D02*
G01X5132Y18537D01*
G01X5120Y18534D01*
G01X5092Y18516D01*
G01X5049Y18483D01*
G01X4988Y18437D01*
G01X4923Y18383D01*
G01X4870Y18335D01*
G01X4829Y18293D01*
G01X4802Y18258D01*
G01X4789Y18230D01*
G01X4789Y18209D01*
G01X4802Y18196D01*
G01X4831Y18192D01*
G01X4860Y18208D01*
G01X4907Y18251D01*
G01X4967Y18315D01*
G01X5032Y18393D01*
G01X5079Y18453D01*
G01X5111Y18497D01*
G01X5129Y18525D01*
G37*
G36*
G01X6164Y19560D02*
G01X6167Y19572D01*
G01X6155Y19569D01*
G01X6127Y19551D01*
G01X6083Y19518D01*
G01X6024Y19471D01*
G01X5958Y19418D01*
G01X5905Y19370D01*
G01X5865Y19328D01*
G01X5837Y19293D01*
G01X5823Y19265D01*
G01X5823Y19244D01*
G01X5838Y19231D01*
G01X5866Y19227D01*
G01X5895Y19243D01*
G01X5943Y19286D01*
G01X6002Y19350D01*
G01X6067Y19428D01*
G01X6113Y19488D01*
G01X6146Y19532D01*
G01X6164Y19560D01*
G37*

%LPD*%
G36*
G01X5333Y18033D02*
G01X5285Y18033D01*
G01X5239Y18014D01*
G01X5191Y17982D01*
G01X5158Y17955D01*
G01X5141Y17933D01*
G01X5140Y17915D01*
G01X5156Y17902D01*
G01X5187Y17892D01*
G01X5235Y17887D01*
G01X5300Y17885D01*
G01X5360Y17893D01*
G01X5400Y17914D01*
G01X5417Y17945D01*
G01X5407Y17983D01*
G01X5375Y18015D01*
G01X5333Y18033D01*
G37*

%LPD*%
G36*
G01X2516Y19658D02*
G01X2481Y19663D01*
G01X2451Y19652D01*
G01X2427Y19624D01*
G01X2407Y19580D01*
G01X2391Y19518D01*
G01X2381Y19439D01*
G01X2374Y19342D01*
G01X2372Y19227D01*
G01X2374Y19112D01*
G01X2381Y19015D01*
G01X2391Y18936D01*
G01X2407Y18874D01*
G01X2427Y18830D01*
G01X2451Y18802D01*
G01X2481Y18791D01*
G01X2516Y18796D01*
G01X2545Y18813D01*
G01X2572Y18844D01*
G01X2596Y18888D01*
G01X2617Y18942D01*
G01X2635Y19005D01*
G01X2648Y19074D01*
G01X2657Y19149D01*
G01X2660Y19227D01*
G01X2657Y19305D01*
G01X2648Y19379D01*
G01X2635Y19449D01*
G01X2617Y19511D01*
G01X2596Y19566D01*
G01X2572Y19609D01*
G01X2545Y19640D01*
G01X2516Y19658D01*
G37*

%LPD*%
G36*
G01X2128Y19681D02*
G01X2085Y19687D01*
G01X2042Y19681D01*
G01X2006Y19662D01*
G01X1976Y19630D01*
G01X1952Y19585D01*
G01X1934Y19524D01*
G01X1922Y19448D01*
G01X1914Y19355D01*
G01X1912Y19246D01*
G01X1914Y19137D01*
G01X1922Y19044D01*
G01X1934Y18968D01*
G01X1952Y18907D01*
G01X1976Y18862D01*
G01X2006Y18830D01*
G01X2042Y18811D01*
G01X2085Y18805D01*
G01X2128Y18811D01*
G01X2164Y18830D01*
G01X2194Y18862D01*
G01X2217Y18907D01*
G01X2235Y18968D01*
G01X2248Y19044D01*
G01X2255Y19137D01*
G01X2257Y19246D01*
G01X2255Y19355D01*
G01X2248Y19448D01*
G01X2235Y19524D01*
G01X2217Y19585D01*
G01X2194Y19630D01*
G01X2164Y19662D01*
G01X2128Y19681D01*
G37*

%LPD*%
G36*
G01X6829Y19179D02*
G01X6780Y19181D01*
G01X6732Y19163D01*
G01X6696Y19128D01*
G01X6675Y19084D01*
G01X6673Y19034D01*
G01X6691Y18987D01*
G01X6726Y18950D01*
G01X6770Y18930D01*
G01X6820Y18928D01*
G01X6867Y18946D01*
G01X6904Y18980D01*
G01X6924Y19025D01*
G01X6926Y19074D01*
G01X6908Y19122D01*
G01X6874Y19159D01*
G01X6829Y19179D01*
G37*

%LPD*%
G36*
G01X6925Y21861D02*
G01X6883Y21862D01*
G01X6841Y21855D01*
G01X6798Y21840D01*
G01X6755Y21817D01*
G01X6711Y21784D01*
G01X6667Y21744D01*
G01X6623Y21694D01*
G01X6586Y21647D01*
G01X6560Y21603D01*
G01X6543Y21564D01*
G01X6537Y21527D01*
G01X6540Y21491D01*
G01X6553Y21456D01*
G01X6576Y21421D01*
G01X6609Y21384D01*
G01X6643Y21343D01*
G01X6672Y21293D01*
G01X6697Y21237D01*
G01X6716Y21178D01*
G01X6730Y21116D01*
G01X6739Y21056D01*
G01X6741Y20998D01*
G01X6738Y20947D01*
G01X6729Y20902D01*
G01X6712Y20867D01*
G01X6690Y20845D01*
G01X6661Y20837D01*
G01X6645Y20841D01*
G01X6622Y20856D01*
G01X6591Y20877D01*
G01X6554Y20908D01*
G01X6512Y20945D01*
G01X6463Y20989D01*
G01X6411Y21038D01*
G01X6354Y21094D01*
G01X6295Y21153D01*
G01X6233Y21217D01*
G01X6169Y21284D01*
G01X6104Y21354D01*
G01X6039Y21423D01*
G01X5977Y21487D01*
G01X5916Y21545D01*
G01X5858Y21599D01*
G01X5801Y21647D01*
G01X5746Y21691D01*
G01X5692Y21729D01*
G01X5639Y21762D01*
G01X5588Y21791D01*
G01X5538Y21815D01*
G01X5489Y21833D01*
G01X5441Y21847D01*
G01X5394Y21856D01*
G01X5348Y21860D01*
G01X5302Y21859D01*
G01X5257Y21854D01*
G01X5212Y21844D01*
G01X5168Y21829D01*
G01X5124Y21809D01*
G01X5080Y21785D01*
G01X5035Y21756D01*
G01X4991Y21723D01*
G01X4947Y21685D01*
G01X4902Y21642D01*
G01X4864Y21601D01*
G01X4830Y21557D01*
G01X4799Y21510D01*
G01X4772Y21461D01*
G01X4747Y21409D01*
G01X4727Y21356D01*
G01X4710Y21301D01*
G01X4696Y21244D01*
G01X4685Y21185D01*
G01X4678Y21126D01*
G01X4675Y21066D01*
G01X4675Y21005D01*
G01X4678Y20945D01*
G01X4684Y20883D01*
G01X4694Y20822D01*
G01X4707Y20762D01*
G01X4724Y20701D01*
G01X4744Y20642D01*
G01X4767Y20584D01*
G01X4794Y20526D01*
G01X4824Y20471D01*
G01X4857Y20417D01*
G01X4893Y20366D01*
G01X4933Y20316D01*
G01X5194Y20013D01*
G01X5417Y20259D01*
G01X5479Y20331D01*
G01X5526Y20394D01*
G01X5557Y20450D01*
G01X5572Y20503D01*
G01X5573Y20555D01*
G01X5560Y20610D01*
G01X5533Y20670D01*
G01X5493Y20739D01*
G01X5442Y20837D01*
G01X5412Y20927D01*
G01X5406Y21001D01*
G01X5425Y21049D01*
G01X5466Y21061D01*
G01X5519Y21038D01*
G01X5578Y20986D01*
G01X5634Y20908D01*
G01X5681Y20832D01*
G01X5727Y20760D01*
G01X5774Y20691D01*
G01X5820Y20625D01*
G01X5867Y20563D01*
G01X5913Y20504D01*
G01X5959Y20449D01*
G01X6005Y20396D01*
G01X6051Y20348D01*
G01X6097Y20302D01*
G01X6143Y20261D01*
G01X6189Y20222D01*
G01X6234Y20187D01*
G01X6279Y20156D01*
G01X6324Y20127D01*
G01X6369Y20102D01*
G01X6414Y20081D01*
G01X6458Y20063D01*
G01X6502Y20048D01*
G01X6546Y20037D01*
G01X6589Y20030D01*
G01X6632Y20026D01*
G01X6675Y20025D01*
G01X6717Y20028D01*
G01X6760Y20034D01*
G01X6801Y20044D01*
G01X6842Y20057D01*
G01X6884Y20074D01*
G01X6924Y20094D01*
G01X6964Y20118D01*
G01X7003Y20145D01*
G01X7043Y20176D01*
G01X7081Y20210D01*
G01X7119Y20249D01*
G01X7157Y20290D01*
G01X7194Y20335D01*
G01X7234Y20388D01*
G01X7270Y20439D01*
G01X7303Y20489D01*
G01X7331Y20539D01*
G01X7356Y20588D01*
G01X7376Y20637D01*
G01X7393Y20686D01*
G01X7406Y20735D01*
G01X7414Y20785D01*
G01X7420Y20836D01*
G01X7421Y20889D01*
G01X7419Y20943D01*
G01X7412Y20999D01*
G01X7403Y21057D01*
G01X7389Y21118D01*
G01X7372Y21182D01*
G01X7350Y21249D01*
G01X7326Y21320D01*
G01X7298Y21395D01*
G01X7266Y21473D01*
G01X7232Y21549D01*
G01X7197Y21617D01*
G01X7160Y21677D01*
G01X7123Y21728D01*
G01X7085Y21772D01*
G01X7046Y21807D01*
G01X7007Y21833D01*
G01X6966Y21851D01*
G01X6925Y21861D01*
G37*

%LPC*%
G36*
G01X6038Y20996D02*
G01X6010Y21002D01*
G01X5991Y20994D01*
G01X5979Y20976D01*
G01X5975Y20945D01*
G01X5980Y20905D01*
G01X5993Y20855D01*
G01X6013Y20795D01*
G01X6042Y20728D01*
G01X6078Y20653D01*
G01X6123Y20571D01*
G01X6160Y20509D01*
G01X6191Y20464D01*
G01X6220Y20436D01*
G01X6247Y20425D01*
G01X6276Y20430D01*
G01X6309Y20452D01*
G01X6347Y20491D01*
G01X6393Y20545D01*
G01X6436Y20597D01*
G01X6464Y20637D01*
G01X6480Y20665D01*
G01X6481Y20681D01*
G01X6468Y20686D01*
G01X6440Y20682D01*
G01X6396Y20669D01*
G01X6337Y20647D01*
G01X6254Y20621D01*
G01X6203Y20620D01*
G01X6187Y20643D01*
G01X6204Y20690D01*
G01X6221Y20747D01*
G01X6210Y20814D01*
G01X6174Y20884D01*
G01X6118Y20945D01*
G01X6074Y20978D01*
G01X6038Y20996D01*
G37*
G36*
G01X7136Y21107D02*
G01X7105Y21123D01*
G01X7068Y21113D01*
G01X7031Y21086D01*
G01X7000Y21058D01*
G01X6980Y21031D01*
G01X6972Y21010D01*
G01X6980Y20988D01*
G01X7000Y20961D01*
G01X7031Y20933D01*
G01X7068Y20906D01*
G01X7105Y20896D01*
G01X7136Y20912D01*
G01X7156Y20951D01*
G01X7164Y21010D01*
G01X7156Y21068D01*
G01X7136Y21107D01*
G37*

%LPD*%
G36*
G01X1361Y21912D02*
G01X1319Y21915D01*
G01X1295Y21906D01*
G01X1261Y21866D01*
G01X1238Y21823D01*
G01X1224Y21779D01*
G01X1221Y21733D01*
G01X1227Y21687D01*
G01X1242Y21640D01*
G01X1267Y21593D01*
G01X1301Y21547D01*
G01X1343Y21502D01*
G01X1394Y21458D01*
G01X1453Y21417D01*
G01X1520Y21378D01*
G01X1818Y21222D01*
G01X1530Y21033D01*
G01X1461Y20984D01*
G01X1404Y20935D01*
G01X1359Y20885D01*
G01X1325Y20834D01*
G01X1303Y20782D01*
G01X1292Y20728D01*
G01X1292Y20672D01*
G01X1302Y20613D01*
G01X1316Y20561D01*
G01X1330Y20519D01*
G01X1346Y20487D01*
G01X1365Y20465D01*
G01X1389Y20453D01*
G01X1420Y20451D01*
G01X1459Y20459D01*
G01X1509Y20479D01*
G01X1571Y20509D01*
G01X1647Y20550D01*
G01X1739Y20603D01*
G01X1849Y20667D01*
G01X1902Y20697D01*
G01X1958Y20726D01*
G01X2015Y20754D01*
G01X2074Y20780D01*
G01X2134Y20805D01*
G01X2194Y20829D01*
G01X2255Y20851D01*
G01X2377Y20889D01*
G01X2437Y20905D01*
G01X2495Y20919D01*
G01X2552Y20930D01*
G01X2607Y20939D01*
G01X2660Y20947D01*
G01X2709Y20951D01*
G01X2873Y20954D01*
G01X2967Y20961D01*
G01X3041Y20975D01*
G01X3096Y20996D01*
G01X3135Y21026D01*
G01X3160Y21066D01*
G01X3173Y21118D01*
G01X3177Y21182D01*
G01X3173Y21246D01*
G01X3160Y21297D01*
G01X3135Y21337D01*
G01X3096Y21368D01*
G01X3041Y21389D01*
G01X2967Y21402D01*
G01X2873Y21410D01*
G01X2756Y21412D01*
G01X2709Y21413D01*
G01X2660Y21417D01*
G01X2607Y21424D01*
G01X2552Y21433D01*
G01X2495Y21445D01*
G01X2437Y21459D01*
G01X2378Y21475D01*
G01X2317Y21493D01*
G01X2256Y21513D01*
G01X2195Y21535D01*
G01X2135Y21558D01*
G01X2075Y21583D01*
G01X2016Y21609D01*
G01X1904Y21665D01*
G01X1851Y21695D01*
G01X1753Y21751D01*
G01X1658Y21799D01*
G01X1569Y21841D01*
G01X1488Y21874D01*
G01X1419Y21898D01*
G01X1361Y21912D01*
G37*

%LPD*%
G36*
G01X2407Y22561D02*
G01X2257Y22562D01*
G01X2108Y22561D01*
G01X1976Y22560D01*
G01X1859Y22559D01*
G01X1758Y22555D01*
G01X1670Y22551D01*
G01X1595Y22545D01*
G01X1533Y22537D01*
G01X1481Y22526D01*
G01X1439Y22513D01*
G01X1406Y22497D01*
G01X1381Y22479D01*
G01X1362Y22457D01*
G01X1350Y22431D01*
G01X1342Y22402D01*
G01X1338Y22369D01*
G01X1337Y22332D01*
G01X1338Y22295D01*
G01X1342Y22261D01*
G01X1350Y22232D01*
G01X1362Y22207D01*
G01X1381Y22185D01*
G01X1406Y22166D01*
G01X1439Y22151D01*
G01X1481Y22138D01*
G01X1533Y22127D01*
G01X1595Y22119D01*
G01X1670Y22113D01*
G01X1758Y22108D01*
G01X1859Y22105D01*
G01X1976Y22103D01*
G01X2108Y22102D01*
G01X2407Y22102D01*
G01X2539Y22103D01*
G01X2656Y22105D01*
G01X2757Y22108D01*
G01X2844Y22113D01*
G01X2919Y22119D01*
G01X2982Y22127D01*
G01X3033Y22138D01*
G01X3076Y22151D01*
G01X3109Y22166D01*
G01X3134Y22185D01*
G01X3152Y22207D01*
G01X3165Y22232D01*
G01X3172Y22261D01*
G01X3176Y22295D01*
G01X3177Y22332D01*
G01X3176Y22369D01*
G01X3172Y22402D01*
G01X3165Y22431D01*
G01X3152Y22457D01*
G01X3134Y22479D01*
G01X3109Y22497D01*
G01X3076Y22513D01*
G01X3033Y22526D01*
G01X2982Y22537D01*
G01X2919Y22545D01*
G01X2844Y22551D01*
G01X2757Y22555D01*
G01X2656Y22559D01*
G01X2539Y22560D01*
G01X2407Y22561D01*
G37*

%LPD*%
G36*
G01X7375Y24345D02*
G01X4807Y24409D01*
G01X4807Y23574D01*
G01X4809Y23402D01*
G01X4812Y23317D01*
G01X4816Y23234D01*
G01X4821Y23153D01*
G01X4826Y23074D01*
G01X4832Y22998D01*
G01X4839Y22926D01*
G01X4847Y22857D01*
G01X4855Y22794D01*
G01X4863Y22735D01*
G01X4873Y22683D01*
G01X4883Y22636D01*
G01X4893Y22597D01*
G01X4903Y22564D01*
G01X4914Y22539D01*
G01X4931Y22511D01*
G01X4952Y22484D01*
G01X4975Y22458D01*
G01X5001Y22432D01*
G01X5031Y22408D01*
G01X5064Y22385D01*
G01X5099Y22362D01*
G01X5138Y22341D01*
G01X5179Y22321D01*
G01X5222Y22302D01*
G01X5268Y22284D01*
G01X5317Y22267D01*
G01X5368Y22251D01*
G01X5421Y22236D01*
G01X5475Y22222D01*
G01X5533Y22210D01*
G01X5592Y22199D01*
G01X5653Y22189D01*
G01X5716Y22179D01*
G01X5780Y22172D01*
G01X5846Y22166D01*
G01X5913Y22161D01*
G01X5982Y22157D01*
G01X6052Y22155D01*
G01X6124Y22154D01*
G01X6197Y22154D01*
G01X6270Y22156D01*
G01X6345Y22159D01*
G01X6420Y22163D01*
G01X6496Y22169D01*
G01X6573Y22176D01*
G01X6650Y22185D01*
G01X6770Y22200D01*
G01X6876Y22215D01*
G01X6970Y22228D01*
G01X7051Y22242D01*
G01X7121Y22257D01*
G01X7180Y22272D01*
G01X7231Y22289D01*
G01X7273Y22308D01*
G01X7307Y22330D01*
G01X7335Y22354D01*
G01X7357Y22382D01*
G01X7373Y22414D01*
G01X7387Y22450D01*
G01X7397Y22491D01*
G01X7404Y22538D01*
G01X7411Y22590D01*
G01X7417Y22646D01*
G01X7422Y22695D01*
G01X7423Y22736D01*
G01X7421Y22772D01*
G01X7413Y22803D01*
G01X7401Y22829D01*
G01X7381Y22850D01*
G01X7355Y22866D01*
G01X7319Y22879D01*
G01X7275Y22890D01*
G01X7220Y22897D01*
G01X7153Y22902D01*
G01X7075Y22904D01*
G01X6984Y22906D01*
G01X6878Y22907D01*
G01X6660Y22907D01*
G01X6566Y22910D01*
G01X6475Y22914D01*
G01X6387Y22919D01*
G01X6303Y22926D01*
G01X6223Y22934D01*
G01X6146Y22943D01*
G01X6073Y22955D01*
G01X6004Y22967D01*
G01X5939Y22981D01*
G01X5877Y22996D01*
G01X5820Y23012D01*
G01X5767Y23030D01*
G01X5718Y23049D01*
G01X5673Y23068D01*
G01X5633Y23090D01*
G01X5597Y23112D01*
G01X5566Y23136D01*
G01X5539Y23160D01*
G01X5517Y23186D01*
G01X5500Y23213D01*
G01X5487Y23241D01*
G01X5480Y23270D01*
G01X5477Y23300D01*
G01X5479Y23338D01*
G01X5485Y23374D01*
G01X5494Y23407D01*
G01X5508Y23438D01*
G01X5526Y23467D01*
G01X5550Y23494D01*
G01X5578Y23519D01*
G01X5613Y23541D01*
G01X5653Y23562D01*
G01X5699Y23582D01*
G01X5752Y23600D01*
G01X5811Y23616D01*
G01X5878Y23631D01*
G01X5952Y23646D01*
G01X6034Y23659D01*
G01X6124Y23670D01*
G01X6222Y23682D01*
G01X6329Y23692D01*
G01X6445Y23702D01*
G01X6570Y23712D01*
G01X6705Y23722D01*
G01X6825Y23731D01*
G01X6929Y23741D01*
G01X7019Y23750D01*
G01X7096Y23761D01*
G01X7161Y23773D01*
G01X7215Y23786D01*
G01X7260Y23802D01*
G01X7295Y23820D01*
G01X7322Y23842D01*
G01X7342Y23867D01*
G01X7357Y23895D01*
G01X7366Y23928D01*
G01X7372Y23966D01*
G01X7374Y24008D01*
G01X7375Y24057D01*
G01X7375Y24345D01*
G37*

%LPC*%
G36*
G01X5263Y23415D02*
G01X5211Y23421D01*
G01X5139Y23415D01*
G01X5042Y23400D01*
G01X4917Y23376D01*
G01X4911Y23360D01*
G01X4924Y23324D01*
G01X4956Y23273D01*
G01X5002Y23213D01*
G01X5045Y23145D01*
G01X5067Y23076D01*
G01X5068Y23013D01*
G01X5045Y22964D01*
G01X5024Y22934D01*
G01X5029Y22923D01*
G01X5059Y22931D01*
G01X5111Y22958D01*
G01X5177Y22985D01*
G01X5218Y22974D01*
G01X5234Y22924D01*
G01X5226Y22835D01*
G01X5223Y22753D01*
G01X5244Y22685D01*
G01X5283Y22640D01*
G01X5338Y22622D01*
G01X5402Y22612D01*
G01X5466Y22586D01*
G01X5524Y22549D01*
G01X5568Y22503D01*
G01X5594Y22480D01*
G01X5638Y22458D01*
G01X5697Y22438D01*
G01X5769Y22420D01*
G01X5850Y22405D01*
G01X5941Y22393D01*
G01X6036Y22385D01*
G01X6136Y22382D01*
G01X6232Y22382D01*
G01X6320Y22384D01*
G01X6398Y22387D01*
G01X6463Y22393D01*
G01X6515Y22400D01*
G01X6550Y22409D01*
G01X6569Y22419D01*
G01X6568Y22429D01*
G01X6557Y22462D01*
G01X6568Y22513D01*
G01X6597Y22573D01*
G01X6642Y22638D01*
G01X6689Y22703D01*
G01X6706Y22751D01*
G01X6694Y22781D01*
G01X6653Y22792D01*
G01X6603Y22778D01*
G01X6551Y22739D01*
G01X6504Y22682D01*
G01X6468Y22612D01*
G01X6431Y22548D01*
G01X6382Y22508D01*
G01X6326Y22495D01*
G01X6271Y22512D01*
G01X6222Y22553D01*
G01X6210Y22596D01*
G01X6235Y22640D01*
G01X6299Y22689D01*
G01X6350Y22728D01*
G01X6374Y22760D01*
G01X6368Y22781D01*
G01X6334Y22790D01*
G01X6276Y22780D01*
G01X6208Y22751D01*
G01X6138Y22707D01*
G01X6075Y22654D01*
G01X6008Y22593D01*
G01X5966Y22573D01*
G01X5944Y22593D01*
G01X5937Y22654D01*
G01X5931Y22705D01*
G01X5912Y22743D01*
G01X5884Y22764D01*
G01X5851Y22764D01*
G01X5817Y22759D01*
G01X5778Y22763D01*
G01X5736Y22774D01*
G01X5691Y22794D01*
G01X5645Y22820D01*
G01X5598Y22851D01*
G01X5552Y22887D01*
G01X5507Y22926D01*
G01X5464Y22968D01*
G01X5425Y23013D01*
G01X5389Y23058D01*
G01X5359Y23104D01*
G01X5335Y23148D01*
G01X5318Y23191D01*
G01X5310Y23232D01*
G01X5310Y23269D01*
G01X5316Y23326D01*
G01X5312Y23368D01*
G01X5295Y23398D01*
G01X5263Y23415D01*
G37*
G36*
G01X7215Y22745D02*
G01X7148Y22754D01*
G01X7088Y22746D01*
G01X7047Y22728D01*
G01X7029Y22700D01*
G01X7036Y22666D01*
G01X7049Y22626D01*
G01X7041Y22582D01*
G01X7015Y22541D01*
G01X6974Y22506D01*
G01X6922Y22471D01*
G01X6886Y22443D01*
G01X6867Y22419D01*
G01X6866Y22400D01*
G01X6881Y22387D01*
G01X6913Y22378D01*
G01X6963Y22372D01*
G01X7030Y22370D01*
G01X7092Y22375D01*
G01X7135Y22387D01*
G01X7154Y22405D01*
G01X7146Y22427D01*
G01X7133Y22459D01*
G01X7139Y22506D01*
G01X7162Y22561D01*
G01X7202Y22618D01*
G01X7242Y22679D01*
G01X7246Y22721D01*
G01X7215Y22745D01*
G37*
G36*
G01X5772Y23971D02*
G01X6110Y24345D01*
G01X5736Y24007D01*
G01X5654Y23933D01*
G01X5584Y23867D01*
G01X5524Y23810D01*
G01X5474Y23760D01*
G01X5434Y23719D01*
G01X5403Y23684D01*
G01X5381Y23655D01*
G01X5369Y23633D01*
G01X5365Y23617D01*
G01X5368Y23605D01*
G01X5379Y23599D01*
G01X5398Y23597D01*
G01X5412Y23604D01*
G01X5439Y23626D01*
G01X5476Y23661D01*
G01X5523Y23707D01*
G01X5578Y23762D01*
G01X5638Y23825D01*
G01X5704Y23895D01*
G01X5772Y23971D01*
G37*
G36*
G01X5244Y24160D02*
G01X5247Y24172D01*
G01X5235Y24169D01*
G01X5207Y24151D01*
G01X5163Y24118D01*
G01X5104Y24072D01*
G01X5038Y24018D01*
G01X4985Y23970D01*
G01X4945Y23928D01*
G01X4917Y23893D01*
G01X4903Y23865D01*
G01X4903Y23844D01*
G01X4917Y23831D01*
G01X4946Y23827D01*
G01X4975Y23843D01*
G01X5023Y23886D01*
G01X5082Y23950D01*
G01X5147Y24028D01*
G01X5193Y24088D01*
G01X5226Y24132D01*
G01X5244Y24160D01*
G37*
G36*
G01X6515Y24107D02*
G01X6448Y24108D01*
G01X6376Y24107D01*
G01X6304Y24103D01*
G01X6236Y24097D01*
G01X6173Y24090D01*
G01X6121Y24080D01*
G01X6081Y24068D01*
G01X6048Y24051D01*
G01X6038Y24035D01*
G01X6047Y24020D01*
G01X6076Y24008D01*
G01X6121Y23999D01*
G01X6179Y23993D01*
G01X6252Y23990D01*
G01X6334Y23993D01*
G01X6449Y24003D01*
G01X6552Y24022D01*
G01X6633Y24046D01*
G01X6681Y24072D01*
G01X6682Y24083D01*
G01X6663Y24093D01*
G01X6626Y24100D01*
G01X6576Y24105D01*
G01X6515Y24107D01*
G37*

%LPD*%
G36*
G01X5467Y22827D02*
G01X5401Y22850D01*
G01X5349Y22841D01*
G01X5310Y22811D01*
G01X5277Y22776D01*
G01X5255Y22740D01*
G01X5247Y22708D01*
G01X5253Y22687D01*
G01X5270Y22681D01*
G01X5294Y22691D01*
G01X5323Y22714D01*
G01X5367Y22732D01*
G01X5430Y22726D01*
G01X5504Y22697D01*
G01X5582Y22647D01*
G01X5635Y22606D01*
G01X5674Y22578D01*
G01X5697Y22563D01*
G01X5708Y22562D01*
G01X5703Y22575D01*
G01X5685Y22603D01*
G01X5653Y22646D01*
G01X5608Y22704D01*
G01X5539Y22777D01*
G01X5467Y22827D01*
G37*

%LPD*%
G36*
G01X3177Y24287D02*
G01X1337Y24287D01*
G01X1337Y23730D01*
G01X1338Y23651D01*
G01X1342Y23576D01*
G01X1348Y23505D01*
G01X1356Y23437D01*
G01X1367Y23373D01*
G01X1380Y23313D01*
G01X1397Y23256D01*
G01X1415Y23202D01*
G01X1437Y23152D01*
G01X1462Y23105D01*
G01X1490Y23060D01*
G01X1521Y23019D01*
G01X1555Y22980D01*
G01X1592Y22945D01*
G01X1632Y22911D01*
G01X1676Y22881D01*
G01X1723Y22853D01*
G01X1774Y22827D01*
G01X1828Y22804D01*
G01X1886Y22783D01*
G01X1948Y22764D01*
G01X2014Y22747D01*
G01X2083Y22732D01*
G01X2157Y22719D01*
G01X2227Y22709D01*
G01X2293Y22704D01*
G01X2356Y22702D01*
G01X2416Y22705D01*
G01X2473Y22712D01*
G01X2529Y22725D01*
G01X2584Y22742D01*
G01X2638Y22764D01*
G01X2692Y22791D01*
G01X2747Y22823D01*
G01X2803Y22861D01*
G01X2861Y22905D01*
G01X2909Y22943D01*
G01X2952Y22981D01*
G01X2990Y23017D01*
G01X3024Y23054D01*
G01X3053Y23091D01*
G01X3079Y23129D01*
G01X3101Y23169D01*
G01X3120Y23211D01*
G01X3136Y23257D01*
G01X3148Y23307D01*
G01X3158Y23361D01*
G01X3166Y23419D01*
G01X3171Y23485D01*
G01X3175Y23556D01*
G01X3177Y23634D01*
G01X3177Y24287D01*
G37*

%LPC*%
G36*
G01X2148Y23818D02*
G01X2095Y23820D01*
G01X2046Y23819D01*
G01X2002Y23815D01*
G01X1963Y23807D01*
G01X1928Y23795D01*
G01X1897Y23780D01*
G01X1871Y23761D01*
G01X1849Y23740D01*
G01X1831Y23714D01*
G01X1818Y23684D01*
G01X1809Y23651D01*
G01X1805Y23615D01*
G01X1804Y23574D01*
G01X1808Y23530D01*
G01X1817Y23483D01*
G01X1829Y23432D01*
G01X1846Y23377D01*
G01X1867Y23319D01*
G01X1887Y23278D01*
G01X1914Y23242D01*
G01X1948Y23211D01*
G01X1986Y23185D01*
G01X2029Y23164D01*
G01X2075Y23148D01*
G01X2125Y23137D01*
G01X2177Y23130D01*
G01X2231Y23128D01*
G01X2285Y23131D01*
G01X2339Y23138D01*
G01X2393Y23150D01*
G01X2445Y23166D01*
G01X2495Y23186D01*
G01X2542Y23211D01*
G01X2585Y23240D01*
G01X2624Y23273D01*
G01X2658Y23310D01*
G01X2685Y23351D01*
G01X2707Y23396D01*
G01X2731Y23468D01*
G01X2744Y23528D01*
G01X2747Y23577D01*
G01X2737Y23618D01*
G01X2713Y23652D01*
G01X2677Y23681D01*
G01X2626Y23706D01*
G01X2559Y23729D01*
G01X2479Y23753D01*
G01X2404Y23773D01*
G01X2333Y23789D01*
G01X2266Y23802D01*
G01X2205Y23812D01*
G01X2148Y23818D01*
G37*

%LPD*%
G36*
G01X6219Y27200D02*
G01X6136Y27200D01*
G01X6069Y27199D01*
G01X6004Y27196D01*
G01X5940Y27191D01*
G01X5877Y27184D01*
G01X5816Y27175D01*
G01X5756Y27164D01*
G01X5698Y27151D01*
G01X5641Y27137D01*
G01X5586Y27119D01*
G01X5532Y27100D01*
G01X5480Y27080D01*
G01X5430Y27057D01*
G01X5380Y27032D01*
G01X5333Y27006D01*
G01X5287Y26977D01*
G01X5243Y26947D01*
G01X5200Y26915D01*
G01X5159Y26880D01*
G01X5120Y26844D01*
G01X5082Y26806D01*
G01X5046Y26766D01*
G01X5012Y26725D01*
G01X4979Y26681D01*
G01X4948Y26635D01*
G01X4918Y26588D01*
G01X4890Y26539D01*
G01X4864Y26487D01*
G01X4840Y26434D01*
G01X4804Y26351D01*
G01X4773Y26275D01*
G01X4747Y26205D01*
G01X4726Y26141D01*
G01X4709Y26080D01*
G01X4697Y26024D01*
G01X4690Y25968D01*
G01X4687Y25914D01*
G01X4689Y25859D01*
G01X4696Y25804D01*
G01X4707Y25747D01*
G01X4723Y25686D01*
G01X4743Y25621D01*
G01X4768Y25551D01*
G01X4798Y25474D01*
G01X4833Y25391D01*
G01X4859Y25331D01*
G01X4887Y25274D01*
G01X4917Y25219D01*
G01X4949Y25166D01*
G01X4983Y25116D01*
G01X5018Y25067D01*
G01X5055Y25022D01*
G01X5093Y24979D01*
G01X5134Y24937D01*
G01X5176Y24899D01*
G01X5219Y24863D01*
G01X5264Y24829D01*
G01X5310Y24798D01*
G01X5358Y24770D01*
G01X5407Y24744D01*
G01X5458Y24721D01*
G01X5509Y24700D01*
G01X5562Y24682D01*
G01X5617Y24667D01*
G01X5672Y24654D01*
G01X5729Y24645D01*
G01X5787Y24638D01*
G01X5845Y24633D01*
G01X5905Y24632D01*
G01X6282Y24632D01*
G01X6283Y25523D01*
G01X6283Y25645D01*
G01X6284Y25755D01*
G01X6285Y25855D01*
G01X6287Y25945D01*
G01X6290Y26025D01*
G01X6294Y26097D01*
G01X6300Y26160D01*
G01X6307Y26216D01*
G01X6316Y26265D01*
G01X6327Y26308D01*
G01X6340Y26346D01*
G01X6356Y26380D01*
G01X6374Y26409D01*
G01X6395Y26434D01*
G01X6419Y26457D01*
G01X6446Y26479D01*
G01X6476Y26498D01*
G01X6510Y26517D01*
G01X6548Y26537D01*
G01X6590Y26556D01*
G01X6669Y26590D01*
G01X6740Y26615D01*
G01X6803Y26631D01*
G01X6861Y26638D01*
G01X6913Y26635D01*
G01X6961Y26623D01*
G01X7005Y26602D01*
G01X7048Y26572D01*
G01X7100Y26518D01*
G01X7131Y26461D01*
G01X7143Y26406D01*
G01X7136Y26355D01*
G01X7110Y26310D01*
G01X7068Y26274D01*
G01X7010Y26251D01*
G01X6937Y26243D01*
G01X6886Y26251D01*
G01X6873Y26269D01*
G01X6896Y26301D01*
G01X6956Y26344D01*
G01X7019Y26393D01*
G01X7044Y26439D01*
G01X7033Y26481D01*
G01X6985Y26522D01*
G01X6943Y26545D01*
G01X6904Y26560D01*
G01X6868Y26568D01*
G01X6835Y26568D01*
G01X6805Y26561D01*
G01X6778Y26547D01*
G01X6755Y26527D01*
G01X6735Y26500D01*
G01X6718Y26466D01*
G01X6706Y26426D01*
G01X6696Y26380D01*
G01X6691Y26327D01*
G01X6689Y26269D01*
G01X6692Y26205D01*
G01X6698Y26136D01*
G01X6708Y26061D01*
G01X6716Y26000D01*
G01X6722Y25938D01*
G01X6724Y25875D01*
G01X6724Y25812D01*
G01X6720Y25750D01*
G01X6714Y25688D01*
G01X6705Y25628D01*
G01X6694Y25570D01*
G01X6679Y25515D01*
G01X6663Y25463D01*
G01X6643Y25414D01*
G01X6622Y25370D01*
G01X6579Y25285D01*
G01X6549Y25214D01*
G01X6534Y25154D01*
G01X6532Y25100D01*
G01X6544Y25050D01*
G01X6571Y25000D01*
G01X6613Y24947D01*
G01X6671Y24887D01*
G01X6715Y24844D01*
G01X6754Y24810D01*
G01X6789Y24784D01*
G01X6821Y24768D01*
G01X6852Y24762D01*
G01X6883Y24765D01*
G01X6916Y24778D01*
G01X6952Y24802D01*
G01X6991Y24837D01*
G01X7038Y24884D01*
G01X7090Y24942D01*
G01X7152Y25012D01*
G01X7191Y25060D01*
G01X7228Y25109D01*
G01X7262Y25158D01*
G01X7293Y25210D01*
G01X7321Y25262D01*
G01X7346Y25315D01*
G01X7369Y25369D01*
G01X7389Y25424D01*
G01X7406Y25479D01*
G01X7421Y25535D01*
G01X7432Y25592D01*
G01X7441Y25649D01*
G01X7447Y25707D01*
G01X7451Y25764D01*
G01X7452Y25822D01*
G01X7449Y25881D01*
G01X7444Y25939D01*
G01X7437Y25998D01*
G01X7427Y26056D01*
G01X7414Y26114D01*
G01X7398Y26173D01*
G01X7380Y26231D01*
G01X7359Y26288D01*
G01X7335Y26346D01*
G01X7308Y26402D01*
G01X7279Y26458D01*
G01X7247Y26514D01*
G01X7212Y26569D01*
G01X7175Y26623D01*
G01X7135Y26676D01*
G01X7092Y26729D01*
G01X7047Y26780D01*
G01X6987Y26845D01*
G01X6931Y26903D01*
G01X6878Y26955D01*
G01X6828Y27000D01*
G01X6780Y27040D01*
G01X6733Y27074D01*
G01X6685Y27103D01*
G01X6638Y27127D01*
G01X6589Y27148D01*
G01X6538Y27164D01*
G01X6483Y27177D01*
G01X6425Y27186D01*
G01X6362Y27193D01*
G01X6293Y27197D01*
G01X6219Y27200D01*
G37*

%LPC*%
G36*
G01X6145Y24969D02*
G01X6127Y24972D01*
G01X6098Y24970D01*
G01X6060Y24962D01*
G01X6010Y24949D01*
G01X5952Y24930D01*
G01X5884Y24905D01*
G01X5816Y24873D01*
G01X5768Y24839D01*
G01X5745Y24806D01*
G01X5751Y24779D01*
G01X5788Y24768D01*
G01X5851Y24777D01*
G01X5929Y24805D01*
G01X6015Y24848D01*
G01X6067Y24879D01*
G01X6106Y24907D01*
G01X6133Y24930D01*
G01X6149Y24948D01*
G01X6153Y24961D01*
G01X6145Y24969D01*
G37*
G36*
G01X5959Y26977D02*
G01X5940Y26980D01*
G01X5912Y26976D01*
G01X5874Y26965D01*
G01X5828Y26949D01*
G01X5776Y26927D01*
G01X5718Y26900D01*
G01X5656Y26869D01*
G01X5591Y26835D01*
G01X5524Y26798D01*
G01X5457Y26760D01*
G01X5390Y26720D01*
G01X5325Y26680D01*
G01X5263Y26640D01*
G01X5205Y26601D01*
G01X5153Y26564D01*
G01X5107Y26529D01*
G01X5070Y26498D01*
G01X5041Y26470D01*
G01X5023Y26447D01*
G01X5017Y26429D01*
G01X5033Y26416D01*
G01X5076Y26404D01*
G01X5140Y26396D01*
G01X5218Y26392D01*
G01X5285Y26395D01*
G01X5349Y26405D01*
G01X5409Y26422D01*
G01X5465Y26445D01*
G01X5516Y26473D01*
G01X5560Y26505D01*
G01X5596Y26540D01*
G01X5624Y26577D01*
G01X5643Y26616D01*
G01X5650Y26656D01*
G01X5646Y26696D01*
G01X5629Y26734D01*
G01X5611Y26780D01*
G01X5625Y26804D01*
G01X5669Y26806D01*
G01X5742Y26784D01*
G01X5791Y26770D01*
G01X5839Y26765D01*
G01X5883Y26767D01*
G01X5923Y26777D01*
G01X5959Y26793D01*
G01X5987Y26813D01*
G01X6008Y26837D01*
G01X6020Y26864D01*
G01X6023Y26892D01*
G01X6014Y26921D01*
G01X5993Y26950D01*
G01X5959Y26977D01*
G37*
G36*
G01X5204Y25593D02*
G01X5184Y25612D01*
G01X5137Y25611D01*
G01X5068Y25591D01*
G01X5011Y25568D01*
G01X4969Y25548D01*
G01X4944Y25530D01*
G01X4935Y25513D01*
G01X4944Y25494D01*
G01X4967Y25472D01*
G01X5008Y25445D01*
G01X5064Y25413D01*
G01X5132Y25364D01*
G01X5178Y25307D01*
G01X5197Y25251D01*
G01X5186Y25201D01*
G01X5176Y25165D01*
G01X5196Y25147D01*
G01X5242Y25148D01*
G01X5311Y25168D01*
G01X5369Y25191D01*
G01X5410Y25211D01*
G01X5435Y25228D01*
G01X5444Y25246D01*
G01X5436Y25265D01*
G01X5412Y25287D01*
G01X5371Y25313D01*
G01X5315Y25346D01*
G01X5247Y25395D01*
G01X5202Y25451D01*
G01X5182Y25508D01*
G01X5193Y25558D01*
G01X5204Y25593D01*
G37*
G36*
G01X5639Y26339D02*
G01X5623Y26339D01*
G01X5604Y26328D01*
G01X5584Y26305D01*
G01X5561Y26270D01*
G01X5536Y26225D01*
G01X5509Y26167D01*
G01X5481Y26098D01*
G01X5448Y26017D01*
G01X5422Y25948D01*
G01X5402Y25890D01*
G01X5389Y25840D01*
G01X5381Y25795D01*
G01X5381Y25756D01*
G01X5388Y25718D01*
G01X5401Y25680D01*
G01X5423Y25640D01*
G01X5451Y25596D01*
G01X5487Y25546D01*
G01X5531Y25488D01*
G01X5567Y25441D01*
G01X5598Y25405D01*
G01X5623Y25380D01*
G01X5645Y25367D01*
G01X5661Y25368D01*
G01X5675Y25382D01*
G01X5685Y25411D01*
G01X5692Y25457D01*
G01X5697Y25518D01*
G01X5700Y25597D01*
G01X5702Y25694D01*
G01X5704Y25811D01*
G01X5704Y25917D01*
G01X5701Y26011D01*
G01X5698Y26094D01*
G01X5693Y26164D01*
G01X5686Y26223D01*
G01X5677Y26269D01*
G01X5666Y26304D01*
G01X5654Y26328D01*
G01X5639Y26339D01*
G37*
G36*
G01X7262Y25660D02*
G01X7187Y25667D01*
G01X7105Y25660D01*
G01X7033Y25642D01*
G01X6974Y25615D01*
G01X6931Y25583D01*
G01X6906Y25547D01*
G01X6904Y25512D01*
G01X6926Y25480D01*
G01X6975Y25455D01*
G01X7036Y25448D01*
G01X7106Y25462D01*
G01X7175Y25493D01*
G01X7235Y25539D01*
G01X7285Y25598D01*
G01X7295Y25638D01*
G01X7262Y25660D01*
G37*
G36*
G01X7026Y25979D02*
G01X6985Y25981D01*
G01X6996Y25949D01*
G01X7056Y25883D01*
G01X7117Y25832D01*
G01X7176Y25800D01*
G01X7226Y25790D01*
G01X7263Y25804D01*
G01X7272Y25835D01*
G01X7248Y25873D01*
G01X7196Y25911D01*
G01X7121Y25947D01*
G01X7026Y25979D01*
G37*

%LPD*%
G36*
G01X2375Y25859D02*
G01X2308Y25863D01*
G01X2241Y25858D01*
G01X2175Y25845D01*
G01X2110Y25823D01*
G01X2047Y25793D01*
G01X1985Y25755D01*
G01X1924Y25708D01*
G01X1863Y25653D01*
G01X1809Y25600D01*
G01X1766Y25551D01*
G01X1732Y25506D01*
G01X1708Y25466D01*
G01X1693Y25429D01*
G01X1688Y25398D01*
G01X1693Y25371D01*
G01X1708Y25350D01*
G01X1733Y25335D01*
G01X1768Y25325D01*
G01X1813Y25322D01*
G01X1876Y25306D01*
G01X1949Y25263D01*
G01X2024Y25200D01*
G01X2091Y25122D01*
G01X2137Y25060D01*
G01X2177Y25017D01*
G01X2214Y24991D01*
G01X2250Y24983D01*
G01X2291Y24994D01*
G01X2340Y25024D01*
G01X2400Y25073D01*
G01X2477Y25140D01*
G01X2534Y25195D01*
G01X2582Y25251D01*
G01X2623Y25307D01*
G01X2657Y25362D01*
G01X2681Y25416D01*
G01X2699Y25470D01*
G01X2708Y25522D01*
G01X2710Y25571D01*
G01X2703Y25618D01*
G01X2690Y25662D01*
G01X2668Y25703D01*
G01X2638Y25741D01*
G01X2601Y25775D01*
G01X2555Y25804D01*
G01X2503Y25827D01*
G01X2442Y25847D01*
G01X2375Y25859D01*
G37*

%LPD*%
G36*
G01X5568Y26639D02*
G01X5580Y26671D01*
G01X5538Y26669D01*
G01X5443Y26637D01*
G01X5369Y26602D01*
G01X5317Y26562D01*
G01X5293Y26525D01*
G01X5302Y26494D01*
G01X5338Y26480D01*
G01X5389Y26490D01*
G01X5448Y26522D01*
G01X5508Y26573D01*
G01X5568Y26639D01*
G37*

%LPD*%
G36*
G01X1526Y27838D02*
G01X1434Y27852D01*
G01X1388Y27850D01*
G01X1349Y27845D01*
G01X1317Y27834D01*
G01X1291Y27816D01*
G01X1270Y27791D01*
G01X1254Y27758D01*
G01X1243Y27714D01*
G01X1237Y27659D01*
G01X1234Y27593D01*
G01X1235Y27512D01*
G01X1238Y27417D01*
G01X1245Y27307D01*
G01X1252Y27210D01*
G01X1261Y27123D01*
G01X1271Y27046D01*
G01X1284Y26979D01*
G01X1299Y26921D01*
G01X1316Y26872D01*
G01X1336Y26830D01*
G01X1358Y26796D01*
G01X1384Y26769D01*
G01X1412Y26748D01*
G01X1445Y26733D01*
G01X1481Y26723D01*
G01X1564Y26720D01*
G01X1627Y26744D01*
G01X1668Y26794D01*
G01X1682Y26866D01*
G01X1684Y26892D01*
G01X1690Y26916D01*
G01X1699Y26937D01*
G01X1714Y26956D01*
G01X1734Y26972D01*
G01X1760Y26987D01*
G01X1791Y27000D01*
G01X1829Y27011D01*
G01X1875Y27020D01*
G01X1928Y27028D01*
G01X1989Y27034D01*
G01X2059Y27039D01*
G01X2137Y27043D01*
G01X2224Y27045D01*
G01X2322Y27047D01*
G01X2549Y27047D01*
G01X2654Y27048D01*
G01X2748Y27050D01*
G01X2830Y27054D01*
G01X2900Y27059D01*
G01X2961Y27065D01*
G01X3012Y27074D01*
G01X3055Y27085D01*
G01X3090Y27097D01*
G01X3118Y27113D01*
G01X3139Y27132D01*
G01X3155Y27154D01*
G01X3166Y27179D01*
G01X3173Y27208D01*
G01X3176Y27240D01*
G01X3177Y27277D01*
G01X3176Y27313D01*
G01X3173Y27345D01*
G01X3166Y27374D01*
G01X3155Y27399D01*
G01X3141Y27421D01*
G01X3120Y27440D01*
G01X3094Y27456D01*
G01X3062Y27469D01*
G01X3022Y27479D01*
G01X2974Y27488D01*
G01X2918Y27495D01*
G01X2852Y27500D01*
G01X2777Y27503D01*
G01X2691Y27505D01*
G01X2593Y27506D01*
G01X2484Y27507D01*
G01X2362Y27508D01*
G01X2254Y27511D01*
G01X2156Y27516D01*
G01X2071Y27524D01*
G01X1996Y27533D01*
G01X1931Y27545D01*
G01X1875Y27561D01*
G01X1829Y27578D01*
G01X1791Y27599D01*
G01X1761Y27623D01*
G01X1739Y27649D01*
G01X1724Y27680D01*
G01X1681Y27746D01*
G01X1611Y27801D01*
G01X1526Y27838D01*
G37*

%LPD*%
G36*
G01X6729Y29457D02*
G01X6692Y29462D01*
G01X6660Y29458D01*
G01X6621Y29445D01*
G01X6579Y29426D01*
G01X6534Y29400D01*
G01X6488Y29369D01*
G01X6442Y29333D01*
G01X6398Y29293D01*
G01X6357Y29250D01*
G01X6298Y29184D01*
G01X6257Y29128D01*
G01X6234Y29081D01*
G01X6230Y29038D01*
G01X6245Y28994D01*
G01X6280Y28946D01*
G01X6334Y28889D01*
G01X6410Y28820D01*
G01X6470Y28763D01*
G01X6524Y28706D01*
G01X6573Y28648D01*
G01X6617Y28590D01*
G01X6656Y28532D01*
G01X6690Y28475D01*
G01X6717Y28417D01*
G01X6739Y28361D01*
G01X6756Y28306D01*
G01X6766Y28253D01*
G01X6770Y28201D01*
G01X6769Y28151D01*
G01X6761Y28104D01*
G01X6747Y28059D01*
G01X6727Y28017D01*
G01X6700Y27978D01*
G01X6649Y27910D01*
G01X6608Y27845D01*
G01X6580Y27789D01*
G01X6570Y27751D01*
G01X6549Y27724D01*
G01X6494Y27700D01*
G01X6412Y27682D01*
G01X6312Y27671D01*
G01X6199Y27672D01*
G01X6138Y27692D01*
G01X6129Y27732D01*
G01X6167Y27794D01*
G01X6205Y27853D01*
G01X6226Y27912D01*
G01X6227Y27964D01*
G01X6208Y28003D01*
G01X6199Y28027D01*
G01X6229Y28040D01*
G01X6291Y28040D01*
G01X6379Y28028D01*
G01X6456Y28017D01*
G01X6523Y28015D01*
G01X6580Y28022D01*
G01X6624Y28035D01*
G01X6657Y28054D01*
G01X6676Y28077D01*
G01X6681Y28104D01*
G01X6673Y28132D01*
G01X6650Y28160D01*
G01X6612Y28188D01*
G01X6557Y28214D01*
G01X6486Y28237D01*
G01X6430Y28248D01*
G01X6371Y28251D01*
G01X6311Y28247D01*
G01X6252Y28237D01*
G01X6194Y28220D01*
G01X6140Y28197D01*
G01X6090Y28168D01*
G01X6046Y28134D01*
G01X5990Y28085D01*
G01X5940Y28052D01*
G01X5896Y28035D01*
G01X5854Y28034D01*
G01X5810Y28050D01*
G01X5762Y28084D01*
G01X5707Y28137D01*
G01X5639Y28208D01*
G01X5596Y28258D01*
G01X5556Y28308D01*
G01X5521Y28356D01*
G01X5491Y28401D01*
G01X5467Y28442D01*
G01X5450Y28477D01*
G01X5441Y28506D01*
G01X5441Y28525D01*
G01X5437Y28551D01*
G01X5410Y28568D01*
G01X5365Y28574D01*
G01X5306Y28568D01*
G01X5240Y28564D01*
G01X5177Y28575D01*
G01X5123Y28601D01*
G01X5086Y28638D01*
G01X5083Y28658D01*
G01X5097Y28675D01*
G01X5126Y28689D01*
G01X5168Y28700D01*
G01X5217Y28708D01*
G01X5273Y28712D01*
G01X5332Y28712D01*
G01X5391Y28709D01*
G01X5446Y28702D01*
G01X5495Y28692D01*
G01X5535Y28676D01*
G01X5563Y28657D01*
G01X5586Y28645D01*
G01X5626Y28633D01*
G01X5678Y28621D01*
G01X5736Y28614D01*
G01X5792Y28597D01*
G01X5838Y28561D01*
G01X5869Y28513D01*
G01X5880Y28456D01*
G01X5887Y28411D01*
G01X5908Y28375D01*
G01X5939Y28346D01*
G01X5977Y28328D01*
G01X6019Y28319D01*
G01X6064Y28322D01*
G01X6106Y28338D01*
G01X6145Y28367D01*
G01X6152Y28380D01*
G01X6151Y28399D01*
G01X6141Y28423D01*
G01X6126Y28452D01*
G01X6104Y28484D01*
G01X6076Y28521D01*
G01X6043Y28561D01*
G01X6005Y28604D01*
G01X5963Y28649D01*
G01X5916Y28697D01*
G01X5867Y28746D01*
G01X5814Y28797D01*
G01X5758Y28847D01*
G01X5701Y28899D01*
G01X5643Y28951D01*
G01X5523Y29051D01*
G01X5463Y29099D01*
G01X5403Y29146D01*
G01X5344Y29190D01*
G01X5287Y29233D01*
G01X5232Y29271D01*
G01X5179Y29306D01*
G01X5129Y29337D01*
G01X5083Y29364D01*
G01X5040Y29385D01*
G01X5001Y29402D01*
G01X4968Y29412D01*
G01X4901Y29427D01*
G01X4835Y29435D01*
G01X4770Y29438D01*
G01X4706Y29436D01*
G01X4645Y29429D01*
G01X4587Y29418D01*
G01X4532Y29402D01*
G01X4482Y29383D01*
G01X4436Y29360D01*
G01X4395Y29334D01*
G01X4361Y29304D01*
G01X4333Y29272D01*
G01X4313Y29237D01*
G01X4300Y29200D01*
G01X4296Y29160D01*
G01X4301Y29119D01*
G01X4304Y29073D01*
G01X4289Y29046D01*
G01X4258Y29041D01*
G01X4214Y29058D01*
G01X4160Y29066D01*
G01X4100Y29032D01*
G01X4041Y28963D01*
G01X3992Y28865D01*
G01X3972Y28810D01*
G01X3956Y28755D01*
G01X3944Y28698D01*
G01X3936Y28641D01*
G01X3931Y28584D01*
G01X3930Y28526D01*
G01X3933Y28468D01*
G01X3939Y28410D01*
G01X3948Y28352D01*
G01X3961Y28294D01*
G01X3978Y28236D01*
G01X3998Y28178D01*
G01X4022Y28122D01*
G01X4048Y28065D01*
G01X4078Y28009D01*
G01X4112Y27954D01*
G01X4149Y27900D01*
G01X4189Y27847D01*
G01X4232Y27795D01*
G01X4279Y27744D01*
G01X4340Y27681D01*
G01X4391Y27630D01*
G01X4436Y27589D01*
G01X4475Y27559D01*
G01X4510Y27539D01*
G01X4543Y27530D01*
G01X4575Y27530D01*
G01X4608Y27540D01*
G01X4643Y27560D01*
G01X4682Y27588D01*
G01X4728Y27626D01*
G01X4779Y27672D01*
G01X4832Y27721D01*
G01X4875Y27762D01*
G01X4909Y27798D01*
G01X4932Y27831D01*
G01X4946Y27862D01*
G01X4950Y27894D01*
G01X4943Y27929D01*
G01X4926Y27967D01*
G01X4899Y28011D01*
G01X4862Y28063D01*
G01X4813Y28124D01*
G01X4755Y28197D01*
G01X4691Y28273D01*
G01X4631Y28334D01*
G01X4577Y28380D01*
G01X4526Y28412D01*
G01X4480Y28429D01*
G01X4437Y28433D01*
G01X4396Y28423D01*
G01X4358Y28400D01*
G01X4324Y28368D01*
G01X4303Y28336D01*
G01X4295Y28304D01*
G01X4300Y28269D01*
G01X4319Y28231D01*
G01X4352Y28189D01*
G01X4400Y28141D01*
G01X4463Y28088D01*
G01X4515Y28043D01*
G01X4556Y28000D01*
G01X4588Y27960D01*
G01X4610Y27922D01*
G01X4621Y27888D01*
G01X4621Y27859D01*
G01X4611Y27834D01*
G01X4589Y27814D01*
G01X4532Y27797D01*
G01X4465Y27808D01*
G01X4397Y27843D01*
G01X4336Y27899D01*
G01X4293Y27957D01*
G01X4255Y28021D01*
G01X4222Y28090D01*
G01X4196Y28161D01*
G01X4175Y28233D01*
G01X4160Y28303D01*
G01X4153Y28371D01*
G01X4151Y28434D01*
G01X4157Y28491D01*
G01X4171Y28539D01*
G01X4192Y28578D01*
G01X4221Y28605D01*
G01X4258Y28640D01*
G01X4279Y28685D01*
G01X4281Y28735D01*
G01X4263Y28782D01*
G01X4249Y28823D01*
G01X4260Y28851D01*
G01X4294Y28865D01*
G01X4348Y28861D01*
G01X4404Y28862D01*
G01X4444Y28889D01*
G01X4464Y28937D01*
G01X4461Y29002D01*
G01X4453Y29062D01*
G01X4459Y29098D01*
G01X4478Y29109D01*
G01X4508Y29089D01*
G01X4553Y29065D01*
G01X4611Y29064D01*
G01X4675Y29084D01*
G01X4738Y29123D01*
G01X4804Y29168D01*
G01X4862Y29183D01*
G01X4912Y29171D01*
G01X4951Y29130D01*
G01X4965Y29087D01*
G01X4957Y29038D01*
G01X4931Y28989D01*
G01X4890Y28942D01*
G01X4838Y28899D01*
G01X4777Y28864D01*
G01X4711Y28841D01*
G01X4643Y28831D01*
G01X4611Y28822D01*
G01X4586Y28796D01*
G01X4571Y28759D01*
G01X4569Y28714D01*
G01X4582Y28672D01*
G01X4611Y28643D01*
G01X4650Y28629D01*
G01X4697Y28633D01*
G01X4712Y28633D01*
G01X4733Y28628D01*
G01X4759Y28616D01*
G01X4790Y28600D01*
G01X4826Y28579D01*
G01X4866Y28552D01*
G01X4910Y28522D01*
G01X4957Y28487D01*
G01X5008Y28449D01*
G01X5061Y28406D01*
G01X5117Y28361D01*
G01X5175Y28312D01*
G01X5235Y28260D01*
G01X5296Y28206D01*
G01X5358Y28150D01*
G01X5420Y28092D01*
G01X5484Y28033D01*
G01X5548Y27975D01*
G01X5614Y27918D01*
G01X5679Y27863D01*
G01X5744Y27810D01*
G01X5809Y27759D01*
G01X5873Y27710D01*
G01X5935Y27665D01*
G01X5995Y27622D01*
G01X6052Y27584D01*
G01X6107Y27549D01*
G01X6158Y27518D01*
G01X6205Y27492D01*
G01X6248Y27471D01*
G01X6286Y27455D01*
G01X6319Y27444D01*
G01X6383Y27431D01*
G01X6448Y27422D01*
G01X6514Y27416D01*
G01X6580Y27415D01*
G01X6645Y27418D01*
G01X6709Y27424D01*
G01X6771Y27433D01*
G01X6829Y27446D01*
G01X6883Y27462D01*
G01X6932Y27479D01*
G01X6977Y27501D01*
G01X7014Y27524D01*
G01X7045Y27549D01*
G01X7068Y27576D01*
G01X7082Y27605D01*
G01X7087Y27636D01*
G01X7077Y27674D01*
G01X7048Y27693D01*
G01X7006Y27691D01*
G01X6954Y27668D01*
G01X6904Y27643D01*
G01X6879Y27644D01*
G01X6879Y27670D01*
G01X6905Y27721D01*
G01X6945Y27768D01*
G01X6993Y27798D01*
G01X7044Y27807D01*
G01X7089Y27793D01*
G01X7116Y27783D01*
G01X7143Y27783D01*
G01X7172Y27794D01*
G01X7201Y27813D01*
G01X7230Y27841D01*
G01X7258Y27876D01*
G01X7285Y27918D01*
G01X7312Y27966D01*
G01X7337Y28019D01*
G01X7360Y28077D01*
G01X7380Y28138D01*
G01X7398Y28201D01*
G01X7412Y28267D01*
G01X7423Y28334D01*
G01X7430Y28401D01*
G01X7432Y28468D01*
G01X7429Y28517D01*
G01X7418Y28572D01*
G01X7401Y28630D01*
G01X7377Y28691D01*
G01X7349Y28755D01*
G01X7316Y28820D01*
G01X7279Y28887D01*
G01X7239Y28953D01*
G01X7195Y29018D01*
G01X7149Y29082D01*
G01X7102Y29144D01*
G01X7053Y29202D01*
G01X7004Y29256D01*
G01X6955Y29306D01*
G01X6906Y29350D01*
G01X6859Y29388D01*
G01X6813Y29419D01*
G01X6769Y29442D01*
G01X6729Y29457D01*
G37*

%LPC*%
G36*
G01X6714Y29184D02*
G01X6665Y29186D01*
G01X6617Y29169D01*
G01X6580Y29133D01*
G01X6560Y29089D01*
G01X6558Y29039D01*
G01X6576Y28992D01*
G01X6610Y28955D01*
G01X6655Y28935D01*
G01X6704Y28933D01*
G01X6752Y28951D01*
G01X6789Y28985D01*
G01X6809Y29030D01*
G01X6811Y29079D01*
G01X6794Y29127D01*
G01X6759Y29163D01*
G01X6714Y29184D01*
G37*
G36*
G01X7185Y28612D02*
G01X7164Y28620D01*
G01X7111Y28611D01*
G01X7032Y28584D01*
G01X6953Y28547D01*
G01X6912Y28510D01*
G01X6910Y28478D01*
G01X6950Y28453D01*
G01X6999Y28429D01*
G01X7032Y28395D01*
G01X7045Y28358D01*
G01X7035Y28321D01*
G01X7028Y28288D01*
G01X7047Y28260D01*
G01X7088Y28242D01*
G01X7148Y28235D01*
G01X7215Y28243D01*
G01X7246Y28268D01*
G01X7242Y28310D01*
G01X7202Y28370D01*
G01X7165Y28429D01*
G01X7146Y28490D01*
G01X7148Y28545D01*
G01X7171Y28587D01*
G01X7185Y28612D01*
G37*

%LPD*%
G36*
G01X6483Y27922D02*
G01X6436Y27922D01*
G01X6389Y27905D01*
G01X6341Y27872D01*
G01X6308Y27845D01*
G01X6291Y27823D01*
G01X6290Y27805D01*
G01X6305Y27791D01*
G01X6337Y27782D01*
G01X6385Y27777D01*
G01X6450Y27775D01*
G01X6510Y27783D01*
G01X6550Y27804D01*
G01X6567Y27835D01*
G01X6557Y27873D01*
G01X6525Y27906D01*
G01X6483Y27922D01*
G37*

%LPD*%
G36*
G01X2241Y29698D02*
G01X2188Y29698D01*
G01X2135Y29695D01*
G01X2081Y29688D01*
G01X2029Y29679D01*
G01X1976Y29666D01*
G01X1924Y29650D01*
G01X1874Y29631D01*
G01X1823Y29609D01*
G01X1774Y29585D01*
G01X1726Y29557D01*
G01X1679Y29526D01*
G01X1633Y29492D01*
G01X1589Y29455D01*
G01X1546Y29415D01*
G01X1504Y29373D01*
G01X1465Y29328D01*
G01X1428Y29279D01*
G01X1392Y29228D01*
G01X1359Y29174D01*
G01X1333Y29126D01*
G01X1312Y29077D01*
G01X1295Y29025D01*
G01X1283Y28972D01*
G01X1275Y28919D01*
G01X1271Y28864D01*
G01X1272Y28809D01*
G01X1276Y28753D01*
G01X1285Y28697D01*
G01X1298Y28641D01*
G01X1314Y28584D01*
G01X1335Y28528D01*
G01X1359Y28473D01*
G01X1388Y28418D01*
G01X1420Y28363D01*
G01X1456Y28310D01*
G01X1495Y28258D01*
G01X1538Y28207D01*
G01X1585Y28158D01*
G01X1635Y28110D01*
G01X1677Y28075D01*
G01X1719Y28042D01*
G01X1761Y28013D01*
G01X1805Y27986D01*
G01X1847Y27962D01*
G01X1891Y27940D01*
G01X1934Y27921D01*
G01X1978Y27905D01*
G01X2021Y27892D01*
G01X2065Y27881D01*
G01X2108Y27872D01*
G01X2152Y27866D01*
G01X2195Y27861D01*
G01X2238Y27860D01*
G01X2281Y27860D01*
G01X2323Y27862D01*
G01X2407Y27874D01*
G01X2447Y27883D01*
G01X2488Y27893D01*
G01X2528Y27906D01*
G01X2567Y27920D01*
G01X2605Y27936D01*
G01X2643Y27954D01*
G01X2680Y27973D01*
G01X2716Y27994D01*
G01X2751Y28016D01*
G01X2785Y28041D01*
G01X2818Y28066D01*
G01X2850Y28093D01*
G01X2881Y28121D01*
G01X2911Y28150D01*
G01X2939Y28180D01*
G01X2966Y28212D01*
G01X2992Y28244D01*
G01X3016Y28279D01*
G01X3039Y28313D01*
G01X3060Y28349D01*
G01X3080Y28385D01*
G01X3097Y28422D01*
G01X3114Y28460D01*
G01X3128Y28499D01*
G01X3141Y28538D01*
G01X3152Y28578D01*
G01X3161Y28618D01*
G01X3168Y28660D01*
G01X3173Y28701D01*
G01X3176Y28742D01*
G01X3177Y28784D01*
G01X3175Y28826D01*
G01X3172Y28869D01*
G01X3166Y28911D01*
G01X3157Y28954D01*
G01X3146Y28996D01*
G01X3133Y29038D01*
G01X3117Y29081D01*
G01X3099Y29123D01*
G01X3078Y29165D01*
G01X3055Y29207D01*
G01X3028Y29248D01*
G01X2999Y29289D01*
G01X2967Y29330D01*
G01X2933Y29370D01*
G01X2895Y29410D01*
G01X2851Y29451D01*
G01X2805Y29490D01*
G01X2758Y29526D01*
G01X2709Y29558D01*
G01X2660Y29586D01*
G01X2610Y29612D01*
G01X2558Y29634D01*
G01X2507Y29653D01*
G01X2454Y29668D01*
G01X2402Y29681D01*
G01X2349Y29690D01*
G01X2295Y29696D01*
G01X2241Y29698D01*
G37*

%LPC*%
G36*
G01X2263Y29227D02*
G01X2194Y29230D01*
G01X2138Y29228D01*
G01X2084Y29220D01*
G01X2033Y29208D01*
G01X1985Y29192D01*
G01X1940Y29171D01*
G01X1898Y29147D01*
G01X1859Y29119D01*
G01X1824Y29087D01*
G01X1793Y29054D01*
G01X1765Y29017D01*
G01X1741Y28979D01*
G01X1721Y28938D01*
G01X1705Y28896D01*
G01X1694Y28854D01*
G01X1687Y28810D01*
G01X1684Y28765D01*
G01X1687Y28721D01*
G01X1694Y28677D01*
G01X1706Y28633D01*
G01X1724Y28590D01*
G01X1746Y28548D01*
G01X1775Y28508D01*
G01X1808Y28469D01*
G01X1848Y28432D01*
G01X1887Y28406D01*
G01X1938Y28382D01*
G01X1996Y28362D01*
G01X2060Y28347D01*
G01X2128Y28335D01*
G01X2198Y28329D01*
G01X2268Y28328D01*
G01X2336Y28332D01*
G01X2425Y28346D01*
G01X2499Y28365D01*
G01X2557Y28392D01*
G01X2603Y28428D01*
G01X2639Y28475D01*
G01X2665Y28536D01*
G01X2684Y28610D01*
G01X2698Y28702D01*
G01X2703Y28767D01*
G01X2703Y28827D01*
G01X2699Y28883D01*
G01X2690Y28934D01*
G01X2676Y28982D01*
G01X2658Y29025D01*
G01X2634Y29064D01*
G01X2605Y29099D01*
G01X2571Y29129D01*
G01X2533Y29156D01*
G01X2489Y29178D01*
G01X2440Y29196D01*
G01X2386Y29211D01*
G01X2327Y29221D01*
G01X2263Y29227D01*
G37*

%LPD*%
G36*
G01X5816Y28515D02*
G01X5812Y28527D01*
G01X5785Y28521D01*
G01X5736Y28496D01*
G01X5675Y28459D01*
G01X5633Y28428D01*
G01X5609Y28399D01*
G01X5605Y28369D01*
G01X5621Y28336D01*
G01X5657Y28296D01*
G01X5715Y28245D01*
G01X5793Y28182D01*
G01X5852Y28137D01*
G01X5896Y28104D01*
G01X5923Y28086D01*
G01X5937Y28082D01*
G01X5936Y28092D01*
G01X5921Y28115D01*
G01X5893Y28154D01*
G01X5852Y28207D01*
G01X5803Y28286D01*
G01X5776Y28364D01*
G01X5773Y28433D01*
G01X5794Y28485D01*
G01X5816Y28515D01*
G37*

%LPD*%
G36*
G01X5124Y32237D02*
G01X5094Y32239D01*
G01X5068Y32238D01*
G01X5046Y32233D01*
G01X5027Y32225D01*
G01X5012Y32213D01*
G01X5000Y32198D01*
G01X4970Y32147D01*
G01X4946Y32098D01*
G01X4927Y32049D01*
G01X4913Y32001D01*
G01X4904Y31954D01*
G01X4901Y31907D01*
G01X4903Y31860D01*
G01X4912Y31815D01*
G01X4925Y31769D01*
G01X4944Y31723D01*
G01X4968Y31678D01*
G01X4999Y31632D01*
G01X5035Y31587D01*
G01X5077Y31541D01*
G01X5125Y31495D01*
G01X5178Y31449D01*
G01X5238Y31402D01*
G01X5303Y31354D01*
G01X5375Y31306D01*
G01X5452Y31257D01*
G01X5995Y30926D01*
G01X5535Y30768D01*
G01X5471Y30745D01*
G01X5408Y30724D01*
G01X5345Y30702D01*
G01X5283Y30680D01*
G01X5224Y30660D01*
G01X5168Y30640D01*
G01X5115Y30622D01*
G01X5066Y30605D01*
G01X5023Y30589D01*
G01X4986Y30576D01*
G01X4955Y30565D01*
G01X4931Y30556D01*
G01X4901Y30537D01*
G01X4874Y30501D01*
G01X4849Y30451D01*
G01X4828Y30388D01*
G01X4811Y30314D01*
G01X4798Y30230D01*
G01X4790Y30140D01*
G01X4787Y30043D01*
G01X4787Y29582D01*
G01X5621Y29886D01*
G01X5671Y29904D01*
G01X5724Y29923D01*
G01X5778Y29943D01*
G01X5835Y29964D01*
G01X5892Y29984D01*
G01X5952Y30006D01*
G01X6013Y30028D01*
G01X6075Y30051D01*
G01X6138Y30074D01*
G01X6266Y30120D01*
G01X6397Y30168D01*
G01X6463Y30191D01*
G01X6661Y30263D01*
G01X6726Y30286D01*
G01X6854Y30332D01*
G01X6917Y30355D01*
G01X6978Y30378D01*
G01X7039Y30399D01*
G01X7098Y30420D01*
G01X7155Y30441D01*
G01X7211Y30461D01*
G01X7265Y30481D01*
G01X7317Y30499D01*
G01X7432Y30541D01*
G01X7537Y30579D01*
G01X7631Y30614D01*
G01X7717Y30647D01*
G01X7792Y30678D01*
G01X7860Y30708D01*
G01X7919Y30736D01*
G01X7972Y30763D01*
G01X8017Y30790D01*
G01X8056Y30816D01*
G01X8089Y30843D01*
G01X8117Y30871D01*
G01X8140Y30900D01*
G01X8159Y30931D01*
G01X8174Y30964D01*
G01X8187Y30999D01*
G01X8196Y31036D01*
G01X8204Y31077D01*
G01X8210Y31122D01*
G01X8216Y31170D01*
G01X8221Y31231D01*
G01X8223Y31285D01*
G01X8222Y31333D01*
G01X8218Y31376D01*
G01X8211Y31414D01*
G01X8200Y31446D01*
G01X8184Y31472D01*
G01X8165Y31494D01*
G01X8140Y31509D01*
G01X8111Y31520D01*
G01X8077Y31526D01*
G01X8038Y31526D01*
G01X7993Y31522D01*
G01X7942Y31512D01*
G01X7885Y31498D01*
G01X7822Y31479D01*
G01X7752Y31455D01*
G01X7675Y31427D01*
G01X7590Y31394D01*
G01X7499Y31355D01*
G01X7077Y31180D01*
G01X6086Y31763D01*
G01X5977Y31827D01*
G01X5875Y31885D01*
G01X5780Y31940D01*
G01X5691Y31988D01*
G01X5610Y32033D01*
G01X5534Y32073D01*
G01X5464Y32108D01*
G01X5400Y32139D01*
G01X5341Y32166D01*
G01X5288Y32188D01*
G01X5240Y32206D01*
G01X5197Y32221D01*
G01X5158Y32231D01*
G01X5124Y32237D01*
G37*

%LPD*%
G36*
G01X2515Y30382D02*
G01X2134Y30382D01*
G01X2009Y30380D01*
G01X1898Y30378D01*
G01X1799Y30375D01*
G01X1711Y30369D01*
G01X1635Y30363D01*
G01X1569Y30355D01*
G01X1513Y30346D01*
G01X1465Y30333D01*
G01X1425Y30320D01*
G01X1392Y30303D01*
G01X1366Y30284D01*
G01X1345Y30263D01*
G01X1329Y30238D01*
G01X1317Y30211D01*
G01X1308Y30180D01*
G01X1294Y30097D01*
G01X1287Y30016D01*
G01X1289Y29949D01*
G01X1300Y29904D01*
G01X1308Y29896D01*
G01X1326Y29889D01*
G01X1351Y29883D01*
G01X1384Y29877D01*
G01X1426Y29871D01*
G01X1473Y29866D01*
G01X1528Y29860D01*
G01X1588Y29856D01*
G01X1654Y29853D01*
G01X1724Y29850D01*
G01X1800Y29847D01*
G01X1879Y29846D01*
G01X1963Y29845D01*
G01X2137Y29845D01*
G01X2228Y29847D01*
G01X2375Y29850D01*
G01X2505Y29853D01*
G01X2619Y29858D01*
G01X2719Y29863D01*
G01X2805Y29870D01*
G01X2878Y29878D01*
G01X2939Y29888D01*
G01X2991Y29901D01*
G01X3033Y29916D01*
G01X3067Y29934D01*
G01X3093Y29955D01*
G01X3114Y29980D01*
G01X3129Y30009D01*
G01X3141Y30043D01*
G01X3149Y30080D01*
G01X3156Y30123D01*
G01X3161Y30159D01*
G01X3165Y30191D01*
G01X3166Y30220D01*
G01X3164Y30246D01*
G01X3158Y30269D01*
G01X3149Y30289D01*
G01X3136Y30307D01*
G01X3117Y30322D01*
G01X3092Y30335D01*
G01X3061Y30346D01*
G01X3023Y30355D01*
G01X2978Y30363D01*
G01X2925Y30368D01*
G01X2863Y30373D01*
G01X2791Y30377D01*
G01X2710Y30379D01*
G01X2618Y30381D01*
G01X2515Y30382D01*
G37*

%LPD*%
G36*
G01X7371Y36010D02*
G01X7353Y36018D01*
G01X7342Y36017D01*
G01X7324Y36016D01*
G01X7300Y36014D01*
G01X7271Y36011D01*
G01X7237Y36007D01*
G01X7198Y36003D01*
G01X7153Y35998D01*
G01X7105Y35992D01*
G01X6934Y35971D01*
G01X6870Y35963D01*
G01X6802Y35954D01*
G01X6732Y35945D01*
G01X6659Y35935D01*
G01X6583Y35925D01*
G01X6505Y35915D01*
G01X6425Y35905D01*
G01X6343Y35893D01*
G01X6260Y35882D01*
G01X6175Y35871D01*
G01X6090Y35859D01*
G01X5917Y35836D01*
G01X5831Y35824D01*
G01X5744Y35812D01*
G01X5572Y35788D01*
G01X5487Y35776D01*
G01X5403Y35764D01*
G01X5320Y35753D01*
G01X5239Y35741D01*
G01X5160Y35730D01*
G01X5083Y35719D01*
G01X5008Y35708D01*
G01X4936Y35698D01*
G01X4866Y35688D01*
G01X4800Y35678D01*
G01X4737Y35668D01*
G01X4678Y35659D01*
G01X4622Y35651D01*
G01X4572Y35643D01*
G01X4524Y35635D01*
G01X4482Y35629D01*
G01X4445Y35623D01*
G01X4413Y35617D01*
G01X4386Y35612D01*
G01X4364Y35608D01*
G01X4313Y35594D01*
G01X4263Y35572D01*
G01X4216Y35545D01*
G01X4172Y35513D01*
G01X4133Y35477D01*
G01X4101Y35438D01*
G01X4076Y35397D01*
G01X4060Y35355D01*
G01X4044Y35288D01*
G01X4031Y35225D01*
G01X4024Y35167D01*
G01X4020Y35114D01*
G01X4022Y35064D01*
G01X4028Y35019D01*
G01X4039Y34977D01*
G01X4055Y34939D01*
G01X4077Y34904D01*
G01X4104Y34871D01*
G01X4136Y34842D01*
G01X4174Y34815D01*
G01X4218Y34790D01*
G01X4267Y34767D01*
G01X4323Y34745D01*
G01X4385Y34726D01*
G01X4446Y34707D01*
G01X4509Y34686D01*
G01X4574Y34664D01*
G01X4641Y34641D01*
G01X4708Y34616D01*
G01X4777Y34590D01*
G01X4846Y34563D01*
G01X4984Y34507D01*
G01X5052Y34478D01*
G01X5119Y34449D01*
G01X5186Y34419D01*
G01X5251Y34390D01*
G01X5314Y34360D01*
G01X5374Y34331D01*
G01X5433Y34302D01*
G01X5489Y34274D01*
G01X5541Y34247D01*
G01X5590Y34221D01*
G01X5635Y34195D01*
G01X5677Y34171D01*
G01X5713Y34148D01*
G01X5745Y34127D01*
G01X5772Y34107D01*
G01X5793Y34089D01*
G01X5809Y34073D01*
G01X5819Y34059D01*
G01X5822Y34047D01*
G01X5813Y34028D01*
G01X5788Y34006D01*
G01X5748Y33983D01*
G01X5695Y33960D01*
G01X5632Y33937D01*
G01X5558Y33915D01*
G01X5477Y33895D01*
G01X5391Y33877D01*
G01X5344Y33868D01*
G01X5295Y33857D01*
G01X5241Y33844D01*
G01X5185Y33830D01*
G01X5126Y33814D01*
G01X5066Y33797D01*
G01X5005Y33779D01*
G01X4943Y33759D01*
G01X4880Y33740D01*
G01X4818Y33719D01*
G01X4756Y33697D01*
G01X4695Y33676D01*
G01X4635Y33654D01*
G01X4578Y33632D01*
G01X4523Y33610D01*
G01X4471Y33589D01*
G01X4379Y33548D01*
G01X4298Y33509D01*
G01X4229Y33472D01*
G01X4169Y33436D01*
G01X4120Y33400D01*
G01X4079Y33363D01*
G01X4046Y33324D01*
G01X4022Y33284D01*
G01X4003Y33241D01*
G01X3991Y33194D01*
G01X3984Y33143D01*
G01X3982Y33086D01*
G01X3986Y33015D01*
G01X3998Y32951D01*
G01X4018Y32892D01*
G01X4047Y32838D01*
G01X4083Y32791D01*
G01X4128Y32750D01*
G01X4180Y32714D01*
G01X4241Y32684D01*
G01X4272Y32672D01*
G01X4308Y32660D01*
G01X4346Y32646D01*
G01X4387Y32633D01*
G01X4432Y32619D01*
G01X4479Y32606D01*
G01X4529Y32592D01*
G01X4582Y32578D01*
G01X4637Y32564D01*
G01X4694Y32550D01*
G01X4753Y32536D01*
G01X4814Y32521D01*
G01X4877Y32508D01*
G01X4942Y32493D01*
G01X5007Y32479D01*
G01X5075Y32465D01*
G01X5143Y32452D01*
G01X5212Y32438D01*
G01X5282Y32424D01*
G01X5353Y32411D01*
G01X5569Y32372D01*
G01X5641Y32360D01*
G01X5785Y32337D01*
G01X5857Y32326D01*
G01X5928Y32315D01*
G01X6068Y32295D01*
G01X6204Y32277D01*
G01X6270Y32269D01*
G01X6334Y32261D01*
G01X6398Y32254D01*
G01X6459Y32248D01*
G01X6519Y32242D01*
G01X6576Y32237D01*
G01X6632Y32232D01*
G01X6684Y32229D01*
G01X6735Y32226D01*
G01X6782Y32224D01*
G01X6828Y32222D01*
G01X6995Y32222D01*
G01X7100Y32224D01*
G01X7187Y32229D01*
G01X7257Y32237D01*
G01X7312Y32250D01*
G01X7355Y32267D01*
G01X7385Y32293D01*
G01X7407Y32325D01*
G01X7421Y32366D01*
G01X7428Y32418D01*
G01X7432Y32480D01*
G01X7432Y32553D01*
G01X7431Y32600D01*
G01X7428Y32643D01*
G01X7422Y32683D01*
G01X7413Y32720D01*
G01X7402Y32756D01*
G01X7388Y32788D01*
G01X7370Y32817D01*
G01X7349Y32844D01*
G01X7325Y32869D01*
G01X7296Y32892D01*
G01X7263Y32913D01*
G01X7226Y32931D01*
G01X7184Y32948D01*
G01X7138Y32962D01*
G01X7087Y32975D01*
G01X7031Y32987D01*
G01X6970Y32996D01*
G01X6903Y33004D01*
G01X6830Y33011D01*
G01X6752Y33016D01*
G01X6667Y33020D01*
G01X6577Y33023D01*
G01X6479Y33025D01*
G01X6375Y33025D01*
G01X6301Y33026D01*
G01X6232Y33028D01*
G01X6168Y33031D01*
G01X6109Y33034D01*
G01X6055Y33039D01*
G01X6006Y33045D01*
G01X5963Y33051D01*
G01X5924Y33059D01*
G01X5891Y33067D01*
G01X5863Y33076D01*
G01X5840Y33086D01*
G01X5822Y33096D01*
G01X5809Y33108D01*
G01X5801Y33120D01*
G01X5798Y33132D01*
G01X5800Y33146D01*
G01X5807Y33160D01*
G01X5819Y33175D01*
G01X5837Y33190D01*
G01X5859Y33206D01*
G01X5886Y33222D01*
G01X5918Y33239D01*
G01X5955Y33256D01*
G01X5998Y33274D01*
G01X6045Y33292D01*
G01X6097Y33311D01*
G01X6154Y33330D01*
G01X6216Y33349D01*
G01X6283Y33369D01*
G01X6355Y33389D01*
G01X6431Y33409D01*
G01X6513Y33430D01*
G01X6626Y33458D01*
G01X6728Y33483D01*
G01X6820Y33506D01*
G01X6901Y33528D01*
G01X6974Y33549D01*
G01X7036Y33569D01*
G01X7092Y33589D01*
G01X7139Y33609D01*
G01X7179Y33629D01*
G01X7213Y33651D01*
G01X7240Y33673D01*
G01X7263Y33697D01*
G01X7280Y33724D01*
G01X7294Y33753D01*
G01X7303Y33786D01*
G01X7310Y33821D01*
G01X7314Y33861D01*
G01X7316Y33905D01*
G01X7317Y33953D01*
G01X7317Y34059D01*
G01X7315Y34107D01*
G01X7312Y34150D01*
G01X7307Y34190D01*
G01X7300Y34227D01*
G01X7288Y34261D01*
G01X7274Y34293D01*
G01X7254Y34323D01*
G01X7231Y34351D01*
G01X7201Y34379D01*
G01X7166Y34406D01*
G01X7123Y34433D01*
G01X7074Y34461D01*
G01X7017Y34490D01*
G01X6952Y34520D01*
G01X6878Y34553D01*
G01X6795Y34587D01*
G01X6702Y34625D01*
G01X6598Y34666D01*
G01X6483Y34710D01*
G01X5650Y35033D01*
G01X6512Y35151D01*
G01X6635Y35169D01*
G01X6745Y35184D01*
G01X6844Y35198D01*
G01X6933Y35212D01*
G01X7011Y35225D01*
G01X7079Y35239D01*
G01X7139Y35253D01*
G01X7190Y35268D01*
G01X7234Y35284D01*
G01X7271Y35302D01*
G01X7302Y35321D01*
G01X7327Y35343D01*
G01X7347Y35367D01*
G01X7364Y35395D01*
G01X7376Y35426D01*
G01X7386Y35460D01*
G01X7394Y35499D01*
G01X7400Y35542D01*
G01X7405Y35590D01*
G01X7411Y35643D01*
G01X7416Y35718D01*
G01X7417Y35788D01*
G01X7415Y35852D01*
G01X7409Y35907D01*
G01X7399Y35953D01*
G01X7387Y35988D01*
G01X7371Y36010D01*
G37*

%LPD*%
G54D34*
G01X21762Y18564D02*
G01X21462Y18564D01*
G01X22778Y19707D02*
G01X22478Y19707D01*
G01X22778Y20723D02*
G01X22478Y20723D01*
G01X21762Y17548D02*
G01X21462Y17548D01*
G01X28493Y24152D02*
G01X28193Y24152D01*
G01X28493Y23136D02*
G01X28193Y23136D01*
G01X37083Y30629D02*
G01X37383Y30629D01*
G01X37083Y29613D02*
G01X37383Y29613D01*
G01X45638Y14119D02*
G01X45338Y14119D01*
G01X45638Y15135D02*
G01X45338Y15135D01*
G54D45*
G01X44388Y22374D02*
G01X46588Y22374D01*
G01X44388Y21104D02*
G01X46588Y21104D01*
G01X44388Y19834D02*
G01X46588Y19834D01*
G01X44388Y18564D02*
G01X46588Y18564D01*
G01X44388Y17294D02*
G01X46588Y17294D01*
G54D37*
G01X5102Y39392D03*
G01X8101Y36392D03*
G01X2102Y36392D03*
G01X2102Y42391D03*
G01X8101Y42391D03*
G36*
G01X32955Y10603D02*
G01X32955Y12808D01*
G01X35160Y12808D01*
G01X35160Y10603D01*
G01X32955Y10603D01*
G37*
G54D33*
G01X34058Y14246D03*
G01X36598Y11706D03*
G01X36598Y14246D03*
G01X39138Y11706D03*
G01X39138Y14246D03*
G01X41678Y11706D03*
G01X41678Y14246D03*
G01X30558Y40916D03*
G01X33098Y40916D03*
G01X42638Y40916D03*
G01X45178Y40916D03*
M00*
M02*
